<svg xmlns="http://www.w3.org/2000/svg" xmlns:xlink="http://www.w3.org/1999/xlink" width="500" zoomAndPan="magnify" viewBox="0 0 375 374.999991" height="500" preserveAspectRatio="xMidYMid meet" version="1.2"><defs><clipPath id="b24daebd19"><path d="M 94 289 L 290.601562 289 L 290.601562 366.089844 L 94 366.089844 Z M 94 289 "/></clipPath><clipPath id="3497f9a8d5"><path d="M 172 17.339844 L 180 17.339844 L 180 28 L 172 28 Z M 172 17.339844 "/></clipPath><clipPath id="fb403d5c40"><path d="M 193 17.339844 L 200 17.339844 L 200 29 L 193 29 Z M 193 17.339844 "/></clipPath><clipPath id="43cdc445d2"><path d="M 30.386719 140 L 49 140 L 49 152 L 30.386719 152 Z M 30.386719 140 "/></clipPath><clipPath id="d34c28b5c2"><path d="M 30.386719 167 L 47 167 L 47 175 L 30.386719 175 Z M 30.386719 167 "/></clipPath><clipPath id="a4d829d68a"><path d="M 327 172.007812 L 337.136719 172.007812 L 337.136719 181 L 327 181 Z M 327 172.007812 "/></clipPath></defs><g id="a7746e036e"><path style=" stroke:none;fill-rule:nonzero;fill:#0d0d0d;fill-opacity:1;" d="M 286.808594 314.796875 C 279.980469 315.507812 272.859375 315.765625 272.007812 313.394531 C 269.636719 306.800781 261.3125 304.859375 262.1875 304.03125 C 262.53125 303.703125 265.488281 303.867188 270.394531 304.761719 C 272.8125 305.199219 280.019531 307.539062 282.410156 308.042969 C 283.636719 308.304688 284.65625 308.722656 285.53125 309.171875 C 289.050781 310.96875 295.105469 311.523438 299.746094 312.632812 C 302.261719 313.238281 304.355469 314.652344 305.425781 315.003906 C 304.183594 313.5 302.289062 312.96875 301.273438 312.582031 C 299.464844 311.890625 297.890625 311.214844 296.242188 310.925781 C 293.496094 310.449219 291.777344 310.292969 289.769531 309.300781 C 284.933594 306.921875 282.222656 305.800781 277.535156 305.078125 C 277.734375 304.5625 285.964844 303.878906 289.480469 304.027344 C 293.15625 304.171875 299.164062 305.09375 303.617188 304.851562 C 305.222656 304.761719 306.589844 304.480469 308.109375 304.316406 C 309.625 304.15625 311.445312 304.59375 313.113281 304.96875 C 311.664062 304.09375 308.695312 303.78125 306.417969 303.84375 C 304.140625 303.914062 302.054688 304.234375 299.644531 304.097656 C 296.113281 303.898438 292.652344 302.757812 289.097656 302.515625 C 284.441406 302.195312 280.859375 303.507812 276.195312 303.214844 C 273.597656 303.046875 271.171875 302.277344 268.554688 301.921875 C 262.035156 301.027344 251.21875 302.402344 241.8125 301.867188 C 236.953125 301.585938 231.410156 301.679688 227.269531 300.476562 C 223.921875 299.507812 217.03125 295.199219 216.667969 294.617188 C 215.632812 292.964844 220.324219 291.746094 223.921875 292.105469 C 227.515625 292.46875 230.238281 292.945312 233.839844 293.292969 C 238.207031 293.710938 242.871094 293.566406 247.238281 293.363281 C 250.828125 293.191406 258.316406 292.929688 261.929688 293.226562 C 268.21875 293.734375 270.679688 294.765625 276.960938 295.304688 C 273.417969 294.527344 269.8125 293.816406 266.320312 292.988281 C 262.113281 291.988281 256.1875 292.136719 253.757812 292.144531 C 229.316406 292.269531 230.421875 288.109375 215.839844 287.199219 C 209.078125 286.792969 197.246094 286.652344 190.464844 286.863281 C 186.011719 287 181.558594 287.988281 177.101562 288.03125 C 174.800781 288.050781 172.503906 288.0625 170.203125 288.078125 C 169.09375 288.082031 167.71875 286.503906 167.273438 286.917969 C 165.171875 286.703125 159.746094 287.757812 159.476562 287.78125 C 156.410156 288.019531 152.949219 287.898438 150.03125 288.367188 C 147.664062 288.738281 143.398438 289.769531 142.039062 290.832031 C 138.75 292.238281 135.539062 293.820312 131.398438 294.539062 C 129.660156 294.839844 127.808594 294.980469 126.125 295.355469 C 122.410156 296.179688 120.066406 298.007812 116.542969 299.023438 C 113.09375 300.011719 108.925781 300.109375 105.046875 300.007812 C 101.167969 299.90625 97.285156 299.628906 93.382812 299.964844 C 89.480469 300.300781 85.417969 301.414062 83.945312 303.15625 C 87.46875 301.011719 94.046875 300.78125 99.46875 301.121094 C 104.886719 301.453125 110.699219 302.101562 115.820312 300.910156 C 119.617188 300.03125 122.382812 298.242188 126.34375 297.570312 C 127.738281 297.332031 129.496094 297.292969 130.378906 297.808594 C 131.175781 298.28125 130.738281 298.96875 130.457031 299.582031 C 129.0625 302.570312 126.320312 302.972656 123.332031 304.351562 C 121.179688 305.34375 118.832031 305.78125 116.164062 306.429688 C 111.703125 307.511719 106.675781 308.238281 101.816406 308.679688 C 96.957031 309.113281 91.851562 309.851562 88.390625 311.582031 C 86.398438 312.582031 85.125 313.832031 83.265625 314.875 C 79.003906 317.273438 72.839844 318.941406 70.972656 321.839844 C 69.914062 323.472656 69.792969 324.898438 69.707031 326.5625 C 69.621094 328.179688 68.398438 329.824219 66.269531 331.183594 C 68.707031 329.566406 70.917969 328.429688 71.890625 326.554688 C 72.96875 324.472656 72.316406 322.417969 75.296875 320.699219 C 77.859375 319.222656 82.402344 317.09375 85.246094 315.714844 C 87.042969 314.84375 88.265625 314.238281 89.914062 313.304688 C 93.632812 311.210938 98.179688 310.894531 103.6875 310.171875 C 109.195312 309.449219 115.957031 308.222656 121.253906 307.171875 C 126.550781 306.117188 131.921875 303.609375 133.550781 301.035156 C 134.296875 299.855469 133.957031 299.226562 134.789062 298.058594 C 136.285156 295.976562 140.261719 294.441406 144.410156 293.402344 C 148.558594 292.367188 150.503906 291.292969 157.640625 291.214844 C 159.167969 291.195312 167.078125 290.460938 170.371094 292.402344 C 172.152344 293.445312 170.238281 294.722656 168.753906 295.90625 C 165.351562 298.617188 159.058594 300.167969 153.476562 301.9375 C 147.890625 303.699219 142.296875 306.1875 141.949219 309.292969 C 141.75 311.058594 142.023438 312.707031 143.785156 314.464844 C 145.363281 316.039062 147.273438 317.359375 141.300781 318.398438 C 138.140625 318.953125 132.695312 318.710938 129.628906 319.390625 C 126.375 320.109375 124.875 321.660156 122.238281 322.820312 C 118.617188 324.414062 113.691406 324.433594 108.859375 324.75 C 101.476562 325.238281 94.878906 327.96875 92.398438 331.234375 C 93.878906 329.917969 97.097656 329.117188 99.753906 328.195312 C 105.746094 326.109375 113.554688 326.742188 118.261719 326.011719 C 116.515625 328.429688 119.023438 332.410156 120.242188 334.835938 C 121.585938 337.511719 119.21875 337.542969 118.730469 340.890625 C 118.378906 343.230469 120.449219 345.945312 125.109375 346.726562 C 122.265625 345.660156 121.597656 343.734375 121.980469 342 C 122.363281 340.273438 123.582031 338.570312 123.6875 336.835938 C 123.914062 333.257812 118.769531 329.082031 123.132812 326.058594 C 126.34375 323.835938 127.207031 322.09375 132.320312 321.1875 C 139.847656 319.863281 147.8125 320.710938 150.292969 317.710938 C 151.378906 316.398438 149.226562 314.589844 148.648438 313.234375 C 145.300781 305.367188 160.671875 303.507812 161.871094 304.054688 C 163.570312 304.8125 159.785156 307.289062 162.445312 309.5625 C 164.234375 311.09375 168.628906 311.769531 169.621094 313.46875 C 170.539062 315.046875 167.574219 316.542969 166.695312 318.152344 C 164.875 321.484375 172.234375 324.84375 169.730469 328.082031 C 167.332031 331.1875 158.4375 331.484375 152.40625 333.195312 C 143.433594 335.742188 141.734375 342.488281 149.222656 345.746094 C 144.175781 341.324219 146.15625 336.125 154.605469 334.773438 C 158.320312 334.179688 162.753906 333.640625 166.125 332.6875 C 169.429688 331.757812 171.707031 328.894531 175.515625 328.808594 C 178.351562 328.746094 180.4375 332.109375 181.804688 333.273438 C 183.175781 334.4375 183.863281 335.761719 185.292969 336.910156 C 187.632812 338.785156 192.046875 340.398438 191.449219 342.574219 C 191.152344 343.652344 190.757812 344.4375 190.71875 345.734375 C 193.761719 343.730469 194.03125 340.882812 191.367188 338.796875 C 189.742188 337.523438 187.132812 336.515625 186.226562 335.085938 C 185.628906 334.148438 183.367188 330.292969 182.460938 329.417969 C 179.167969 326.226562 175.367188 326.898438 172.953125 323.542969 C 167.976562 316.640625 178.585938 316.925781 176.289062 313.789062 C 174.261719 311.011719 165.742188 309.566406 166.558594 306.636719 C 167.117188 304.617188 171.953125 303.492188 173.972656 301.683594 C 174.847656 300.890625 175.164062 299.988281 176.070312 299.203125 C 177.625 297.863281 180.984375 297.03125 184.1875 297.195312 C 187.390625 297.363281 188.1875 299.058594 189.023438 300.523438 C 190.859375 303.738281 185.621094 306.472656 187.542969 309.679688 C 188.140625 310.675781 189.613281 311.582031 189.46875 312.621094 C 189.335938 313.597656 187.804688 314.390625 186.808594 315.253906 C 184.523438 317.238281 185.195312 319.871094 188.40625 321.515625 C 191.675781 323.1875 196.753906 323.707031 201.035156 324.761719 C 205.316406 325.824219 209.242188 328.121094 207.320312 330.214844 C 209.949219 328.441406 209.550781 325.820312 206.417969 324.25 C 203.808594 322.9375 199.902344 322.441406 196.542969 321.59375 C 193.183594 320.746094 190 319.117188 190.894531 317.363281 C 191.675781 315.828125 195.292969 314.828125 195.671875 313.269531 C 195.832031 312.597656 195.863281 311.878906 195.296875 311.261719 C 190.496094 306.027344 196.617188 301.472656 210.214844 306.949219 C 214.742188 308.773438 210.984375 312.074219 214.535156 313.375 C 218.613281 314.855469 229.273438 312.960938 231.617188 315.128906 C 233.824219 317.160156 225.988281 320.9375 226.195312 323.214844 C 226.40625 325.496094 230.976562 327.21875 232.007812 329.453125 C 233.441406 332.546875 227.800781 335.339844 226.675781 338.46875 C 225.703125 341.167969 228.515625 344.078125 233.472656 345.503906 C 229.050781 343.941406 229.289062 340.761719 231.101562 338.304688 C 232.917969 335.84375 235.902344 333.457031 235.523438 330.863281 C 235.179688 328.503906 232.074219 326.410156 231.117188 324.078125 C 230.160156 321.75 233.144531 319.328125 238.144531 319.011719 C 250.21875 318.25 245.671875 324.785156 250.847656 327.335938 C 255.695312 329.726562 268.152344 331.273438 268.140625 335.714844 C 268.136719 337.730469 267.695312 340.332031 263.941406 341.355469 C 271.363281 339.617188 273.6875 334.566406 268.417969 331.519531 C 264.054688 329 250.386719 326.078125 252.613281 323.652344 C 251.890625 324.4375 264.933594 325.113281 275.550781 323.894531 C 281.796875 323.175781 288.335938 325.035156 290.089844 327.898438 C 288.621094 325.496094 285.429688 323.613281 280.863281 322.972656 C 276.292969 322.332031 272.882812 322.84375 268.171875 322.929688 C 263.460938 323.003906 257 323.332031 253.671875 321.734375 C 251.230469 320.558594 251.355469 318.183594 248.425781 317.273438 C 245.734375 316.4375 242.039062 316.511719 239.570312 315.535156 C 237.644531 314.773438 236.914062 313.539062 235.269531 312.636719 C 230.363281 309.941406 218.363281 313.761719 218.050781 310.273438 C 217.648438 305.820312 211.796875 303.515625 205.949219 302.714844 C 202.101562 302.1875 198.207031 301.320312 196.140625 299.710938 C 194.074219 298.097656 194.480469 295.707031 197.792969 294.65625 C 201.125 293.605469 205.820312 294.292969 208.839844 295.558594 C 211.851562 296.820312 213.785156 298.546875 216.347656 300.015625 C 222.480469 303.515625 233.890625 304.785156 243.363281 304.355469 C 246.144531 304.199219 263.058594 303.71875 267.078125 312.1875 C 268.085938 314.3125 270.171875 316.65625 274.472656 317.59375 C 279.628906 318.707031 286.375 315.570312 291.425781 316.820312 C 295.601562 317.84375 296.332031 321.695312 298.8125 323.519531 C 301.59375 325.558594 307.015625 326.171875 311.722656 327.261719 C 304.550781 325.601562 300.882812 322.914062 298.582031 320.46875 C 295.96875 317.695312 294.496094 314.003906 286.808594 314.796875 "/><g clip-rule="nonzero" clip-path="url(#b24daebd19)"><path style=" stroke:none;fill-rule:nonzero;fill:#0d0d0d;fill-opacity:1;" d="M 115.480469 325.132812 C 120.90625 326.246094 126.5625 326.699219 127.230469 323.546875 C 129.101562 314.769531 135.710938 312.347656 135.015625 311.226562 C 134.742188 310.785156 132.398438 310.949219 128.5 312.03125 C 126.578125 312.5625 120.859375 315.53125 118.960938 316.152344 C 117.988281 316.472656 117.175781 317.011719 116.484375 317.589844 C 113.691406 319.921875 108.878906 320.519531 105.191406 321.890625 C 103.195312 322.636719 101.53125 324.496094 100.683594 324.941406 C 101.664062 322.929688 103.171875 322.273438 103.976562 321.773438 C 105.410156 320.886719 106.660156 320.015625 107.972656 319.675781 C 110.15625 319.105469 111.519531 318.941406 113.113281 317.660156 C 116.953125 314.574219 119.105469 313.140625 122.828125 312.289062 C 122.667969 311.601562 116.125 310.46875 113.328125 310.554688 C 110.40625 310.640625 105.628906 311.695312 102.089844 311.203125 C 100.804688 311.027344 99.71875 310.597656 98.507812 310.320312 C 97.300781 310.042969 95.855469 310.566406 94.523438 311.015625 C 95.675781 309.875 98.039062 309.5625 99.851562 309.742188 C 101.664062 309.914062 103.328125 310.425781 105.246094 310.324219 C 108.054688 310.175781 110.808594 308.742188 113.628906 308.527344 C 117.332031 308.242188 120.179688 310.105469 123.886719 309.824219 C 125.953125 309.667969 127.882812 308.691406 129.957031 308.277344 C 135.136719 307.242188 143.722656 309.277344 151.183594 308.675781 C 155.039062 308.363281 159.4375 308.539062 162.722656 306.992188 C 165.375 305.738281 170.84375 300.117188 171.132812 299.363281 C 171.957031 297.199219 168.234375 295.566406 165.382812 296.003906 C 162.527344 296.441406 160.371094 297.039062 157.511719 297.449219 C 154.050781 297.949219 150.34375 297.683594 146.878906 297.332031 C 144.027344 297.042969 138.082031 296.535156 135.210938 296.835938 C 130.214844 297.355469 128.261719 298.660156 123.265625 299.203125 C 126.082031 298.265625 128.949219 297.417969 131.722656 296.40625 C 135.0625 295.183594 139.769531 295.527344 141.699219 295.589844 C 161.105469 296.214844 160.222656 290.652344 171.796875 289.628906 C 177.164062 289.164062 186.542969 289.023438 191.921875 289.289062 C 195.449219 289.453125 198.980469 290.726562 202.511719 290.753906 C 204.332031 290.761719 206.160156 290.761719 207.980469 290.757812 C 208.863281 290.757812 209.953125 288.691406 210.304688 289.222656 C 211.96875 288.925781 215.40625 290.355469 215.839844 290.253906 C 216.046875 290.207031 216.269531 290.234375 216.480469 290.253906 C 218.910156 290.523438 221.65625 290.324219 223.96875 290.875 C 225.84375 291.320312 229.222656 292.582031 230.292969 293.925781 C 232.898438 295.6875 235.4375 297.671875 238.71875 298.503906 C 240.097656 298.855469 241.5625 298.988281 242.898438 299.429688 C 245.835938 300.402344 247.6875 302.707031 250.476562 303.917969 C 253.210938 305.097656 256.511719 305.101562 259.59375 304.839844 C 262.667969 304.578125 265.75 304.085938 268.84375 304.378906 C 271.9375 304.671875 275.160156 305.953125 276.316406 308.148438 C 273.53125 305.511719 268.308594 305.460938 264.011719 306.089844 C 259.707031 306.710938 255.097656 307.734375 251.042969 306.34375 C 248.039062 305.3125 245.851562 303.078125 242.71875 302.304688 C 241.609375 302.03125 240.21875 302.023438 239.515625 302.71875 C 238.882812 303.339844 239.226562 304.226562 239.449219 305.011719 C 240.542969 308.847656 242.714844 309.304688 245.074219 311.003906 C 246.777344 312.234375 248.636719 312.734375 250.746094 313.496094 C 254.28125 314.769531 258.265625 315.550781 262.113281 315.957031 C 265.964844 316.359375 270.011719 317.128906 272.75 319.246094 C 274.324219 320.464844 275.328125 322.023438 276.796875 323.308594 C 280.167969 326.257812 285.050781 328.167969 286.519531 331.84375 C 287.351562 333.921875 287.4375 335.765625 287.5 337.921875 C 287.558594 340.019531 288.519531 342.101562 290.203125 343.777344 C 288.277344 341.78125 286.53125 340.398438 285.761719 338 C 284.917969 335.34375 285.449219 332.65625 283.09375 330.546875 C 281.070312 328.734375 277.476562 326.152344 275.226562 324.472656 C 273.804688 323.414062 272.839844 322.675781 271.53125 321.53125 C 268.59375 318.957031 264.988281 318.710938 260.625 317.957031 C 256.261719 317.203125 250.90625 315.816406 246.710938 314.601562 C 242.519531 313.386719 238.269531 310.269531 236.992188 306.972656 C 236.402344 305.457031 236.675781 304.636719 236.015625 303.136719 C 234.839844 300.476562 231.691406 298.578125 228.40625 297.308594 C 225.125 296.042969 223.582031 294.6875 217.929688 294.691406 C 216.71875 294.691406 210.449219 293.832031 207.832031 296.382812 C 206.421875 297.761719 207.933594 299.402344 209.109375 300.925781 C 211.796875 304.410156 216.78125 306.34375 221.199219 308.539062 C 225.621094 310.730469 230.042969 313.839844 230.304688 317.855469 C 230.457031 320.144531 230.238281 322.289062 228.835938 324.601562 C 227.585938 326.675781 226.0625 328.429688 230.792969 329.652344 C 233.292969 330.296875 237.605469 329.851562 240.03125 330.648438 C 242.609375 331.496094 243.789062 333.460938 245.871094 334.890625 C 248.734375 336.859375 252.640625 336.738281 256.464844 336.996094 C 262.3125 337.390625 267.53125 340.707031 269.480469 344.84375 C 268.316406 343.1875 265.769531 342.265625 263.667969 341.160156 C 258.925781 338.660156 252.738281 339.722656 249.007812 338.914062 C 250.386719 341.992188 248.382812 347.21875 247.410156 350.394531 C 246.332031 353.898438 248.210938 353.871094 248.585938 358.1875 C 248.851562 361.207031 247.203125 364.785156 243.511719 365.925781 C 245.769531 364.46875 246.300781 361.953125 246.003906 359.722656 C 245.707031 357.492188 244.75 355.328125 244.675781 353.085938 C 244.511719 348.453125 248.597656 342.902344 245.152344 339.109375 C 242.621094 336.316406 241.941406 334.085938 237.894531 333.050781 C 231.933594 331.519531 225.628906 332.789062 223.671875 328.949219 C 222.816406 327.265625 224.527344 324.875 224.988281 323.105469 C 227.664062 312.847656 215.492188 310.710938 214.539062 311.421875 C 213.191406 312.433594 216.183594 315.59375 214.074219 318.585938 C 212.652344 320.605469 209.167969 321.542969 208.378906 323.769531 C 207.648438 325.835938 209.992188 327.738281 210.679688 329.8125 C 212.113281 334.113281 206.28125 338.597656 208.253906 342.773438 C 210.148438 346.769531 217.183594 346.996094 221.949219 349.082031 C 229.046875 352.1875 230.371094 360.882812 224.433594 365.289062 C 228.4375 359.429688 226.890625 352.746094 220.207031 351.171875 C 217.269531 350.484375 213.765625 349.863281 211.09375 348.695312 C 208.480469 347.550781 206.6875 343.867188 203.675781 343.808594 C 201.429688 343.769531 199.769531 348.183594 198.6875 349.71875 C 197.601562 351.257812 197.054688 352.996094 195.921875 354.511719 C 194.0625 356.988281 190.570312 359.160156 191.039062 361.992188 C 191.269531 363.398438 191.582031 364.414062 191.609375 366.109375 C 189.207031 363.542969 189 359.824219 191.109375 357.0625 C 192.398438 355.378906 194.464844 354.023438 195.183594 352.148438 C 195.660156 350.914062 197.457031 345.859375 198.175781 344.703125 C 200.789062 340.507812 203.792969 341.320312 205.714844 336.917969 C 209.671875 327.871094 201.269531 328.390625 203.097656 324.269531 C 204.710938 320.636719 211.460938 318.640625 210.820312 314.84375 C 210.382812 312.230469 206.558594 310.828125 204.964844 308.492188 C 204.269531 307.472656 204.019531 306.300781 203.300781 305.292969 C 202.074219 303.554688 199.414062 302.496094 196.875 302.734375 C 194.335938 302.972656 193.703125 305.183594 193.039062 307.097656 C 191.574219 311.308594 195.722656 314.835938 194.191406 319.03125 C 193.714844 320.335938 192.550781 321.535156 192.660156 322.886719 C 192.765625 324.160156 193.972656 325.179688 194.761719 326.296875 C 196.570312 328.855469 196.03125 332.300781 193.484375 334.476562 C 190.894531 336.695312 186.875 337.421875 183.480469 338.839844 C 180.089844 340.257812 176.976562 343.296875 178.5 346.023438 C 176.421875 343.726562 176.734375 340.285156 179.21875 338.207031 C 181.289062 336.472656 184.382812 335.796875 187.042969 334.660156 C 189.707031 333.523438 192.226562 331.367188 191.519531 329.082031 C 190.90625 327.09375 188.042969 325.8125 187.746094 323.777344 C 187.621094 322.90625 187.601562 321.964844 188.046875 321.152344 C 191.863281 314.289062 187.019531 308.386719 176.238281 315.558594 C 172.644531 317.953125 175.617188 322.277344 172.800781 323.984375 C 169.570312 325.941406 161.125 323.425781 159.265625 326.265625 C 157.515625 328.941406 163.726562 333.9375 163.558594 336.925781 C 163.390625 339.929688 159.765625 342.210938 158.949219 345.152344 C 157.816406 349.242188 162.28125 352.902344 163.167969 357.011719 C 163.933594 360.554688 161.710938 364.410156 157.789062 366.335938 C 161.285156 364.234375 161.101562 360.050781 159.664062 356.820312 C 158.226562 353.589844 155.867188 350.445312 156.167969 347.023438 C 156.441406 343.910156 158.898438 341.136719 159.65625 338.066406 C 160.417969 334.996094 158.054688 331.808594 154.089844 331.363281 C 144.523438 330.300781 148.128906 338.96875 144.03125 342.339844 C 140.1875 345.496094 130.3125 347.492188 130.332031 353.425781 C 130.332031 356.113281 130.691406 359.597656 133.664062 360.964844 C 127.785156 358.644531 125.929688 351.855469 130.105469 347.820312 C 133.558594 344.484375 144.394531 340.671875 142.625 337.441406 C 143.199219 338.488281 132.863281 339.320312 124.4375 337.550781 C 119.476562 336.503906 114.289062 338.894531 112.910156 342.738281 C 114.070312 339.511719 116.59375 337.03125 120.21875 336.238281 C 123.84375 335.449219 126.550781 336.179688 130.289062 336.339844 C 134.027344 336.503906 139.148438 336.988281 141.785156 334.890625 C 143.722656 333.347656 143.621094 330.195312 145.941406 329.011719 C 148.074219 327.921875 151.007812 328.039062 152.964844 326.765625 C 154.492188 325.769531 155.070312 324.144531 156.375 322.964844 C 160.261719 319.449219 169.769531 324.503906 170.023438 319.914062 C 170.34375 314.058594 174.984375 311.058594 179.621094 310.007812 C 182.671875 309.316406 185.757812 308.175781 187.398438 306.0625 C 189.039062 303.957031 188.722656 300.835938 186.097656 299.46875 C 183.460938 298.097656 179.734375 298.984375 177.339844 300.632812 C 174.949219 302.277344 173.414062 304.53125 171.378906 306.449219 C 166.515625 311.019531 157.472656 312.632812 149.957031 311.945312 C 147.753906 311.730469 134.324219 310.789062 131.144531 322.015625 C 130.347656 324.832031 128.691406 327.9375 125.277344 329.125 C 121.191406 330.539062 115.832031 326.191406 111.820312 327.753906 C 108.503906 329.046875 107.929688 334.242188 105.96875 336.660156 C 103.765625 339.367188 99.460938 340.085938 95.722656 341.46875 C 101.417969 339.367188 104.324219 335.789062 106.140625 332.535156 C 108.210938 328.832031 109.371094 323.890625 115.480469 325.132812 "/></g><path style=" stroke:none;fill-rule:nonzero;fill:#0d0d0d;fill-opacity:1;" d="M 268.332031 159.675781 L 269.308594 159.308594 L 269.757812 159.449219 C 274.257812 160.875 278.207031 161.894531 281.832031 162.566406 C 285.378906 163.203125 289 163.65625 292.65625 163.925781 C 291.597656 163.769531 290.539062 163.597656 289.496094 163.414062 C 285.425781 162.683594 280.671875 161.414062 275.359375 159.644531 L 271.675781 158.414062 L 276.285156 156.707031 C 289.929688 151.707031 298.757812 145.410156 304.433594 139.699219 C 299.640625 142.90625 294.046875 145.652344 288.585938 148.097656 L 286.140625 149.191406 L 286.6875 146.574219 C 287.515625 142.625 288.625 139.3125 289.988281 136.726562 C 289.265625 137.773438 288.585938 138.894531 287.972656 140.101562 C 286.769531 142.449219 285.777344 145.449219 285.023438 149.011719 L 284.875 149.714844 L 284.214844 149.988281 C 276.414062 153.257812 267.980469 156.425781 259.824219 159.488281 C 251.644531 162.5625 243.921875 165.464844 237.324219 168.273438 L 233.539062 169.882812 L 235.613281 166.324219 C 237.082031 163.796875 238.3125 161.441406 239.359375 159.125 C 240.84375 155.839844 242.378906 151.671875 244.003906 147.261719 L 244.421875 146.113281 L 245.292969 146.042969 C 249.703125 145.6875 253.320312 145.140625 256.351562 144.375 C 257.367188 144.121094 258.355469 143.84375 259.3125 143.542969 C 255.914062 144.277344 251.734375 144.785156 246.855469 145.058594 L 244.765625 145.175781 L 245.5 143.214844 C 248.492188 135.214844 253.03125 123.058594 260.460938 113.023438 C 255.605469 117.585938 250.878906 123.511719 247.667969 130.996094 C 247.300781 131.847656 246.945312 132.679688 246.601562 133.507812 L 245.042969 137.246094 L 244.019531 133.328125 C 242.832031 128.78125 242.15625 124.699219 242.003906 121.195312 C 241.910156 118.984375 241.910156 116.011719 242.230469 112.558594 C 241.269531 117.132812 240.757812 122.316406 241.164062 127.929688 C 241.429688 131.554688 242.230469 135.742188 243.550781 140.363281 L 243.675781 140.808594 L 243.375 141.582031 C 239.226562 152.234375 236.269531 161.652344 227.253906 172.546875 L 225.765625 173.6875 C 220.613281 176.429688 215.492188 179.664062 210.542969 183.300781 L 208.851562 184.542969 L 208.402344 182.492188 C 206.878906 175.597656 206.214844 169.5 206.421875 164.367188 C 206.546875 161.261719 206.949219 156.855469 208.046875 151.726562 C 206 157.710938 204.464844 164.722656 204.386719 172.394531 C 204.339844 176.382812 204.816406 180.96875 205.792969 186.023438 L 205.949219 186.828125 L 205.316406 187.34375 C 199.511719 192.058594 195.265625 196.285156 192.71875 198.996094 L 190.992188 200.84375 L 190.394531 198.382812 C 189.488281 194.644531 188.660156 190.167969 187.996094 186.5625 C 187.414062 183.429688 186.914062 180.722656 186.585938 179.671875 C 185.027344 174.742188 187.910156 144.640625 194.136719 125.453125 L 194.234375 125.140625 L 195.128906 124.253906 C 198.371094 121.027344 200.933594 118.472656 204.152344 115.449219 L 205.84375 113.828125 C 212.6875 107.261719 222.511719 97.832031 231.191406 85.859375 C 227.464844 90.597656 223.132812 95.328125 218.113281 99.800781 C 211.171875 106.019531 204.730469 111.929688 198.964844 117.367188 L 195.050781 120.644531 C 195.777344 118.550781 198.1875 111.769531 198.90625 109.753906 C 201.777344 101.636719 206.742188 87.582031 208.578125 70.613281 C 207.765625 75.941406 206.519531 81.4375 204.691406 86.941406 L 203.996094 89.027344 L 201.304688 86.371094 C 197.828125 82.945312 194.828125 79.992188 192.703125 76.351562 C 191.808594 74.824219 190.925781 73.261719 190.089844 71.628906 C 191.179688 74.15625 192.570312 76.820312 194.335938 79.585938 C 195.941406 82.113281 198.875 85.738281 202.816406 90.070312 L 203.371094 90.679688 L 201.257812 96.464844 C 190.25 126.550781 182.296875 148.289062 179.804688 164.949219 L 179.253906 168.601562 L 177.292969 165.46875 C 172.378906 157.617188 167.761719 148.976562 163.570312 139.78125 L 163.253906 139.089844 L 163.671875 138.460938 C 166.484375 134.210938 168.65625 130.304688 170.125 126.84375 C 173.390625 119.191406 174.554688 112.023438 174.695312 105.949219 C 173.792969 111.804688 172.195312 116.71875 170.914062 119.992188 C 169.335938 124.039062 166.765625 128.730469 163.28125 133.929688 L 161.878906 136.027344 L 160.890625 133.703125 C 157.101562 124.796875 153.648438 115.3125 150.625 105.496094 L 150.429688 104.859375 L 150.8125 104.3125 C 153.730469 100.152344 155.800781 96.578125 157.148438 93.375 C 158.359375 90.5 159.164062 87.730469 159.667969 85.121094 C 159.246094 86.527344 158.8125 87.753906 158.421875 88.765625 C 157.082031 92.234375 154.777344 96.324219 151.570312 100.925781 L 149.933594 103.269531 L 149.136719 100.527344 C 145.410156 87.714844 142.917969 76.15625 141.3125 67.050781 C 141.640625 72.417969 142.375 78.886719 143.847656 86.5625 L 144.472656 89.832031 L 141.730469 87.949219 C 135.710938 83.808594 131.164062 80.0625 127.847656 76.492188 C 127.667969 76.292969 127.480469 76.089844 127.296875 75.882812 C 128.828125 77.882812 130.535156 79.867188 132.445312 81.804688 C 135.503906 84.929688 139.460938 88.171875 144.539062 91.71875 L 144.976562 92.023438 L 145.089844 92.539062 C 147.265625 102.28125 150.390625 112.90625 154.375 124.117188 L 155.40625 127.023438 L 152.5625 125.835938 C 141.355469 121.171875 113.929688 108.941406 101.332031 96.191406 C 101.023438 95.878906 100.722656 95.558594 100.425781 95.230469 C 102.023438 97.269531 103.832031 99.292969 105.867188 101.25 C 117.847656 112.761719 139.085938 123.417969 154.589844 131.195312 L 155.433594 131.617188 L 155.621094 132.113281 C 156.238281 133.734375 156.863281 135.382812 157.496094 137.0625 C 161.082031 146.558594 165.144531 157.324219 170.667969 168.929688 L 171.871094 171.453125 L 169.136719 170.847656 C 161.269531 169.101562 156.332031 167.003906 150.613281 164.578125 L 149.597656 164.144531 C 142.191406 161.003906 135.222656 157.203125 128.980469 152.953125 C 135.878906 158.882812 145.347656 165.34375 157.660156 170.300781 C 159.601562 171.089844 161.109375 171.828125 162.570312 172.546875 C 165.273438 173.875 167.613281 175.019531 171.863281 176.019531 L 172.488281 176.167969 L 172.773438 176.738281 C 173.277344 177.753906 177.015625 198.519531 177.054688 198.722656 L 177.484375 201.058594 C 177.613281 201.429688 174.789062 199.96875 174.820312 199.988281 C 174.460938 199.730469 172.113281 198.492188 169.394531 197.058594 C 152.25 188.03125 106.707031 164.046875 89.242188 143.300781 C 87.207031 140.757812 85.3125 137.832031 83.605469 134.617188 C 86.015625 139.835938 89.265625 145.207031 93.628906 150.367188 C 103.878906 162.5625 119.601562 171.792969 134.808594 180.722656 L 140.246094 184.570312 L 134.929688 183.859375 C 109.28125 179.4375 86.785156 172.863281 67.746094 164.25 C 75.15625 168.121094 85.382812 172.472656 99.636719 176.855469 L 103.09375 177.917969 L 99.675781 179.457031 C 97.246094 180.28125 94.972656 180.90625 92.921875 181.324219 C 91.210938 181.667969 89.476562 181.953125 87.714844 182.175781 C 92.042969 182.039062 96.300781 181.523438 100.402344 180.648438 C 101.015625 180.515625 105.0625 178.832031 105.460938 178.644531 C 117.695312 182.304688 132.5 186.125 150.71875 190.316406 L 150.941406 190.367188 L 151.136719 190.492188 C 153.78125 192.15625 156.109375 193.703125 158.253906 195.207031 L 161.28125 197.339844 L 157.59375 197.6875 C 153.988281 198.023438 150.402344 198.972656 146.941406 200.5 C 145.175781 201.28125 143.511719 202.347656 141.753906 203.46875 C 140.414062 204.324219 139.027344 205.210938 137.53125 206.011719 C 130.59375 209.699219 122.953125 211.078125 117.367188 212.082031 C 114.21875 212.644531 110.957031 213.074219 107.675781 213.359375 C 107.710938 213.359375 107.742188 213.359375 107.773438 213.359375 C 113.78125 213.359375 119.773438 212.804688 125.550781 211.710938 L 125.65625 211.683594 L 130.316406 210.96875 L 126.734375 214.121094 C 122.433594 217.351562 117.695312 220.695312 112.375 223.097656 C 115.207031 222.140625 118.527344 220.765625 122.382812 218.804688 C 124.675781 217.636719 127.074219 216.34375 129.390625 215.097656 C 139.339844 209.742188 149.617188 204.199219 158.683594 204.199219 C 165.015625 204.199219 170.175781 206.988281 174.023438 212.488281 C 177.78125 217.847656 178.679688 224.824219 179.027344 229.601562 C 180.613281 251.375 176.78125 276.820312 164.949219 287.542969 C 167.539062 287.773438 170.851562 289.507812 173.375 289.507812 C 174.066406 289.507812 176.964844 290.890625 177.484375 290.859375 C 188.621094 290.089844 197.605469 288.632812 208.554688 288.125 C 206.46875 281.710938 199.898438 258.570312 201.902344 243.710938 C 205.292969 218.683594 224.242188 215.789062 238.207031 215.789062 C 239.722656 215.789062 241.316406 215.824219 243.207031 215.890625 L 243.769531 215.910156 L 244.148438 216.316406 C 246.160156 218.425781 248.140625 220.25 250.039062 221.730469 C 253.3125 224.273438 256.75 226.355469 260.074219 228.050781 C 257.996094 226.601562 256.195312 225.253906 254.765625 224.175781 C 253.050781 222.890625 251.183594 221.101562 248.90625 218.550781 L 246.652344 216.03125 L 250.023438 216.28125 C 251.265625 216.375 252.523438 216.472656 253.808594 216.574219 C 257.832031 216.894531 261.988281 217.226562 266.445312 217.382812 C 268.601562 217.472656 270.6875 217.519531 272.644531 217.519531 C 275.441406 217.519531 277.910156 217.429688 280.089844 217.269531 C 271.671875 217.265625 262.667969 215.75 253.960938 214.28125 C 247.945312 213.269531 241.722656 212.222656 235.882812 211.714844 L 230.929688 211.285156 L 235.40625 209.125 C 237.265625 208.222656 239.007812 207.261719 240.632812 206.273438 C 236.3125 208.203125 232.460938 209.382812 229.714844 210.082031 C 226.839844 210.792969 220.96875 211.9375 218.757812 212.367188 C 218.414062 212.433594 217.996094 212.515625 217.996094 212.515625 C 208.808594 214.472656 203.058594 218.496094 199.851562 221.523438 L 198.078125 223.199219 L 197.464844 220.296875 C 196.648438 216.429688 195.9375 213.09375 196.816406 210.574219 C 200.253906 200.691406 215.550781 186.683594 225.316406 179.894531 L 225.808594 179.546875 L 229.746094 180.4375 C 247.066406 184.363281 268.617188 189.246094 285.054688 189.246094 C 286.023438 189.238281 286.980469 189.21875 287.921875 189.1875 C 273.765625 188.515625 253.253906 184.570312 231.871094 178.339844 L 228.855469 177.464844 L 231.554688 175.855469 C 242.632812 169.253906 254.542969 164.816406 268.332031 159.675781 "/><path style=" stroke:none;fill-rule:nonzero;fill:#0d0d0d;fill-opacity:1;" d="M 134.664062 25.097656 C 134.660156 25.132812 125.15625 37.945312 139.324219 47.582031 C 139.320312 47.621094 148.964844 35.292969 134.664062 25.097656 "/><path style=" stroke:none;fill-rule:nonzero;fill:#0d0d0d;fill-opacity:1;" d="M 35.875 127.863281 C 35.886719 127.914062 34.757812 138.203125 48.117188 137.410156 C 48.128906 137.464844 49.46875 126.925781 35.875 127.863281 "/><path style=" stroke:none;fill-rule:nonzero;fill:#0d0d0d;fill-opacity:1;" d="M 50.054688 117.292969 C 50.058594 117.324219 49.476562 125.542969 60.191406 124.789062 C 60.199219 124.824219 60.980469 116.480469 50.054688 117.292969 "/><path style=" stroke:none;fill-rule:nonzero;fill:#0d0d0d;fill-opacity:1;" d="M 147.476562 28.953125 C 147.476562 28.953125 140.789062 35.039062 147.128906 41.925781 C 147.125 41.925781 153.8125 36.1875 147.476562 28.953125 "/><path style=" stroke:none;fill-rule:nonzero;fill:#0d0d0d;fill-opacity:1;" d="M 152.042969 25.050781 C 152.039062 25.058594 150.253906 29.828125 155.632812 33.183594 C 155.976562 31.644531 157.4375 28.511719 152.042969 25.050781 "/><path style=" stroke:none;fill-rule:nonzero;fill:#0d0d0d;fill-opacity:1;" d="M 190.121094 22.824219 C 190.113281 22.777344 176.585938 31.214844 185.910156 45.828125 C 185.90625 45.777344 199.339844 38.109375 190.121094 22.824219 "/><path style=" stroke:none;fill-rule:nonzero;fill:#0d0d0d;fill-opacity:1;" d="M 204.367188 20.347656 C 204.363281 20.355469 194.953125 31.859375 209.300781 43.558594 C 209.292969 43.5625 218.847656 32.707031 204.367188 20.347656 "/><path style=" stroke:none;fill-rule:nonzero;fill:#0d0d0d;fill-opacity:1;" d="M 124.976562 41.84375 C 124.976562 41.914062 118.058594 55.71875 134.191406 62.652344 C 134.191406 62.71875 141.34375 49.136719 124.976562 41.84375 "/><path style=" stroke:none;fill-rule:nonzero;fill:#0d0d0d;fill-opacity:1;" d="M 154.984375 39.375 C 154.976562 39.304688 139.539062 45.851562 144.5625 61.515625 C 144.558594 61.453125 159.746094 55.628906 154.984375 39.375 "/><path style=" stroke:none;fill-rule:nonzero;fill:#0d0d0d;fill-opacity:1;" d="M 167.527344 42.214844 C 167.519531 42.175781 156.070312 46.652344 159.78125 58.390625 C 159.777344 58.355469 171.042969 54.359375 167.527344 42.214844 "/><path style=" stroke:none;fill-rule:nonzero;fill:#0d0d0d;fill-opacity:1;" d="M 197.261719 45.410156 C 197.261719 45.371094 185.789062 49.09375 189.46875 61.074219 C 189.464844 61.035156 200.742188 57.761719 197.261719 45.410156 "/><path style=" stroke:none;fill-rule:nonzero;fill:#0d0d0d;fill-opacity:1;" d="M 166.453125 21.738281 C 166.449219 21.691406 154.980469 26.21875 158.695312 37.945312 C 158.691406 37.902344 169.976562 33.867188 166.453125 21.738281 "/><path style=" stroke:none;fill-rule:nonzero;fill:#0d0d0d;fill-opacity:1;" d="M 175.84375 63.382812 C 175.84375 63.335938 163.605469 64.886719 163.679688 77.246094 C 163.679688 77.203125 175.613281 75.976562 175.84375 63.382812 "/><path style=" stroke:none;fill-rule:nonzero;fill:#0d0d0d;fill-opacity:1;" d="M 200.125 51.917969 C 200.121094 51.925781 194.628906 59.554688 204.6875 65.53125 C 204.683594 65.539062 210.296875 58.234375 200.125 51.917969 "/><path style=" stroke:none;fill-rule:nonzero;fill:#0d0d0d;fill-opacity:1;" d="M 71.546875 67.960938 C 71.554688 68 69.265625 77.125 80.5625 77.0625 C 80.570312 77.101562 83.042969 67.921875 71.546875 67.960938 "/><path style=" stroke:none;fill-rule:nonzero;fill:#0d0d0d;fill-opacity:1;" d="M 172.167969 79.375 C 172.167969 79.339844 161.65625 80.210938 162.289062 90.613281 C 162.289062 90.585938 172.558594 89.996094 172.167969 79.375 "/><path style=" stroke:none;fill-rule:nonzero;fill:#0d0d0d;fill-opacity:1;" d="M 221.464844 39.070312 C 221.464844 39.03125 210.925781 38.738281 211.507812 49.179688 C 211.507812 49.144531 221.804688 49.648438 221.464844 39.070312 "/><path style=" stroke:none;fill-rule:nonzero;fill:#0d0d0d;fill-opacity:1;" d="M 184.523438 80.195312 C 184.523438 80.175781 176.027344 81.242188 177.28125 89.660156 C 177.28125 89.640625 185.597656 88.820312 184.523438 80.195312 "/><path style=" stroke:none;fill-rule:nonzero;fill:#0d0d0d;fill-opacity:1;" d="M 184.59375 62.628906 C 184.59375 62.652344 184.160156 55.042969 174.484375 55.453125 C 174.484375 55.476562 174.699219 62.746094 184.59375 62.628906 "/><path style=" stroke:none;fill-rule:nonzero;fill:#0d0d0d;fill-opacity:1;" d="M 186.503906 71.710938 C 186.503906 71.726562 186.125 65.09375 177.691406 65.402344 C 177.691406 65.417969 177.875 71.777344 186.503906 71.710938 "/><path style=" stroke:none;fill-rule:nonzero;fill:#0d0d0d;fill-opacity:1;" d="M 189.6875 76.933594 C 189.6875 76.945312 187.511719 71.976562 181.207031 74.042969 C 181.207031 74.050781 183.1875 78.847656 189.6875 76.933594 "/><path style=" stroke:none;fill-rule:nonzero;fill:#0d0d0d;fill-opacity:1;" d="M 197.058594 88.542969 C 197.058594 88.558594 194.160156 81.871094 185.742188 84.550781 C 185.742188 84.570312 188.382812 90.984375 197.058594 88.542969 "/><path style=" stroke:none;fill-rule:nonzero;fill:#0d0d0d;fill-opacity:1;" d="M 178.609375 71.570312 C 178.605469 71.554688 170.710938 74.597656 174.402344 82.398438 C 174.398438 82.382812 182.191406 79.648438 178.609375 71.570312 "/><path style=" stroke:none;fill-rule:nonzero;fill:#0d0d0d;fill-opacity:1;" d="M 200.582031 40.371094 C 200.578125 40.386719 197.140625 47.082031 205.960938 51.011719 C 205.957031 51.023438 209.535156 44.542969 200.582031 40.371094 "/><g clip-rule="nonzero" clip-path="url(#3497f9a8d5)"><path style=" stroke:none;fill-rule:nonzero;fill:#0d0d0d;fill-opacity:1;" d="M 173.078125 17.550781 C 173.078125 17.566406 169.644531 24.476562 178.5 27.886719 C 178.496094 27.902344 182.066406 21.179688 173.078125 17.550781 "/></g><path style=" stroke:none;fill-rule:nonzero;fill:#0d0d0d;fill-opacity:1;" d="M 122.160156 29.996094 C 122.160156 30.019531 118.785156 37.261719 127.585938 39.613281 C 127.585938 39.632812 131.089844 32.527344 122.160156 29.996094 "/><path style=" stroke:none;fill-rule:nonzero;fill:#0d0d0d;fill-opacity:1;" d="M 168.679688 106.960938 C 168.679688 106.96875 175.117188 99.496094 165.839844 93.242188 C 165.835938 93.246094 159.347656 100.414062 168.679688 106.960938 "/><path style=" stroke:none;fill-rule:nonzero;fill:#0d0d0d;fill-opacity:1;" d="M 183.136719 53.042969 C 183.136719 53.074219 185.105469 43.886719 173.4375 41.925781 C 173.433594 41.953125 171.253906 50.714844 183.136719 53.042969 "/><path style=" stroke:none;fill-rule:nonzero;fill:#0d0d0d;fill-opacity:1;" d="M 178.308594 99.820312 C 178.308594 99.800781 187.4375 99.375 186.96875 90.351562 C 186.96875 90.328125 178.035156 90.535156 178.308594 99.820312 "/><path style=" stroke:none;fill-rule:nonzero;fill:#0d0d0d;fill-opacity:1;" d="M 142.507812 141.980469 C 142.507812 141.960938 151.570312 140.992188 151.082031 132 C 151.078125 131.984375 142.203125 132.746094 142.507812 141.980469 "/><path style=" stroke:none;fill-rule:nonzero;fill:#0d0d0d;fill-opacity:1;" d="M 162.320312 65.492188 C 162.320312 65.46875 171.472656 64.757812 170.992188 55.742188 C 170.988281 55.71875 162.03125 56.222656 162.320312 65.492188 "/><path style=" stroke:none;fill-rule:nonzero;fill:#0d0d0d;fill-opacity:1;" d="M 167.769531 39.15625 C 167.769531 39.125 176.945312 38.515625 176.472656 29.5 C 176.472656 29.46875 167.484375 29.871094 167.769531 39.15625 "/><path style=" stroke:none;fill-rule:nonzero;fill:#0d0d0d;fill-opacity:1;" d="M 160.660156 107.449219 C 160.65625 107.472656 156.351562 116.550781 167.773438 120.644531 C 167.773438 120.664062 172.257812 111.808594 160.660156 107.449219 "/><path style=" stroke:none;fill-rule:nonzero;fill:#0d0d0d;fill-opacity:1;" d="M 148.851562 71.542969 C 148.851562 71.566406 144.542969 80.738281 156 84.53125 C 156 84.558594 160.488281 75.578125 148.851562 71.542969 "/><path style=" stroke:none;fill-rule:nonzero;fill:#0d0d0d;fill-opacity:1;" d="M 151.023438 62.035156 C 151.023438 62.058594 148.523438 69.96875 158.535156 72.070312 C 158.535156 72.089844 161.214844 64.300781 151.023438 62.035156 "/><path style=" stroke:none;fill-rule:nonzero;fill:#0d0d0d;fill-opacity:1;" d="M 195.867188 63.71875 C 195.863281 63.734375 191.507812 72.515625 202.964844 77.382812 C 202.960938 77.402344 207.503906 68.894531 195.867188 63.71875 "/><path style=" stroke:none;fill-rule:nonzero;fill:#0d0d0d;fill-opacity:1;" d="M 197.769531 142.269531 C 197.765625 142.277344 192.320312 150.019531 202.292969 155.796875 C 202.289062 155.804688 207.851562 148.386719 197.769531 142.269531 "/><path style=" stroke:none;fill-rule:nonzero;fill:#0d0d0d;fill-opacity:1;" d="M 201.5625 134.128906 C 201.5625 134.136719 198.152344 140.894531 206.886719 144.679688 C 206.886719 144.691406 210.433594 138.164062 201.5625 134.128906 "/><path style=" stroke:none;fill-rule:nonzero;fill:#0d0d0d;fill-opacity:1;" d="M 193.550781 154.144531 C 193.546875 154.160156 189.234375 163.03125 200.589844 167.691406 C 200.585938 167.707031 205.085938 159.121094 193.550781 154.144531 "/><path style=" stroke:none;fill-rule:nonzero;fill:#0d0d0d;fill-opacity:1;" d="M 193.402344 167.851562 C 193.402344 167.867188 189.089844 176.746094 200.433594 181.378906 C 200.429688 181.394531 204.921875 172.800781 193.402344 167.851562 "/><path style=" stroke:none;fill-rule:nonzero;fill:#0d0d0d;fill-opacity:1;" d="M 185.757812 117.5625 C 185.757812 117.53125 174.722656 116.605469 173.394531 127.597656 C 173.394531 127.570312 184.125 128.679688 185.757812 117.5625 "/><path style=" stroke:none;fill-rule:nonzero;fill:#0d0d0d;fill-opacity:1;" d="M 177.832031 110.835938 C 177.835938 110.8125 188.085938 113.484375 191.625 103.464844 C 191.625 103.441406 181.679688 100.472656 177.832031 110.835938 "/><path style=" stroke:none;fill-rule:nonzero;fill:#0d0d0d;fill-opacity:1;" d="M 207.710938 89.445312 C 207.714844 89.421875 217.9375 92.753906 221.601562 83.046875 C 221.605469 83.027344 211.691406 79.375 207.710938 89.445312 "/><path style=" stroke:none;fill-rule:nonzero;fill:#0d0d0d;fill-opacity:1;" d="M 211.410156 78.964844 C 211.414062 78.9375 222.058594 80.644531 223.445312 70.351562 C 223.449219 70.320312 213.070312 68.320312 211.410156 78.964844 "/><path style=" stroke:none;fill-rule:nonzero;fill:#0d0d0d;fill-opacity:1;" d="M 211.835938 67.34375 C 211.835938 67.316406 222.429688 69.46875 224.359375 59.308594 C 224.359375 59.277344 214.046875 56.816406 211.835938 67.34375 "/><path style=" stroke:none;fill-rule:nonzero;fill:#0d0d0d;fill-opacity:1;" d="M 212.703125 57.183594 C 212.703125 57.152344 223.308594 59.355469 225.238281 49.203125 C 225.242188 49.175781 214.917969 46.664062 212.703125 57.183594 "/><path style=" stroke:none;fill-rule:nonzero;fill:#0d0d0d;fill-opacity:1;" d="M 252.445312 33.90625 C 252.441406 33.867188 242.507812 38.820312 249.632812 50.503906 C 249.632812 50.46875 259.488281 46.046875 252.445312 33.90625 "/><path style=" stroke:none;fill-rule:nonzero;fill:#0d0d0d;fill-opacity:1;" d="M 241.90625 100.1875 C 241.910156 100.199219 233.414062 92.941406 224.195312 99.832031 C 224.195312 99.847656 232.300781 106.707031 241.90625 100.1875 "/><path style=" stroke:none;fill-rule:nonzero;fill:#0d0d0d;fill-opacity:1;" d="M 235.015625 107.542969 C 235.019531 107.542969 225.457031 101.648438 217.792969 110.027344 C 217.796875 110.035156 226.964844 115.644531 235.015625 107.542969 "/><path style=" stroke:none;fill-rule:nonzero;fill:#0d0d0d;fill-opacity:1;" d="M 222.996094 115.824219 C 223 115.816406 213.050781 110.742188 206.121094 119.8125 C 206.125 119.808594 215.675781 124.683594 222.996094 115.824219 "/><path style=" stroke:none;fill-rule:nonzero;fill:#0d0d0d;fill-opacity:1;" d="M 237.765625 54.609375 C 237.765625 54.585938 229.699219 59.535156 237.171875 68.375 C 237.167969 68.355469 245.21875 63.828125 237.765625 54.609375 "/><path style=" stroke:none;fill-rule:nonzero;fill:#0d0d0d;fill-opacity:1;" d="M 261.203125 53.84375 C 261.207031 53.824219 251.859375 50.015625 248.859375 58.734375 C 248.863281 58.714844 257.925781 62.457031 261.203125 53.84375 "/><path style=" stroke:none;fill-rule:nonzero;fill:#0d0d0d;fill-opacity:1;" d="M 242.429688 44.511719 C 242.429688 44.503906 236.664062 49.238281 243.695312 55.878906 C 243.695312 55.871094 249.488281 51.46875 242.429688 44.511719 "/><path style=" stroke:none;fill-rule:nonzero;fill:#0d0d0d;fill-opacity:1;" d="M 263.410156 97.28125 C 263.410156 97.261719 256.359375 100.308594 261.566406 108.019531 C 261.566406 108 268.5625 105.273438 263.410156 97.28125 "/><path style=" stroke:none;fill-rule:nonzero;fill:#0d0d0d;fill-opacity:1;" d="M 270.25 91.332031 C 270.25 91.3125 263.214844 94.21875 268.40625 101.992188 C 268.40625 101.972656 275.398438 99.386719 270.25 91.332031 "/><g clip-rule="nonzero" clip-path="url(#fb403d5c40)"><path style=" stroke:none;fill-rule:nonzero;fill:#0d0d0d;fill-opacity:1;" d="M 195.777344 17.335938 C 195.777344 17.335938 190.140625 22.574219 197.074219 28.429688 C 197.070312 28.425781 202.742188 23.492188 195.777344 17.335938 "/></g><path style=" stroke:none;fill-rule:nonzero;fill:#0d0d0d;fill-opacity:1;" d="M 289.902344 64.304688 C 289.90625 64.269531 280.507812 64.609375 283.625 74.46875 C 283.625 74.433594 292.867188 74.351562 289.902344 64.304688 "/><path style=" stroke:none;fill-rule:nonzero;fill:#0d0d0d;fill-opacity:1;" d="M 295.546875 115.152344 C 295.546875 115.136719 290.03125 119.175781 296.71875 125.9375 C 296.71875 125.917969 302.257812 122.21875 295.546875 115.152344 "/><path style=" stroke:none;fill-rule:nonzero;fill:#0d0d0d;fill-opacity:1;" d="M 323.640625 128.660156 C 323.644531 128.648438 315.613281 125.914062 314.625 133.394531 C 314.628906 133.386719 322.457031 136.105469 323.640625 128.660156 "/><path style=" stroke:none;fill-rule:nonzero;fill:#0d0d0d;fill-opacity:1;" d="M 315.289062 94.835938 C 315.296875 94.804688 305.710938 91.917969 305.171875 101.058594 C 305.175781 101.035156 314.527344 103.929688 315.289062 94.835938 "/><path style=" stroke:none;fill-rule:nonzero;fill:#0d0d0d;fill-opacity:1;" d="M 305.890625 80.566406 C 305.898438 80.535156 296.671875 79.382812 298.140625 88.699219 C 298.148438 88.667969 307.183594 89.960938 305.890625 80.566406 "/><path style=" stroke:none;fill-rule:nonzero;fill:#0d0d0d;fill-opacity:1;" d="M 320.113281 137.507812 C 320.117188 137.507812 312.675781 133.007812 309.027344 139.347656 C 309.03125 139.347656 316.234375 143.699219 320.113281 137.507812 "/><path style=" stroke:none;fill-rule:nonzero;fill:#0d0d0d;fill-opacity:1;" d="M 306.640625 126.371094 C 306.640625 126.347656 299.097656 127.300781 302.40625 135.316406 C 302.410156 135.289062 309.84375 134.574219 306.640625 126.371094 "/><path style=" stroke:none;fill-rule:nonzero;fill:#0d0d0d;fill-opacity:1;" d="M 277.691406 54.621094 C 277.691406 54.605469 271.609375 58.136719 277.773438 65.382812 C 277.773438 65.367188 283.855469 62.167969 277.691406 54.621094 "/><path style=" stroke:none;fill-rule:nonzero;fill:#0d0d0d;fill-opacity:1;" d="M 262.765625 43.328125 C 262.769531 43.300781 254.570312 42.945312 255.882812 51.199219 C 255.886719 51.175781 263.917969 51.703125 262.765625 43.328125 "/><path style=" stroke:none;fill-rule:nonzero;fill:#0d0d0d;fill-opacity:1;" d="M 298.125 132.839844 C 298.128906 132.816406 290.5625 133.960938 293.882812 141.953125 C 293.882812 141.929688 301.34375 141.019531 298.125 132.839844 "/><path style=" stroke:none;fill-rule:nonzero;fill:#0d0d0d;fill-opacity:1;" d="M 309.921875 152.664062 C 309.921875 152.6875 305.121094 146.046875 297.683594 149.207031 C 297.683594 149.226562 302.238281 155.601562 309.921875 152.664062 "/><path style=" stroke:none;fill-rule:nonzero;fill:#0d0d0d;fill-opacity:1;" d="M 303.402344 158.929688 C 303.402344 158.953125 300.371094 151.855469 291.824219 153.199219 C 291.824219 153.226562 294.617188 160.046875 303.402344 158.929688 "/><path style=" stroke:none;fill-rule:nonzero;fill:#0d0d0d;fill-opacity:1;" d="M 289.675781 170.527344 C 289.671875 170.546875 286.625 163.484375 278.046875 165.144531 C 278.046875 165.164062 280.851562 171.972656 289.675781 170.527344 "/><path style=" stroke:none;fill-rule:nonzero;fill:#0d0d0d;fill-opacity:1;" d="M 303.007812 172.683594 C 303.003906 172.703125 299.976562 165.648438 291.433594 167.097656 C 291.429688 167.121094 294.222656 173.917969 303.007812 172.683594 "/><path style=" stroke:none;fill-rule:nonzero;fill:#0d0d0d;fill-opacity:1;" d="M 315.289062 155.804688 C 315.292969 155.789062 307.199219 154.285156 307.355469 162.132812 C 307.359375 162.113281 315.269531 163.6875 315.289062 155.804688 "/><path style=" stroke:none;fill-rule:nonzero;fill:#0d0d0d;fill-opacity:1;" d="M 317.316406 169.035156 C 317.316406 169.046875 311.261719 163.195312 305.136719 167.839844 C 305.136719 167.855469 310.941406 173.476562 317.316406 169.035156 "/><path style=" stroke:none;fill-rule:nonzero;fill:#0d0d0d;fill-opacity:1;" d="M 315.703125 144.867188 C 315.707031 144.875 308.910156 139.558594 303.867188 145.042969 C 303.867188 145.054688 310.414062 150.167969 315.703125 144.867188 "/><path style=" stroke:none;fill-rule:nonzero;fill:#0d0d0d;fill-opacity:1;" d="M 266.839844 150.839844 C 266.839844 150.859375 262.4375 144.191406 254.558594 147.546875 C 254.558594 147.566406 258.703125 153.988281 266.839844 150.839844 "/><path style=" stroke:none;fill-rule:nonzero;fill:#0d0d0d;fill-opacity:1;" d="M 275.527344 148.355469 C 275.527344 148.375 271.152344 141.65625 263.269531 144.84375 C 263.269531 144.863281 267.386719 151.328125 275.527344 148.355469 "/><path style=" stroke:none;fill-rule:nonzero;fill:#0d0d0d;fill-opacity:1;" d="M 282.585938 144.003906 C 282.585938 144.019531 278.625 137.890625 271.488281 140.640625 C 271.488281 140.660156 275.214844 146.5625 282.585938 144.003906 "/><path style=" stroke:none;fill-rule:nonzero;fill:#0d0d0d;fill-opacity:1;" d="M 285.355469 137.320312 C 285.355469 137.320312 280.8125 133.78125 277.175781 137.605469 C 277.179688 137.609375 281.539062 141.066406 285.355469 137.320312 "/><path style=" stroke:none;fill-rule:nonzero;fill:#0d0d0d;fill-opacity:1;" d="M 266.277344 127.3125 C 266.277344 127.277344 257.035156 130.167969 262.257812 139.964844 C 262.257812 139.929688 271.390625 137.410156 266.277344 127.3125 "/><path style=" stroke:none;fill-rule:nonzero;fill:#0d0d0d;fill-opacity:1;" d="M 273.976562 124.847656 C 273.976562 124.824219 266.535156 127.140625 270.910156 135.109375 C 270.910156 135.089844 278.273438 133.058594 273.976562 124.847656 "/><path style=" stroke:none;fill-rule:nonzero;fill:#0d0d0d;fill-opacity:1;" d="M 256.554688 130.542969 C 256.554688 130.523438 249.085938 133.136719 253.488281 141.03125 C 253.488281 141.011719 260.878906 138.691406 256.554688 130.542969 "/><path style=" stroke:none;fill-rule:nonzero;fill:#0d0d0d;fill-opacity:1;" d="M 224.679688 75.605469 C 224.675781 75.601562 218.921875 80.65625 225.964844 86.984375 C 225.960938 86.976562 231.753906 82.242188 224.679688 75.605469 "/><path style=" stroke:none;fill-rule:nonzero;fill:#0d0d0d;fill-opacity:1;" d="M 209.335938 92.179688 C 209.332031 92.175781 203.589844 97.449219 210.636719 103.558594 C 210.636719 103.554688 216.421875 98.589844 209.335938 92.179688 "/><path style=" stroke:none;fill-rule:nonzero;fill:#0d0d0d;fill-opacity:1;" d="M 229.378906 63.703125 C 229.378906 63.695312 221.984375 70.210938 231.191406 78.457031 C 231.191406 78.449219 238.628906 72.367188 229.378906 63.703125 "/><path style=" stroke:none;fill-rule:nonzero;fill:#0d0d0d;fill-opacity:1;" d="M 232.199219 91.148438 C 232.203125 91.152344 240.859375 97.402344 247.960938 89.941406 C 247.964844 89.945312 239.691406 83.351562 232.199219 91.148438 "/><path style=" stroke:none;fill-rule:nonzero;fill:#0d0d0d;fill-opacity:1;" d="M 211.035156 140.5625 C 211.039062 140.511719 225.175781 138.195312 221.355469 123.960938 C 221.359375 123.90625 207.4375 125.890625 211.035156 140.5625 "/><path style=" stroke:none;fill-rule:nonzero;fill:#0d0d0d;fill-opacity:1;" d="M 272.9375 102.03125 C 272.949219 101.992188 287.160156 106.738281 290.144531 93.789062 C 290.15625 93.75 276.351562 88.4375 272.9375 102.03125 "/><path style=" stroke:none;fill-rule:nonzero;fill:#0d0d0d;fill-opacity:1;" d="M 284.097656 89.234375 C 284.113281 89.160156 298.359375 90.683594 296.371094 76.546875 C 296.382812 76.472656 282.394531 74.554688 284.097656 89.234375 "/><path style=" stroke:none;fill-rule:nonzero;fill:#0d0d0d;fill-opacity:1;" d="M 278.621094 133.675781 C 278.628906 133.613281 292.390625 132.460938 287.851562 118.289062 C 287.863281 118.222656 274.289062 119.035156 278.621094 133.675781 "/><path style=" stroke:none;fill-rule:nonzero;fill:#0d0d0d;fill-opacity:1;" d="M 301.1875 125.074219 C 301.195312 125.035156 311.304688 124.722656 307.976562 114.234375 C 307.984375 114.195312 298.015625 114.261719 301.1875 125.074219 "/><path style=" stroke:none;fill-rule:nonzero;fill:#0d0d0d;fill-opacity:1;" d="M 282.9375 116.679688 C 282.941406 116.640625 293.125 115.972656 289.769531 105.433594 C 289.773438 105.394531 279.730469 105.820312 282.9375 116.679688 "/><path style=" stroke:none;fill-rule:nonzero;fill:#0d0d0d;fill-opacity:1;" d="M 314.703125 125.625 C 314.710938 125.554688 326.742188 123.4375 319.855469 110.0625 C 319.867188 109.988281 307.917969 111.886719 314.703125 125.625 "/><path style=" stroke:none;fill-rule:nonzero;fill:#0d0d0d;fill-opacity:1;" d="M 266.152344 68.707031 C 266.152344 68.664062 276.996094 63.292969 267.386719 50.777344 C 267.386719 50.730469 256.550781 55.894531 266.152344 68.707031 "/><path style=" stroke:none;fill-rule:nonzero;fill:#0d0d0d;fill-opacity:1;" d="M 215.339844 36.550781 C 215.339844 36.511719 225.515625 34.976562 222.46875 24.707031 C 222.472656 24.667969 212.449219 25.984375 215.339844 36.550781 "/><path style=" stroke:none;fill-rule:nonzero;fill:#0d0d0d;fill-opacity:1;" d="M 242.433594 41.804688 C 242.429688 41.8125 247.355469 34.414062 236.945312 28.074219 C 236.941406 28.085938 231.90625 35.191406 242.433594 41.804688 "/><path style=" stroke:none;fill-rule:nonzero;fill:#0d0d0d;fill-opacity:1;" d="M 249.273438 90.96875 C 249.28125 90.921875 263.605469 95.109375 266.601562 81.800781 C 266.609375 81.753906 252.683594 77.035156 249.273438 90.96875 "/><path style=" stroke:none;fill-rule:nonzero;fill:#0d0d0d;fill-opacity:1;" d="M 237.425781 81.90625 C 237.425781 81.910156 245.445312 87.804688 252.027344 80.988281 C 252.03125 80.996094 244.367188 74.800781 237.425781 81.90625 "/><path style=" stroke:none;fill-rule:nonzero;fill:#0d0d0d;fill-opacity:1;" d="M 243.007812 73.757812 C 243.011719 73.75 251.785156 78.792969 256.972656 71.132812 C 256.976562 71.132812 248.535156 65.773438 243.007812 73.757812 "/><path style=" stroke:none;fill-rule:nonzero;fill:#0d0d0d;fill-opacity:1;" d="M 267.777344 69.796875 C 267.78125 69.761719 258.125 69.699219 260.074219 79.496094 C 260.078125 79.464844 269.542969 79.742188 267.777344 69.796875 "/><path style=" stroke:none;fill-rule:nonzero;fill:#0d0d0d;fill-opacity:1;" d="M 292.144531 103.734375 C 292.15625 103.667969 306.207031 105.457031 304.105469 91.59375 C 304.117188 91.523438 290.324219 89.347656 292.144531 103.734375 "/><path style=" stroke:none;fill-rule:nonzero;fill:#0d0d0d;fill-opacity:1;" d="M 295.886719 112.273438 C 295.894531 112.238281 309.367188 117.296875 311.832031 105.164062 C 311.84375 105.132812 298.761719 99.535156 295.886719 112.273438 "/><path style=" stroke:none;fill-rule:nonzero;fill:#0d0d0d;fill-opacity:1;" d="M 247.21875 65.671875 C 247.222656 65.664062 255.996094 70.808594 261.179688 63.246094 C 261.183594 63.242188 252.75 57.777344 247.21875 65.671875 "/><path style=" stroke:none;fill-rule:nonzero;fill:#0d0d0d;fill-opacity:1;" d="M 222.417969 140.984375 C 222.417969 140.972656 214.089844 139.238281 212.386719 147.417969 C 212.390625 147.410156 220.476562 149.226562 222.417969 140.984375 "/><path style=" stroke:none;fill-rule:nonzero;fill:#0d0d0d;fill-opacity:1;" d="M 209.40625 164.097656 C 209.40625 164.082031 219.191406 166.4375 221.804688 156.941406 C 221.808594 156.921875 212.300781 154.292969 209.40625 164.097656 "/><path style=" stroke:none;fill-rule:nonzero;fill:#0d0d0d;fill-opacity:1;" d="M 209.804688 171.804688 C 209.804688 171.792969 219.410156 175.535156 223.832031 166.324219 C 223.832031 166.316406 214.542969 162.292969 209.804688 171.804688 "/><path style=" stroke:none;fill-rule:nonzero;fill:#0d0d0d;fill-opacity:1;" d="M 210.644531 155.0625 C 210.648438 155.050781 219.03125 157.066406 221.222656 148.933594 C 221.226562 148.917969 213.085938 146.683594 210.644531 155.0625 "/><path style=" stroke:none;fill-rule:nonzero;fill:#0d0d0d;fill-opacity:1;" d="M 259.945312 94.710938 C 259.949219 94.703125 252.3125 90.703125 248.5 97.695312 C 248.503906 97.6875 255.875 101.601562 259.945312 94.710938 "/><path style=" stroke:none;fill-rule:nonzero;fill:#0d0d0d;fill-opacity:1;" d="M 246.683594 105.929688 C 246.6875 105.929688 254.15625 110.285156 258.722656 103.707031 C 258.722656 103.707031 251.542969 99.121094 246.683594 105.929688 "/><path style=" stroke:none;fill-rule:nonzero;fill:#0d0d0d;fill-opacity:1;" d="M 266.894531 108.828125 C 266.898438 108.828125 274.328125 113.421875 278.875 107.113281 C 278.875 107.117188 271.742188 102.285156 266.894531 108.828125 "/><path style=" stroke:none;fill-rule:nonzero;fill:#0d0d0d;fill-opacity:1;" d="M 263.425781 114.589844 C 263.429688 114.59375 270.277344 119.828125 275.875 114.207031 C 275.875 114.210938 269.332031 108.757812 263.425781 114.589844 "/><path style=" stroke:none;fill-rule:nonzero;fill:#0d0d0d;fill-opacity:1;" d="M 259.242188 121.5625 C 259.246094 121.570312 266.097656 126.734375 271.699219 121.019531 C 271.699219 121.027344 265.152344 115.648438 259.242188 121.5625 "/><path style=" stroke:none;fill-rule:nonzero;fill:#0d0d0d;fill-opacity:1;" d="M 229.167969 115.660156 C 229.167969 115.679688 228.871094 123.03125 238.394531 124.308594 C 238.390625 124.328125 238.925781 117.09375 229.167969 115.660156 "/><path style=" stroke:none;fill-rule:nonzero;fill:#0d0d0d;fill-opacity:1;" d="M 228.199219 124.542969 C 228.199219 124.570312 227.847656 133.296875 239.15625 134.78125 C 239.152344 134.804688 239.785156 126.195312 228.199219 124.542969 "/><path style=" stroke:none;fill-rule:nonzero;fill:#0d0d0d;fill-opacity:1;" d="M 244.304688 115.164062 C 244.308594 115.152344 252.433594 118.125 255.175781 110.585938 C 255.179688 110.574219 247.304688 107.367188 244.304688 115.164062 "/><g clip-rule="nonzero" clip-path="url(#43cdc445d2)"><path style=" stroke:none;fill-rule:nonzero;fill:#0d0d0d;fill-opacity:1;" d="M 30.628906 140.566406 C 30.648438 140.648438 30.503906 153.957031 48.644531 151.746094 C 48.664062 151.835938 49.089844 137.898438 30.628906 140.566406 "/></g><path style=" stroke:none;fill-rule:nonzero;fill:#0d0d0d;fill-opacity:1;" d="M 76.050781 77.324219 C 76.046875 77.347656 64.625 88.867188 74.890625 99.09375 C 74.886719 99.113281 86.316406 88.164062 76.050781 77.324219 "/><path style=" stroke:none;fill-rule:nonzero;fill:#0d0d0d;fill-opacity:1;" d="M 276.507812 67.941406 C 276.507812 67.882812 264.824219 74.636719 274.976562 89.128906 C 274.976562 89.066406 286.605469 83.0625 276.507812 67.941406 "/><path style=" stroke:none;fill-rule:nonzero;fill:#0d0d0d;fill-opacity:1;" d="M 231.164062 33.835938 C 231.15625 33.792969 219.34375 41.75 229.683594 55.660156 C 229.679688 55.617188 241.457031 48.394531 231.164062 33.835938 "/><path style=" stroke:none;fill-rule:nonzero;fill:#0d0d0d;fill-opacity:1;" d="M 99.515625 52.507812 C 99.515625 52.507812 92.632812 58.691406 98.15625 65.164062 C 98.152344 65.164062 105.011719 59.316406 99.515625 52.507812 "/><path style=" stroke:none;fill-rule:nonzero;fill:#0d0d0d;fill-opacity:1;" d="M 99.703125 46.203125 C 99.707031 46.230469 98.292969 54.082031 108.109375 54.925781 C 108.113281 54.957031 109.710938 47.109375 99.703125 46.203125 "/><path style=" stroke:none;fill-rule:nonzero;fill:#0d0d0d;fill-opacity:1;" d="M 111.785156 36.476562 C 111.78125 36.523438 103.101562 49.164062 116.769531 57.316406 C 116.769531 57.359375 125.589844 45.097656 111.785156 36.476562 "/><path style=" stroke:none;fill-rule:nonzero;fill:#0d0d0d;fill-opacity:1;" d="M 42.832031 107.78125 C 42.84375 107.824219 44.730469 117.714844 59.011719 113.875 C 59.023438 113.925781 57.410156 103.578125 42.832031 107.78125 "/><path style=" stroke:none;fill-rule:nonzero;fill:#0d0d0d;fill-opacity:1;" d="M 97.074219 124.648438 C 97.082031 124.6875 96.5625 135.25 110.269531 135.511719 C 110.277344 135.558594 111.082031 124.878906 97.074219 124.648438 "/><path style=" stroke:none;fill-rule:nonzero;fill:#0d0d0d;fill-opacity:1;" d="M 86.949219 55.175781 C 86.945312 55.222656 76.695312 68.316406 89.761719 77.335938 C 89.757812 77.382812 100.105469 64.742188 86.949219 55.175781 "/><path style=" stroke:none;fill-rule:nonzero;fill:#0d0d0d;fill-opacity:1;" d="M 33.066406 158.722656 C 33.078125 158.746094 38.417969 170.113281 56.285156 162.996094 C 56.304688 163.035156 51.328125 150.914062 33.066406 158.722656 "/><path style=" stroke:none;fill-rule:nonzero;fill:#0d0d0d;fill-opacity:1;" d="M 53.792969 136.5 C 53.800781 136.585938 47.359375 150.492188 63.269531 155.339844 C 63.273438 155.425781 69.910156 141.496094 53.792969 136.5 "/><path style=" stroke:none;fill-rule:nonzero;fill:#0d0d0d;fill-opacity:1;" d="M 106.042969 146.492188 C 106.042969 146.507812 108.417969 155.023438 119.835938 151.675781 C 119.839844 151.699219 117.761719 143.035156 106.042969 146.492188 "/><path style=" stroke:none;fill-rule:nonzero;fill:#0d0d0d;fill-opacity:1;" d="M 107.941406 82.402344 C 107.9375 82.402344 99.539062 89.578125 107.082031 96.851562 C 107.078125 96.855469 115.476562 90.070312 107.941406 82.402344 "/><path style=" stroke:none;fill-rule:nonzero;fill:#0d0d0d;fill-opacity:1;" d="M 100.171875 164.4375 C 100.175781 164.457031 96.808594 154.5 83.660156 159.605469 C 83.667969 159.628906 86.601562 169.09375 100.171875 164.4375 "/><path style=" stroke:none;fill-rule:nonzero;fill:#0d0d0d;fill-opacity:1;" d="M 101.691406 75.457031 C 101.6875 75.457031 94.371094 81.359375 100.347656 87.660156 C 100.34375 87.660156 107.640625 82.085938 101.691406 75.457031 "/><path style=" stroke:none;fill-rule:nonzero;fill:#0d0d0d;fill-opacity:1;" d="M 116.621094 66.363281 C 116.628906 66.382812 113.238281 58.054688 102.085938 63.0625 C 102.09375 63.085938 105.101562 70.976562 116.621094 66.363281 "/><path style=" stroke:none;fill-rule:nonzero;fill:#0d0d0d;fill-opacity:1;" d="M 122.574219 76.253906 C 122.574219 76.277344 119.191406 67.875 108.023438 72.691406 C 108.03125 72.71875 111.039062 80.6875 122.574219 76.253906 "/><path style=" stroke:none;fill-rule:nonzero;fill:#0d0d0d;fill-opacity:1;" d="M 128.800781 83.636719 C 128.804688 83.644531 126.433594 77.726562 118.585938 80.917969 C 118.589844 80.925781 120.707031 86.617188 128.800781 83.636719 "/><path style=" stroke:none;fill-rule:nonzero;fill:#0d0d0d;fill-opacity:1;" d="M 136.207031 80.160156 C 136.203125 80.160156 141.726562 75.414062 136.3125 70.367188 C 136.308594 70.367188 130.796875 74.914062 136.207031 80.160156 "/><path style=" stroke:none;fill-rule:nonzero;fill:#0d0d0d;fill-opacity:1;" d="M 145.265625 119.648438 C 145.265625 119.648438 150.773438 115.035156 145.375 109.839844 C 145.375 109.839844 139.867188 114.246094 145.265625 119.648438 "/><path style=" stroke:none;fill-rule:nonzero;fill:#0d0d0d;fill-opacity:1;" d="M 238.894531 143.519531 C 238.894531 143.527344 240.039062 137.265625 231.914062 135.378906 C 231.914062 135.386719 230.617188 141.421875 238.894531 143.519531 "/><path style=" stroke:none;fill-rule:nonzero;fill:#0d0d0d;fill-opacity:1;" d="M 135.949219 90.433594 C 135.949219 90.441406 133.585938 84.472656 125.726562 87.53125 C 125.726562 87.546875 127.84375 93.289062 135.949219 90.433594 "/><path style=" stroke:none;fill-rule:nonzero;fill:#0d0d0d;fill-opacity:1;" d="M 125.871094 68.035156 C 125.871094 68.039062 130.4375 63.109375 124.820312 59.183594 C 124.820312 59.1875 120.234375 63.914062 125.871094 68.035156 "/><path style=" stroke:none;fill-rule:nonzero;fill:#0d0d0d;fill-opacity:1;" d="M 131.765625 95.113281 C 131.765625 95.117188 135.042969 100.019531 141.785156 96.351562 C 141.785156 96.359375 138.734375 91.355469 131.765625 95.113281 "/><path style=" stroke:none;fill-rule:nonzero;fill:#0d0d0d;fill-opacity:1;" d="M 130.03125 73.882812 C 130.027344 73.878906 135.800781 70.160156 131.816406 64.808594 C 131.816406 64.804688 126.089844 68.34375 130.03125 73.882812 "/><path style=" stroke:none;fill-rule:nonzero;fill:#0d0d0d;fill-opacity:1;" d="M 86.839844 110.484375 C 86.832031 110.476562 77.683594 115.496094 81.921875 123.757812 C 81.917969 123.746094 90.964844 119.128906 86.839844 110.484375 "/><path style=" stroke:none;fill-rule:nonzero;fill:#0d0d0d;fill-opacity:1;" d="M 91.34375 119.265625 C 91.34375 119.253906 82.183594 124.152344 86.421875 132.5 C 86.414062 132.488281 95.472656 127.984375 91.34375 119.265625 "/><path style=" stroke:none;fill-rule:nonzero;fill:#0d0d0d;fill-opacity:1;" d="M 93.171875 129.527344 C 93.171875 129.53125 86.59375 134.6875 91.855469 140.425781 C 91.855469 140.429688 98.410156 135.558594 93.171875 129.527344 "/><path style=" stroke:none;fill-rule:nonzero;fill:#0d0d0d;fill-opacity:1;" d="M 64.75 168.410156 C 64.753906 168.40625 60.550781 163.195312 52.808594 168.71875 C 52.8125 168.714844 56.699219 173.792969 64.75 168.410156 "/><path style=" stroke:none;fill-rule:nonzero;fill:#0d0d0d;fill-opacity:1;" d="M 85.65625 177.050781 C 85.65625 177.046875 81.429688 171.574219 73.636719 176.835938 C 73.636719 176.835938 77.554688 182.164062 85.65625 177.050781 "/><path style=" stroke:none;fill-rule:nonzero;fill:#0d0d0d;fill-opacity:1;" d="M 72.171875 162.804688 C 72.171875 162.820312 75.648438 155.847656 67.511719 153.816406 C 67.515625 153.835938 63.929688 160.503906 72.171875 162.804688 "/><path style=" stroke:none;fill-rule:nonzero;fill:#0d0d0d;fill-opacity:1;" d="M 80.652344 166.339844 C 80.652344 166.355469 84.140625 159.410156 75.984375 157.214844 C 75.988281 157.234375 72.390625 163.878906 80.652344 166.339844 "/><path style=" stroke:none;fill-rule:nonzero;fill:#0d0d0d;fill-opacity:1;" d="M 83.042969 146.160156 C 83.046875 146.167969 79.203125 138.734375 68.894531 144.289062 C 68.902344 144.296875 72.371094 151.417969 83.042969 146.160156 "/><path style=" stroke:none;fill-rule:nonzero;fill:#0d0d0d;fill-opacity:1;" d="M 83.160156 101.226562 C 83.15625 101.21875 75.503906 105.820312 79.445312 112.605469 C 79.441406 112.597656 87.015625 108.335938 83.160156 101.226562 "/><path style=" stroke:none;fill-rule:nonzero;fill:#0d0d0d;fill-opacity:1;" d="M 109.753906 170.070312 C 109.757812 170.070312 105.507812 164.796875 98.1875 169.796875 C 98.191406 169.796875 102.148438 174.941406 109.753906 170.070312 "/><path style=" stroke:none;fill-rule:nonzero;fill:#0d0d0d;fill-opacity:1;" d="M 108.992188 220.308594 C 108.996094 220.308594 104.757812 214.953125 97.464844 219.765625 C 97.46875 219.765625 101.417969 225.011719 108.992188 220.308594 "/><path style=" stroke:none;fill-rule:nonzero;fill:#0d0d0d;fill-opacity:1;" d="M 53.902344 128.324219 C 53.90625 128.339844 55.019531 135.171875 64.390625 132.222656 C 64.394531 132.246094 63.488281 125.273438 53.902344 128.324219 "/><path style=" stroke:none;fill-rule:nonzero;fill:#0d0d0d;fill-opacity:1;" d="M 99.003906 66.328125 C 99 66.3125 90.773438 70.75 94.5 78.210938 C 94.5 78.199219 102.628906 74.121094 99.003906 66.328125 "/><path style=" stroke:none;fill-rule:nonzero;fill:#0d0d0d;fill-opacity:1;" d="M 152.445312 172.28125 C 152.445312 172.28125 145.894531 166.101562 137.652344 173.050781 C 137.652344 173.050781 143.84375 179.078125 152.445312 172.28125 "/><path style=" stroke:none;fill-rule:nonzero;fill:#0d0d0d;fill-opacity:1;" d="M 111.742188 184.210938 C 111.738281 184.210938 104.292969 189.164062 109.613281 196.105469 C 109.613281 196.109375 117.015625 191.464844 111.742188 184.210938 "/><path style=" stroke:none;fill-rule:nonzero;fill:#0d0d0d;fill-opacity:1;" d="M 119.964844 186.59375 C 119.964844 186.59375 114.214844 190.351562 118.316406 195.769531 C 118.3125 195.769531 124.027344 192.246094 119.964844 186.59375 "/><path style=" stroke:none;fill-rule:nonzero;fill:#0d0d0d;fill-opacity:1;" d="M 175.816406 135.996094 C 175.8125 135.984375 167.503906 139.105469 171.207031 147.355469 C 171.203125 147.339844 179.40625 144.53125 175.816406 135.996094 "/><path style=" stroke:none;fill-rule:nonzero;fill:#0d0d0d;fill-opacity:1;" d="M 100.535156 138.78125 C 100.535156 138.789062 103.566406 145.257812 112.488281 141.347656 C 112.492188 141.359375 109.714844 134.765625 100.535156 138.78125 "/><path style=" stroke:none;fill-rule:nonzero;fill:#0d0d0d;fill-opacity:1;" d="M 115.824219 156.410156 C 115.828125 156.421875 119.847656 164.949219 131.402344 160.195312 C 131.40625 160.214844 127.722656 151.492188 115.824219 156.410156 "/><path style=" stroke:none;fill-rule:nonzero;fill:#0d0d0d;fill-opacity:1;" d="M 126.535156 165.429688 C 126.539062 165.433594 132.070312 173.332031 142.835938 167.320312 C 142.835938 167.332031 137.660156 159.21875 126.535156 165.429688 "/><path style=" stroke:none;fill-rule:nonzero;fill:#0d0d0d;fill-opacity:1;" d="M 153.160156 162.699219 C 153.15625 162.703125 160.65625 155.800781 152.367188 148.582031 C 152.363281 148.589844 144.855469 155.191406 153.160156 162.699219 "/><path style=" stroke:none;fill-rule:nonzero;fill:#0d0d0d;fill-opacity:1;" d="M 141.582031 157.273438 C 141.578125 157.285156 148.199219 149.523438 138.933594 143.425781 C 138.933594 143.433594 132.265625 150.863281 141.582031 157.273438 "/><path style=" stroke:none;fill-rule:nonzero;fill:#0d0d0d;fill-opacity:1;" d="M 131.058594 150.027344 C 131.058594 150.039062 137.253906 143.140625 129.171875 137.554688 C 129.167969 137.566406 122.941406 144.164062 131.058594 150.027344 "/><path style=" stroke:none;fill-rule:nonzero;fill:#0d0d0d;fill-opacity:1;" d="M 121.085938 142.9375 C 121.085938 142.949219 126.867188 135.703125 118.429688 130.722656 C 118.429688 130.738281 112.589844 137.675781 121.085938 142.9375 "/><path style=" stroke:none;fill-rule:nonzero;fill:#0d0d0d;fill-opacity:1;" d="M 137.417969 116.242188 C 137.414062 116.25 144.949219 107.890625 135.109375 101.09375 C 135.109375 101.105469 127.535156 109.117188 137.417969 116.242188 "/><path style=" stroke:none;fill-rule:nonzero;fill:#0d0d0d;fill-opacity:1;" d="M 125.164062 108.996094 C 125.164062 109.003906 133.265625 101.488281 124.78125 94.238281 C 124.78125 94.242188 116.683594 101.445312 125.164062 108.996094 "/><path style=" stroke:none;fill-rule:nonzero;fill:#0d0d0d;fill-opacity:1;" d="M 115.214844 102.152344 C 115.210938 102.152344 123.328125 95.875 116.609375 88.585938 C 116.605469 88.585938 108.53125 94.601562 115.214844 102.152344 "/><path style=" stroke:none;fill-rule:nonzero;fill:#0d0d0d;fill-opacity:1;" d="M 304.160156 175.886719 C 304.15625 175.925781 307.675781 185.65625 295.46875 186.09375 C 295.464844 186.132812 291.757812 176.378906 304.160156 175.886719 "/><path style=" stroke:none;fill-rule:nonzero;fill:#0d0d0d;fill-opacity:1;" d="M 314.875 174.511719 C 314.871094 174.539062 318.242188 182.726562 308.164062 183.265625 C 308.164062 183.292969 304.652344 175.121094 314.875 174.511719 "/><path style=" stroke:none;fill-rule:nonzero;fill:#0d0d0d;fill-opacity:1;" d="M 323.527344 170.414062 C 323.527344 170.441406 328.820312 178.226562 320.199219 180.671875 C 320.195312 180.699219 314.824219 173.039062 323.527344 170.414062 "/><path style=" stroke:none;fill-rule:nonzero;fill:#0d0d0d;fill-opacity:1;" d="M 253.566406 181.058594 C 253.5625 181.09375 251.996094 170.355469 265.742188 171.472656 C 265.738281 171.507812 267.601562 181.726562 253.566406 181.058594 "/><path style=" stroke:none;fill-rule:nonzero;fill:#0d0d0d;fill-opacity:1;" d="M 269.960938 184.53125 C 269.953125 184.570312 267.191406 174.257812 280.070312 174.347656 C 280.066406 174.386719 283.074219 184.195312 269.960938 184.53125 "/><path style=" stroke:none;fill-rule:nonzero;fill:#0d0d0d;fill-opacity:1;" d="M 284.046875 185.617188 C 284.046875 185.652344 280.363281 176.328125 291.652344 175.441406 C 291.652344 175.472656 295.515625 184.355469 284.046875 185.617188 "/><path style=" stroke:none;fill-rule:nonzero;fill:#0d0d0d;fill-opacity:1;" d="M 125.457031 133.660156 C 125.457031 133.640625 134.960938 139.4375 143.582031 129.558594 C 143.585938 129.542969 134.460938 123.402344 125.457031 133.660156 "/><path style=" stroke:none;fill-rule:nonzero;fill:#0d0d0d;fill-opacity:1;" d="M 112.742188 127.503906 C 112.742188 127.484375 122.230469 133.023438 130.835938 122.972656 C 130.839844 122.957031 121.722656 117.0625 112.742188 127.503906 "/><path style=" stroke:none;fill-rule:nonzero;fill:#0d0d0d;fill-opacity:1;" d="M 74.066406 152.539062 C 74.070312 152.539062 79.003906 159.875 89.722656 153.570312 C 89.730469 153.578125 85.109375 145.980469 74.066406 152.539062 "/><path style=" stroke:none;fill-rule:nonzero;fill:#0d0d0d;fill-opacity:1;" d="M 60.3125 173.949219 C 60.316406 173.929688 67.113281 179.765625 76.378906 171.746094 C 76.382812 171.738281 69.902344 165.65625 60.3125 173.949219 "/><g clip-rule="nonzero" clip-path="url(#d34c28b5c2)"><path style=" stroke:none;fill-rule:nonzero;fill:#0d0d0d;fill-opacity:1;" d="M 30.917969 172.664062 C 30.917969 172.644531 37.636719 177.941406 46.804688 169.597656 C 46.804688 169.582031 40.390625 164.023438 30.917969 172.664062 "/></g><path style=" stroke:none;fill-rule:nonzero;fill:#0d0d0d;fill-opacity:1;" d="M 105.421875 119.96875 C 105.425781 119.957031 112.683594 124.050781 119.253906 116.226562 C 119.253906 116.21875 112.28125 111.886719 105.421875 119.96875 "/><path style=" stroke:none;fill-rule:nonzero;fill:#0d0d0d;fill-opacity:1;" d="M 95.183594 111.710938 C 95.1875 111.707031 100.949219 117.492188 109.667969 110.761719 C 109.667969 110.761719 104.203125 104.722656 95.183594 111.710938 "/><path style=" stroke:none;fill-rule:nonzero;fill:#0d0d0d;fill-opacity:1;" d="M 79.945312 200.507812 C 79.949219 200.535156 78.308594 209.867188 90.167969 210.269531 C 90.171875 210.296875 92.039062 200.972656 79.945312 200.507812 "/><path style=" stroke:none;fill-rule:nonzero;fill:#0d0d0d;fill-opacity:1;" d="M 125.023438 207.460938 C 125.023438 207.476562 126.738281 199.488281 116.84375 198.457031 C 116.847656 198.476562 114.941406 206.132812 125.023438 207.460938 "/><path style=" stroke:none;fill-rule:nonzero;fill:#0d0d0d;fill-opacity:1;" d="M 85.335938 215.324219 C 85.339844 215.308594 79.078125 210.726562 72.1875 217.683594 C 72.1875 217.667969 78.113281 222.230469 85.335938 215.324219 "/><path style=" stroke:none;fill-rule:nonzero;fill:#0d0d0d;fill-opacity:1;" d="M 140.6875 200.738281 C 140.683594 200.75 144.226562 194.890625 137.105469 191.671875 C 137.105469 191.683594 133.484375 197.300781 140.6875 200.738281 "/><path style=" stroke:none;fill-rule:nonzero;fill:#0d0d0d;fill-opacity:1;" d="M 114.882812 209.609375 C 114.882812 209.632812 116.867188 200.441406 105.503906 199.402344 C 105.503906 199.425781 103.304688 208.210938 114.882812 209.609375 "/><path style=" stroke:none;fill-rule:nonzero;fill:#0d0d0d;fill-opacity:1;" d="M 103.046875 210.789062 C 103.046875 210.8125 104.957031 201.882812 93.921875 201.058594 C 93.925781 201.082031 91.796875 209.605469 103.046875 210.789062 "/><path style=" stroke:none;fill-rule:nonzero;fill:#0d0d0d;fill-opacity:1;" d="M 126.90625 194.644531 C 126.90625 194.660156 124.746094 202.164062 134.121094 203.859375 C 134.121094 203.875 136.460938 196.492188 126.90625 194.644531 "/><path style=" stroke:none;fill-rule:nonzero;fill:#0d0d0d;fill-opacity:1;" d="M 65.8125 132.605469 C 65.820312 132.632812 66.726562 141.988281 79.3125 139.023438 C 79.316406 139.058594 78.675781 129.484375 65.8125 132.605469 "/><path style=" stroke:none;fill-rule:nonzero;fill:#0d0d0d;fill-opacity:1;" d="M 63.523438 123.15625 C 63.53125 123.183594 64.730469 131.886719 76.566406 128.613281 C 76.574219 128.640625 75.628906 119.722656 63.523438 123.15625 "/><path style=" stroke:none;fill-rule:nonzero;fill:#0d0d0d;fill-opacity:1;" d="M 62.183594 113.339844 C 62.1875 113.363281 63.269531 121.179688 73.902344 118.101562 C 73.910156 118.128906 73.058594 110.136719 62.183594 113.339844 "/><path style=" stroke:none;fill-rule:nonzero;fill:#0d0d0d;fill-opacity:1;" d="M 65.5625 100.882812 C 65.566406 100.898438 63.539062 107.421875 71.476562 107.796875 C 71.480469 107.820312 73.632812 101.335938 65.5625 100.882812 "/><path style=" stroke:none;fill-rule:nonzero;fill:#0d0d0d;fill-opacity:1;" d="M 38.019531 121.769531 C 38.023438 121.773438 40 127.175781 47.902344 123.34375 C 47.90625 123.347656 46.121094 117.804688 38.019531 121.769531 "/><path style=" stroke:none;fill-rule:nonzero;fill:#0d0d0d;fill-opacity:1;" d="M 87.902344 104.746094 C 87.902344 104.738281 93.660156 110.394531 102.363281 103.53125 C 102.363281 103.53125 96.902344 97.609375 87.902344 104.746094 "/><path style=" stroke:none;fill-rule:nonzero;fill:#0d0d0d;fill-opacity:1;" d="M 83.34375 93.882812 C 83.347656 93.902344 85.730469 101.425781 96.203125 97.460938 C 96.210938 97.484375 94.082031 89.746094 83.34375 93.882812 "/><path style=" stroke:none;fill-rule:nonzero;fill:#0d0d0d;fill-opacity:1;" d="M 51.5625 92.027344 C 51.570312 92.09375 46.800781 103.742188 60.589844 105.171875 C 60.597656 105.238281 65.542969 93.527344 51.5625 92.027344 "/><path style=" stroke:none;fill-rule:nonzero;fill:#0d0d0d;fill-opacity:1;" d="M 62.511719 78.914062 C 62.511719 78.945312 55.609375 88.3125 65.558594 92.765625 C 65.558594 92.796875 72.539062 83.667969 62.511719 78.914062 "/><path style=" stroke:none;fill-rule:nonzero;fill:#0d0d0d;fill-opacity:1;" d="M 82.039062 84.757812 C 82.042969 84.777344 83.191406 91.085938 91.757812 88.511719 C 91.761719 88.527344 90.816406 82.113281 82.039062 84.757812 "/><path style=" stroke:none;fill-rule:nonzero;fill:#0d0d0d;fill-opacity:1;" d="M 248.5 204.3125 C 248.5 204.320312 250.949219 198.21875 260.609375 201.722656 C 260.609375 201.730469 258.453125 207.617188 248.5 204.3125 "/><path style=" stroke:none;fill-rule:nonzero;fill:#0d0d0d;fill-opacity:1;" d="M 255.914062 211.882812 C 255.914062 211.898438 255.851562 205.253906 265.949219 205.863281 C 265.945312 205.882812 266.246094 212.226562 255.914062 211.882812 "/><path style=" stroke:none;fill-rule:nonzero;fill:#0d0d0d;fill-opacity:1;" d="M 265.964844 213.566406 C 265.964844 213.582031 264.457031 206.96875 274.269531 205.96875 C 274.269531 205.988281 275.976562 212.277344 265.964844 213.566406 "/><path style=" stroke:none;fill-rule:nonzero;fill:#0d0d0d;fill-opacity:1;" d="M 276.394531 214.488281 C 276.394531 214.507812 273.816406 208.070312 283.15625 205.902344 C 283.15625 205.921875 285.894531 212.027344 276.394531 214.488281 "/><path style=" stroke:none;fill-rule:nonzero;fill:#0d0d0d;fill-opacity:1;" d="M 286.558594 213.160156 C 286.558594 213.183594 284.808594 206.632812 294.496094 205.628906 C 294.492188 205.652344 296.433594 211.867188 286.558594 213.160156 "/><path style=" stroke:none;fill-rule:nonzero;fill:#0d0d0d;fill-opacity:1;" d="M 296.367188 214.039062 C 296.359375 214.066406 295.496094 205.964844 307.777344 206.496094 C 307.769531 206.527344 308.925781 214.167969 296.367188 214.039062 "/><path style=" stroke:none;fill-rule:nonzero;fill:#0d0d0d;fill-opacity:1;" d="M 272.019531 234.175781 C 272.019531 234.140625 281.574219 229.109375 291.109375 240.929688 C 291.109375 240.898438 282.046875 246.046875 272.019531 234.175781 "/><path style=" stroke:none;fill-rule:nonzero;fill:#0d0d0d;fill-opacity:1;" d="M 239.945312 202.109375 C 239.945312 202.121094 236.03125 194.65625 244.542969 189.117188 C 244.546875 189.136719 248.554688 196.222656 239.945312 202.109375 "/><path style=" stroke:none;fill-rule:nonzero;fill:#0d0d0d;fill-opacity:1;" d="M 232.25 206.675781 C 232.25 206.679688 226.527344 200.882812 232.90625 192.417969 C 232.90625 192.425781 238.640625 197.886719 232.25 206.675781 "/><path style=" stroke:none;fill-rule:nonzero;fill:#0d0d0d;fill-opacity:1;" d="M 268.738281 200.796875 C 268.742188 200.773438 257.96875 200.871094 258.539062 189.847656 C 258.539062 189.824219 269.085938 189.574219 268.738281 200.796875 "/><path style=" stroke:none;fill-rule:nonzero;fill:#0d0d0d;fill-opacity:1;" d="M 282.191406 201.898438 C 282.195312 201.878906 271.449219 201.773438 272.027344 190.851562 C 272.03125 190.824219 282.546875 190.789062 282.191406 201.898438 "/><g clip-rule="nonzero" clip-path="url(#a4d829d68a)"><path style=" stroke:none;fill-rule:nonzero;fill:#0d0d0d;fill-opacity:1;" d="M 337.023438 172.570312 C 337.019531 172.605469 340.261719 181.695312 327.960938 180.492188 C 327.957031 180.535156 324.53125 171.328125 337.023438 172.570312 "/></g><path style=" stroke:none;fill-rule:nonzero;fill:#0d0d0d;fill-opacity:1;" d="M 334.472656 156.007812 C 334.460938 156.070312 336.09375 168.144531 319.339844 163.683594 C 319.324219 163.746094 317.433594 151.230469 334.472656 156.007812 "/><path style=" stroke:none;fill-rule:nonzero;fill:#0d0d0d;fill-opacity:1;" d="M 292.710938 201.195312 C 292.714844 201.183594 284.511719 200.953125 284.957031 192.679688 C 284.960938 192.660156 292.984375 192.765625 292.710938 201.195312 "/><path style=" stroke:none;fill-rule:nonzero;fill:#0d0d0d;fill-opacity:1;" d="M 306.058594 198.539062 C 306.058594 198.515625 297.722656 200.023438 295.734375 191.71875 C 295.738281 191.695312 303.847656 190.089844 306.058594 198.539062 "/><path style=" stroke:none;fill-rule:nonzero;fill:#0d0d0d;fill-opacity:1;" d="M 316.375 197.019531 C 316.375 197 308.066406 198.335938 306.085938 190.070312 C 306.089844 190.046875 314.167969 188.613281 316.375 197.019531 "/><path style=" stroke:none;fill-rule:nonzero;fill:#0d0d0d;fill-opacity:1;" d="M 327.253906 192.027344 C 327.257812 192 320.25 195.820312 314.855469 188.789062 C 314.855469 188.765625 321.605469 184.839844 327.253906 192.027344 "/><path style=" stroke:none;fill-rule:nonzero;fill:#0d0d0d;fill-opacity:1;" d="M 281.339844 227.714844 C 281.339844 227.699219 272.703125 229.027344 271.570312 220.636719 C 271.570312 220.617188 279.992188 219.1875 281.339844 227.714844 "/><path style=" stroke:none;fill-rule:nonzero;fill:#0d0d0d;fill-opacity:1;" d="M 272.558594 241.734375 C 272.5625 241.714844 263.652344 242.082031 263.914062 233.714844 C 263.914062 233.703125 272.628906 233.214844 272.558594 241.734375 "/><path style=" stroke:none;fill-rule:nonzero;fill:#0d0d0d;fill-opacity:1;" d="M 259.4375 239.128906 C 259.4375 239.121094 250.6875 236.675781 254.421875 229.144531 C 254.421875 229.136719 263.054688 231.414062 259.4375 239.128906 "/><path style=" stroke:none;fill-rule:nonzero;fill:#0d0d0d;fill-opacity:1;" d="M 248.15625 234.453125 C 248.160156 234.460938 240.683594 229.554688 247.277344 223.78125 C 247.277344 223.789062 254.726562 228.457031 248.15625 234.453125 "/><path style=" stroke:none;fill-rule:nonzero;fill:#0d0d0d;fill-opacity:1;" d="M 236.699219 229.324219 C 236.699219 229.335938 232.625 221.964844 241.816406 219.917969 C 241.816406 219.933594 246.003906 227.019531 236.699219 229.324219 "/><path style=" stroke:none;fill-rule:nonzero;fill:#0d0d0d;fill-opacity:1;" d="M 271.214844 226.691406 C 271.214844 226.671875 262.5625 228.113281 261.421875 219.679688 C 261.425781 219.664062 269.859375 218.117188 271.214844 226.691406 "/><path style=" stroke:none;fill-rule:nonzero;fill:#0d0d0d;fill-opacity:1;" d="M 292.023438 226.382812 C 292.027344 226.363281 283.40625 227.554688 282.28125 219.210938 C 282.285156 219.1875 290.683594 217.898438 292.023438 226.382812 "/><path style=" stroke:none;fill-rule:nonzero;fill:#0d0d0d;fill-opacity:1;" d="M 303.707031 221.515625 C 303.707031 221.492188 296.113281 225.238281 291.367188 218.082031 C 291.367188 218.0625 298.699219 214.230469 303.707031 221.515625 "/><path style=" stroke:none;fill-rule:nonzero;fill:#0d0d0d;fill-opacity:1;" d="M 334.414062 186.960938 C 334.414062 186.945312 329.222656 190.363281 324.285156 185.058594 C 324.285156 185.042969 329.265625 181.535156 334.414062 186.960938 "/><path style=" stroke:none;fill-rule:nonzero;fill:#0d0d0d;fill-opacity:1;" d="M 34.488281 179.65625 C 34.488281 179.628906 42.917969 188.574219 57.328125 177.851562 C 57.335938 177.832031 49.304688 168.378906 34.488281 179.65625 "/><path style=" stroke:none;fill-rule:nonzero;fill:#0d0d0d;fill-opacity:1;" d="M 59.175781 209.011719 C 59.175781 208.996094 66.160156 217.46875 78.695312 209.144531 C 78.695312 209.136719 72.097656 200.371094 59.175781 209.011719 "/><path style=" stroke:none;fill-rule:nonzero;fill:#0d0d0d;fill-opacity:1;" d="M 74.234375 225.074219 C 74.234375 225.054688 82.230469 232.53125 93.210938 223.65625 C 93.214844 223.640625 85.609375 215.933594 74.234375 225.074219 "/><path style=" stroke:none;fill-rule:nonzero;fill:#0d0d0d;fill-opacity:1;" d="M 68.515625 195.347656 C 68.511719 195.316406 78.707031 195.824219 81.355469 185.457031 C 81.351562 185.429688 71.4375 184.75 68.515625 195.347656 "/><path style=" stroke:none;fill-rule:nonzero;fill:#0d0d0d;fill-opacity:1;" d="M 97.394531 196.023438 C 97.390625 196.007812 107.476562 192.378906 104.285156 182.667969 C 104.28125 182.65625 94.355469 186.0625 97.394531 196.023438 "/><path style=" stroke:none;fill-rule:nonzero;fill:#0d0d0d;fill-opacity:1;" d="M 82.808594 198.203125 C 82.804688 198.179688 94.53125 196.476562 92.703125 185.375 C 92.695312 185.347656 81.195312 186.878906 82.808594 198.203125 "/><path style=" stroke:none;fill-rule:nonzero;fill:#0d0d0d;fill-opacity:1;" d="M 57.441406 190 C 57.441406 189.976562 65.191406 193.378906 71.390625 184.894531 C 71.390625 184.878906 63.925781 181.304688 57.441406 190 "/><path style=" stroke:none;fill-rule:nonzero;fill:#0d0d0d;fill-opacity:1;" d="M 50.367188 185.730469 C 50.367188 185.714844 56.101562 188.929688 61.746094 182.429688 C 61.746094 182.417969 56.25 179.070312 50.367188 185.730469 "/><path style=" stroke:none;fill-rule:nonzero;fill:#0d0d0d;fill-opacity:1;" d="M 87.546875 231.144531 C 87.546875 231.132812 93.328125 234.945312 99.019531 228.769531 C 99.019531 228.761719 93.488281 224.847656 87.546875 231.144531 "/><path style=" stroke:none;fill-rule:nonzero;fill:#0d0d0d;fill-opacity:1;" d="M 124.351562 233.972656 C 124.347656 233.96875 133.847656 229.414062 128.878906 220.144531 C 128.878906 220.136719 119.488281 224.425781 124.351562 233.972656 "/><path style=" stroke:none;fill-rule:nonzero;fill:#0d0d0d;fill-opacity:1;" d="M 139.15625 229.277344 C 139.15625 229.28125 148.269531 222.179688 138.867188 214.5 C 138.867188 214.507812 129.757812 221.285156 139.15625 229.277344 "/><path style=" stroke:none;fill-rule:nonzero;fill:#0d0d0d;fill-opacity:1;" d="M 110.433594 235.15625 C 110.433594 235.148438 119.964844 234.054688 119.527344 224.570312 C 119.527344 224.554688 110.203125 225.453125 110.433594 235.15625 "/><path style=" stroke:none;fill-rule:nonzero;fill:#0d0d0d;fill-opacity:1;" d="M 100.8125 235.261719 C 100.808594 235.253906 108.453125 234.988281 108.980469 227.34375 C 108.980469 227.339844 101.523438 227.449219 100.8125 235.261719 "/></g></svg>