<svg xmlns="http://www.w3.org/2000/svg" xmlns:xlink="http://www.w3.org/1999/xlink" width="500" zoomAndPan="magnify" viewBox="0 0 375 374.999991" height="500" preserveAspectRatio="xMidYMid meet" version="1.2"><defs><clipPath id="e25c893e08"><path d="M 19.605469 19.605469 L 355.394531 19.605469 L 355.394531 355.394531 L 19.605469 355.394531 Z M 19.605469 19.605469 "/></clipPath><clipPath id="0ff4b30571"><path d="M 187.5 19.605469 C 94.773438 19.605469 19.605469 94.773438 19.605469 187.5 C 19.605469 280.226562 94.773438 355.394531 187.5 355.394531 C 280.226562 355.394531 355.394531 280.226562 355.394531 187.5 C 355.394531 94.773438 280.226562 19.605469 187.5 19.605469 Z M 187.5 19.605469 "/></clipPath><clipPath id="7d919fe86d"><path d="M 0.605469 0.605469 L 336.394531 0.605469 L 336.394531 336.394531 L 0.605469 336.394531 Z M 0.605469 0.605469 "/></clipPath><clipPath id="cc43bb30e1"><path d="M 168.5 0.605469 C 75.773438 0.605469 0.605469 75.773438 0.605469 168.5 C 0.605469 261.226562 75.773438 336.394531 168.5 336.394531 C 261.226562 336.394531 336.394531 261.226562 336.394531 168.5 C 336.394531 75.773438 261.226562 0.605469 168.5 0.605469 Z M 168.5 0.605469 "/></clipPath><clipPath id="bfda0a1ae8"><rect x="0" width="337" y="0" height="337"/></clipPath><clipPath id="31f7c38c9c"><path d="M 107 274.476562 L 283 274.476562 L 283 343.765625 L 107 343.765625 Z M 107 274.476562 "/></clipPath><clipPath id="7bf38fb029"><path d="M 177 31.015625 L 184 31.015625 L 184 41 L 177 41 Z M 177 31.015625 "/></clipPath><clipPath id="c6d3b85e51"><path d="M 196 31.015625 L 202 31.015625 L 202 41 L 196 41 Z M 196 31.015625 "/></clipPath><clipPath id="48dff283e2"><path d="M 316 170 L 325.042969 170 L 325.042969 177.828125 L 316 177.828125 Z M 316 170 "/></clipPath></defs><g id="8fcacbdb5c"><g clip-rule="nonzero" clip-path="url(#e25c893e08)"><g clip-rule="nonzero" clip-path="url(#0ff4b30571)"><g transform="matrix(1,0,0,1,19,19)"><g clip-path="url(#bfda0a1ae8)"><g clip-rule="nonzero" clip-path="url(#7d919fe86d)"><g clip-rule="nonzero" clip-path="url(#cc43bb30e1)"><path style=" stroke:none;fill-rule:nonzero;fill:#ffffff;fill-opacity:1;" d="M 0.605469 0.605469 L 336.394531 0.605469 L 336.394531 336.394531 L 0.605469 336.394531 Z M 0.605469 0.605469 "/></g></g></g></g></g></g><path style=" stroke:none;fill-rule:nonzero;fill:#000000;fill-opacity:1;" d="M 279.75 297.765625 C 273.625 298.402344 267.238281 298.632812 266.476562 296.507812 C 264.351562 290.59375 256.886719 288.851562 257.671875 288.109375 C 257.980469 287.816406 260.632812 287.964844 265.03125 288.765625 C 267.199219 289.15625 273.660156 291.253906 275.804688 291.707031 C 276.90625 291.941406 277.820312 292.320312 278.605469 292.71875 C 281.761719 294.332031 287.191406 294.828125 291.351562 295.824219 C 293.609375 296.367188 295.484375 297.636719 296.445312 297.949219 C 295.332031 296.601562 293.632812 296.125 292.722656 295.78125 C 291.101562 295.160156 289.691406 294.550781 288.210938 294.292969 C 285.746094 293.867188 284.207031 293.726562 282.40625 292.835938 C 278.070312 290.703125 275.636719 289.695312 271.433594 289.046875 C 271.613281 288.585938 278.996094 287.976562 282.148438 288.109375 C 285.445312 288.238281 290.832031 289.066406 294.824219 288.847656 C 296.261719 288.765625 297.492188 288.515625 298.851562 288.367188 C 300.210938 288.222656 301.84375 288.617188 303.339844 288.953125 C 302.039062 288.167969 299.378906 287.886719 297.335938 287.945312 C 295.296875 288.003906 293.421875 288.292969 291.261719 288.171875 C 288.09375 287.992188 284.988281 286.96875 281.804688 286.75 C 277.628906 286.464844 274.414062 287.640625 270.234375 287.378906 C 267.902344 287.230469 265.726562 286.539062 263.378906 286.21875 C 257.535156 285.417969 247.835938 286.648438 239.402344 286.171875 C 235.042969 285.917969 230.070312 286 226.355469 284.925781 C 223.355469 284.054688 217.175781 280.1875 216.847656 279.667969 C 215.921875 278.1875 220.128906 277.09375 223.355469 277.417969 C 226.578125 277.742188 229.019531 278.167969 232.25 278.480469 C 236.164062 278.859375 240.347656 278.726562 244.265625 278.542969 C 247.484375 278.390625 254.199219 278.15625 257.4375 278.421875 C 263.078125 278.878906 265.285156 279.800781 270.917969 280.285156 C 267.742188 279.585938 264.507812 278.949219 261.378906 278.210938 C 257.605469 277.308594 252.292969 277.445312 250.113281 277.449219 C 228.191406 277.5625 229.183594 273.832031 216.105469 273.015625 C 210.042969 272.652344 199.433594 272.527344 193.351562 272.714844 C 189.359375 272.835938 185.363281 273.726562 181.367188 273.761719 C 179.304688 273.78125 177.242188 273.792969 175.179688 273.804688 C 174.1875 273.808594 172.957031 272.394531 172.554688 272.765625 C 170.671875 272.570312 165.804688 273.515625 165.5625 273.539062 C 162.8125 273.75 159.710938 273.644531 157.089844 274.0625 C 154.96875 274.394531 151.140625 275.320312 149.925781 276.273438 C 146.976562 277.535156 144.097656 278.957031 140.382812 279.597656 C 138.820312 279.867188 137.160156 279.992188 135.652344 280.332031 C 132.324219 281.070312 130.21875 282.710938 127.0625 283.617188 C 123.964844 284.507812 120.230469 284.59375 116.75 284.503906 C 113.269531 284.410156 109.789062 284.164062 106.292969 284.464844 C 102.792969 284.765625 99.148438 285.765625 97.828125 287.324219 C 100.988281 285.402344 106.886719 285.195312 111.75 285.5 C 116.609375 285.800781 121.820312 286.378906 126.414062 285.3125 C 129.816406 284.523438 132.296875 282.921875 135.847656 282.316406 C 137.101562 282.101562 138.675781 282.066406 139.46875 282.53125 C 140.183594 282.953125 139.789062 283.574219 139.535156 284.121094 C 138.285156 286.800781 135.828125 287.164062 133.148438 288.398438 C 131.214844 289.289062 129.113281 289.679688 126.722656 290.261719 C 122.722656 291.230469 118.210938 291.882812 113.851562 292.277344 C 109.496094 292.667969 104.917969 293.332031 101.816406 294.882812 C 100.027344 295.78125 98.882812 296.898438 97.21875 297.835938 C 93.394531 299.988281 87.871094 301.484375 86.191406 304.078125 C 85.246094 305.546875 85.136719 306.824219 85.058594 308.316406 C 84.980469 309.765625 83.886719 311.242188 81.976562 312.460938 C 84.160156 311.011719 86.144531 309.992188 87.015625 308.308594 C 87.984375 306.441406 87.398438 304.597656 90.070312 303.058594 C 92.367188 301.734375 96.445312 299.824219 98.996094 298.585938 C 100.605469 297.804688 101.699219 297.265625 103.179688 296.429688 C 106.515625 294.550781 110.59375 294.265625 115.535156 293.617188 C 120.46875 292.96875 126.535156 291.871094 131.285156 290.925781 C 136.035156 289.980469 140.851562 287.734375 142.3125 285.425781 C 142.980469 284.367188 142.675781 283.804688 143.425781 282.753906 C 144.765625 280.886719 148.332031 279.511719 152.050781 278.578125 C 155.769531 277.648438 157.515625 276.6875 163.914062 276.617188 C 165.285156 276.601562 172.378906 275.941406 175.332031 277.683594 C 176.929688 278.617188 175.214844 279.761719 173.878906 280.824219 C 170.832031 283.253906 165.1875 284.648438 160.179688 286.230469 C 155.171875 287.8125 150.15625 290.046875 149.84375 292.828125 C 149.667969 294.414062 149.910156 295.890625 151.492188 297.46875 C 152.90625 298.878906 154.617188 300.0625 149.261719 300.996094 C 146.429688 301.492188 141.546875 301.277344 138.796875 301.882812 C 135.875 302.53125 134.535156 303.917969 132.167969 304.960938 C 128.917969 306.390625 124.5 306.410156 120.171875 306.691406 C 113.546875 307.128906 107.632812 309.578125 105.410156 312.507812 C 106.734375 311.324219 109.621094 310.609375 112.003906 309.78125 C 117.378906 307.910156 124.378906 308.476562 128.601562 307.824219 C 127.035156 309.992188 129.285156 313.5625 130.378906 315.738281 C 131.582031 318.136719 129.460938 318.164062 129.019531 321.164062 C 128.707031 323.265625 130.5625 325.699219 134.746094 326.398438 C 132.191406 325.445312 131.59375 323.714844 131.9375 322.160156 C 132.28125 320.609375 133.371094 319.085938 133.46875 317.53125 C 133.667969 314.320312 129.058594 310.574219 132.96875 307.863281 C 135.847656 305.871094 136.625 304.308594 141.207031 303.496094 C 147.960938 302.308594 155.101562 303.070312 157.328125 300.378906 C 158.300781 299.199219 156.371094 297.578125 155.851562 296.363281 C 152.851562 289.308594 166.636719 287.640625 167.710938 288.132812 C 169.234375 288.8125 165.839844 291.035156 168.222656 293.070312 C 169.828125 294.445312 173.769531 295.050781 174.660156 296.574219 C 175.484375 297.992188 172.824219 299.332031 172.035156 300.773438 C 170.40625 303.761719 177.003906 306.773438 174.757812 309.679688 C 172.605469 312.464844 164.628906 312.730469 159.222656 314.265625 C 151.175781 316.550781 149.652344 322.597656 156.367188 325.519531 C 151.84375 321.554688 153.617188 316.894531 161.195312 315.679688 C 164.527344 315.144531 168.5 314.664062 171.527344 313.808594 C 174.488281 312.976562 176.53125 310.410156 179.945312 310.332031 C 182.488281 310.273438 184.359375 313.289062 185.585938 314.332031 C 186.8125 315.378906 187.429688 316.566406 188.714844 317.597656 C 190.8125 319.277344 194.769531 320.722656 194.234375 322.675781 C 193.96875 323.640625 193.617188 324.34375 193.578125 325.511719 C 196.308594 323.710938 196.550781 321.15625 194.160156 319.289062 C 192.703125 318.148438 190.363281 317.242188 189.550781 315.960938 C 189.011719 315.117188 186.988281 311.664062 186.175781 310.875 C 183.21875 308.015625 179.8125 308.617188 177.648438 305.605469 C 173.1875 299.417969 182.699219 299.671875 180.636719 296.859375 C 178.820312 294.371094 171.179688 293.074219 171.910156 290.449219 C 172.414062 288.636719 176.75 287.628906 178.5625 286.003906 C 179.347656 285.296875 179.628906 284.484375 180.441406 283.78125 C 181.835938 282.578125 184.847656 281.832031 187.722656 281.980469 C 190.59375 282.132812 191.308594 283.652344 192.058594 284.964844 C 193.703125 287.847656 189.007812 290.296875 190.730469 293.175781 C 191.265625 294.066406 192.585938 294.882812 192.460938 295.816406 C 192.339844 296.691406 190.96875 297.398438 190.074219 298.175781 C 188.023438 299.953125 188.628906 302.316406 191.507812 303.789062 C 194.4375 305.289062 198.992188 305.753906 202.832031 306.703125 C 206.671875 307.652344 210.191406 309.714844 208.464844 311.589844 C 210.824219 310.003906 210.46875 307.652344 207.660156 306.242188 C 205.320312 305.066406 201.816406 304.621094 198.804688 303.859375 C 195.789062 303.101562 192.9375 301.640625 193.738281 300.066406 C 194.4375 298.691406 197.683594 297.792969 198.023438 296.394531 C 198.167969 295.792969 198.191406 295.148438 197.683594 294.59375 C 193.378906 289.902344 198.871094 285.816406 211.0625 290.726562 C 215.125 292.363281 211.753906 295.324219 214.9375 296.488281 C 218.59375 297.816406 228.15625 296.117188 230.257812 298.0625 C 232.234375 299.882812 225.207031 303.273438 225.394531 305.3125 C 225.582031 307.359375 229.683594 308.902344 230.609375 310.90625 C 231.894531 313.683594 226.832031 316.1875 225.824219 318.992188 C 224.953125 321.414062 227.476562 324.023438 231.917969 325.300781 C 227.953125 323.902344 228.167969 321.046875 229.796875 318.847656 C 231.421875 316.640625 234.097656 314.496094 233.757812 312.171875 C 233.449219 310.058594 230.664062 308.179688 229.808594 306.089844 C 228.949219 304 231.625 301.828125 236.109375 301.542969 C 246.9375 300.859375 242.863281 306.722656 247.5 309.011719 C 251.851562 311.15625 263.019531 312.542969 263.007812 316.523438 C 263.007812 318.332031 262.609375 320.664062 259.242188 321.582031 C 265.898438 320.023438 267.984375 315.496094 263.257812 312.761719 C 259.347656 310.503906 247.085938 307.882812 249.085938 305.707031 C 248.4375 306.410156 260.132812 307.015625 269.65625 305.925781 C 275.257812 305.277344 281.121094 306.949219 282.691406 309.515625 C 281.375 307.359375 278.515625 305.671875 274.417969 305.097656 C 270.320312 304.523438 267.261719 304.980469 263.039062 305.058594 C 258.8125 305.125 253.019531 305.421875 250.035156 303.988281 C 247.84375 302.933594 247.957031 300.804688 245.328125 299.988281 C 242.917969 299.234375 239.601562 299.300781 237.390625 298.425781 C 235.660156 297.742188 235.003906 296.636719 233.53125 295.828125 C 229.132812 293.410156 218.371094 296.835938 218.089844 293.707031 C 217.730469 289.714844 212.484375 287.648438 207.238281 286.929688 C 203.789062 286.457031 200.296875 285.679688 198.441406 284.234375 C 196.589844 282.792969 196.953125 280.648438 199.925781 279.703125 C 202.910156 278.761719 207.125 279.378906 209.828125 280.511719 C 212.53125 281.644531 214.265625 283.191406 216.5625 284.507812 C 222.0625 287.648438 232.292969 288.785156 240.789062 288.402344 C 243.28125 288.261719 258.453125 287.828125 262.054688 295.425781 C 262.960938 297.332031 264.832031 299.433594 268.6875 300.273438 C 273.3125 301.269531 279.359375 298.457031 283.890625 299.578125 C 287.636719 300.496094 288.292969 303.953125 290.515625 305.585938 C 293.007812 307.417969 297.871094 307.964844 302.09375 308.941406 C 295.660156 307.453125 292.371094 305.046875 290.308594 302.851562 C 287.964844 300.363281 286.644531 297.054688 279.75 297.765625 "/><g clip-rule="nonzero" clip-path="url(#31f7c38c9c)"><path style=" stroke:none;fill-rule:nonzero;fill:#000000;fill-opacity:1;" d="M 126.105469 307.035156 C 130.976562 308.03125 136.042969 308.441406 136.644531 305.609375 C 138.324219 297.738281 144.25 295.570312 143.625 294.5625 C 143.382812 294.167969 141.277344 294.3125 137.78125 295.285156 C 136.0625 295.761719 130.929688 298.421875 129.226562 298.980469 C 128.355469 299.265625 127.628906 299.75 127.007812 300.269531 C 124.5 302.359375 120.1875 302.894531 116.882812 304.125 C 115.089844 304.792969 113.601562 306.464844 112.839844 306.859375 C 113.71875 305.058594 115.070312 304.46875 115.792969 304.023438 C 117.078125 303.226562 118.199219 302.445312 119.375 302.140625 C 121.332031 301.628906 122.554688 301.480469 123.984375 300.332031 C 127.425781 297.566406 129.359375 296.28125 132.699219 295.519531 C 132.554688 294.898438 126.6875 293.882812 124.179688 293.960938 C 121.554688 294.039062 117.273438 294.984375 114.097656 294.542969 C 112.949219 294.386719 111.972656 294 110.886719 293.75 C 109.804688 293.503906 108.507812 293.972656 107.3125 294.375 C 108.347656 293.351562 110.46875 293.070312 112.09375 293.234375 C 113.71875 293.386719 115.210938 293.847656 116.929688 293.753906 C 119.445312 293.621094 121.917969 292.335938 124.445312 292.144531 C 127.765625 291.886719 130.324219 293.558594 133.644531 293.308594 C 135.5 293.167969 137.226562 292.289062 139.089844 291.917969 C 143.734375 290.992188 151.433594 292.816406 158.125 292.277344 C 161.582031 291.996094 165.527344 292.15625 168.472656 290.765625 C 170.851562 289.640625 175.757812 284.601562 176.015625 283.925781 C 176.753906 281.984375 173.417969 280.519531 170.855469 280.914062 C 168.296875 281.304688 166.363281 281.839844 163.800781 282.210938 C 160.695312 282.65625 157.371094 282.417969 154.261719 282.101562 C 151.707031 281.84375 146.375 281.386719 143.800781 281.660156 C 139.320312 282.125 137.570312 283.296875 133.089844 283.78125 C 135.613281 282.941406 138.183594 282.179688 140.671875 281.273438 C 143.667969 280.175781 147.886719 280.484375 149.621094 280.539062 C 167.023438 281.101562 166.230469 276.113281 176.613281 275.195312 C 181.421875 274.777344 189.835938 274.652344 194.660156 274.890625 C 197.820312 275.039062 200.988281 276.179688 204.15625 276.203125 C 205.789062 276.210938 207.425781 276.210938 209.058594 276.210938 C 209.847656 276.207031 210.828125 274.355469 211.144531 274.832031 C 212.636719 274.5625 215.71875 275.847656 216.109375 275.757812 C 216.292969 275.714844 216.492188 275.738281 216.683594 275.757812 C 218.859375 276 221.324219 275.816406 223.398438 276.3125 C 225.078125 276.714844 228.109375 277.84375 229.070312 279.046875 C 231.40625 280.628906 233.683594 282.40625 236.625 283.15625 C 237.863281 283.46875 239.175781 283.585938 240.371094 283.984375 C 243.003906 284.859375 244.667969 286.925781 247.171875 288.007812 C 249.621094 289.066406 252.582031 289.070312 255.34375 288.835938 C 258.101562 288.601562 260.863281 288.160156 263.640625 288.421875 C 266.414062 288.683594 269.304688 289.835938 270.339844 291.804688 C 267.84375 289.4375 263.160156 289.394531 259.304688 289.957031 C 255.445312 290.515625 251.3125 291.429688 247.675781 290.183594 C 244.984375 289.257812 243.019531 287.253906 240.210938 286.5625 C 239.214844 286.320312 237.96875 286.308594 237.339844 286.933594 C 236.773438 287.492188 237.082031 288.285156 237.28125 288.992188 C 238.257812 292.429688 240.207031 292.839844 242.324219 294.363281 C 243.851562 295.464844 245.519531 295.914062 247.414062 296.597656 C 250.578125 297.738281 254.152344 298.441406 257.605469 298.804688 C 261.058594 299.167969 264.6875 299.859375 267.140625 301.753906 C 268.554688 302.847656 269.457031 304.246094 270.773438 305.398438 C 273.796875 308.042969 278.171875 309.757812 279.492188 313.050781 C 280.238281 314.914062 280.316406 316.570312 280.371094 318.503906 C 280.425781 320.382812 281.285156 322.25 282.792969 323.753906 C 281.066406 321.964844 279.503906 320.722656 278.8125 318.574219 C 278.054688 316.191406 278.53125 313.78125 276.417969 311.890625 C 274.601562 310.265625 271.382812 307.949219 269.363281 306.441406 C 268.089844 305.492188 267.222656 304.828125 266.050781 303.804688 C 263.414062 301.496094 260.183594 301.277344 256.269531 300.597656 C 252.359375 299.921875 247.554688 298.679688 243.792969 297.589844 C 240.03125 296.5 236.222656 293.703125 235.074219 290.75 C 234.546875 289.390625 234.792969 288.652344 234.203125 287.308594 C 233.148438 284.925781 230.324219 283.222656 227.378906 282.082031 C 224.433594 280.945312 223.050781 279.730469 217.980469 279.734375 C 216.894531 279.734375 211.273438 278.964844 208.925781 281.253906 C 207.660156 282.488281 209.015625 283.957031 210.070312 285.328125 C 212.484375 288.453125 216.949219 290.1875 220.914062 292.152344 C 224.878906 294.117188 228.84375 296.90625 229.082031 300.507812 C 229.214844 302.5625 229.019531 304.484375 227.761719 306.558594 C 226.640625 308.417969 225.277344 309.992188 229.515625 311.085938 C 231.757812 311.664062 235.625 311.265625 237.800781 311.980469 C 240.113281 312.738281 241.171875 314.503906 243.039062 315.785156 C 245.609375 317.550781 249.109375 317.441406 252.539062 317.675781 C 257.785156 318.027344 262.460938 321 264.210938 324.710938 C 263.167969 323.222656 260.882812 322.398438 258.996094 321.40625 C 254.746094 319.167969 249.195312 320.117188 245.851562 319.394531 C 247.085938 322.152344 245.292969 326.839844 244.417969 329.6875 C 243.453125 332.828125 245.136719 332.808594 245.472656 336.675781 C 245.710938 339.386719 244.234375 342.59375 240.921875 343.617188 C 242.949219 342.3125 243.421875 340.054688 243.160156 338.054688 C 242.894531 336.054688 242.035156 334.113281 241.964844 332.101562 C 241.820312 327.949219 245.484375 322.96875 242.394531 319.566406 C 240.125 317.0625 239.515625 315.0625 235.882812 314.136719 C 230.542969 312.761719 224.882812 313.898438 223.132812 310.457031 C 222.363281 308.949219 223.898438 306.804688 224.3125 305.214844 C 226.710938 296.015625 215.792969 294.101562 214.941406 294.738281 C 213.730469 295.644531 216.414062 298.480469 214.523438 301.164062 C 213.246094 302.972656 210.125 303.816406 209.417969 305.8125 C 208.761719 307.664062 210.863281 309.371094 211.480469 311.230469 C 212.765625 315.089844 207.535156 319.109375 209.304688 322.851562 C 211.003906 326.4375 217.3125 326.640625 221.585938 328.511719 C 227.949219 331.296875 229.136719 339.09375 223.816406 343.046875 C 227.40625 337.792969 226.015625 331.796875 220.023438 330.386719 C 217.386719 329.769531 214.246094 329.214844 211.851562 328.164062 C 209.507812 327.136719 207.898438 323.835938 205.199219 323.785156 C 203.1875 323.746094 201.695312 327.707031 200.726562 329.082031 C 199.75 330.460938 199.261719 332.023438 198.242188 333.378906 C 196.578125 335.601562 193.445312 337.550781 193.867188 340.089844 C 194.074219 341.347656 194.351562 342.257812 194.378906 343.78125 C 192.222656 341.476562 192.035156 338.144531 193.929688 335.667969 C 195.085938 334.160156 196.9375 332.941406 197.585938 331.261719 C 198.011719 330.15625 199.621094 325.621094 200.265625 324.585938 C 202.609375 320.820312 205.304688 321.550781 207.027344 317.601562 C 210.574219 309.488281 203.042969 309.957031 204.683594 306.261719 C 206.125 303.003906 212.179688 301.210938 211.609375 297.808594 C 211.210938 295.464844 207.78125 294.207031 206.355469 292.113281 C 205.730469 291.199219 205.507812 290.144531 204.863281 289.242188 C 203.761719 287.683594 201.375 286.734375 199.101562 286.945312 C 196.824219 287.160156 196.253906 289.144531 195.660156 290.859375 C 194.347656 294.636719 198.066406 297.800781 196.695312 301.5625 C 196.265625 302.730469 195.222656 303.808594 195.320312 305.019531 C 195.414062 306.160156 196.496094 307.078125 197.203125 308.078125 C 198.828125 310.375 198.34375 313.464844 196.058594 315.414062 C 193.738281 317.402344 190.132812 318.054688 187.089844 319.324219 C 184.046875 320.597656 181.253906 323.324219 182.621094 325.769531 C 180.757812 323.707031 181.039062 320.621094 183.265625 318.757812 C 185.121094 317.203125 187.898438 316.597656 190.285156 315.578125 C 192.671875 314.558594 194.933594 312.625 194.296875 310.574219 C 193.75 308.792969 191.179688 307.644531 190.914062 305.816406 C 190.800781 305.035156 190.78125 304.191406 191.183594 303.464844 C 194.605469 297.308594 190.261719 292.015625 180.59375 298.449219 C 177.371094 300.59375 180.035156 304.476562 177.511719 306.003906 C 174.617188 307.761719 167.042969 305.503906 165.371094 308.050781 C 163.804688 310.449219 169.375 314.929688 169.222656 317.609375 C 169.074219 320.304688 165.824219 322.347656 165.089844 324.988281 C 164.074219 328.652344 168.078125 331.9375 168.871094 335.621094 C 169.558594 338.800781 167.566406 342.257812 164.046875 343.984375 C 167.1875 342.101562 167.019531 338.347656 165.730469 335.453125 C 164.441406 332.554688 162.324219 329.734375 162.59375 326.664062 C 162.839844 323.871094 165.042969 321.386719 165.726562 318.632812 C 166.40625 315.878906 164.285156 313.019531 160.734375 312.621094 C 152.152344 311.667969 155.382812 319.441406 151.710938 322.464844 C 148.261719 325.296875 139.410156 327.085938 139.425781 332.40625 C 139.425781 334.816406 139.746094 337.941406 142.414062 339.167969 C 137.140625 337.085938 135.480469 330.996094 139.222656 327.378906 C 142.320312 324.390625 152.035156 320.972656 150.449219 318.070312 C 150.964844 319.011719 141.695312 319.757812 134.140625 318.167969 C 129.691406 317.234375 125.039062 319.375 123.800781 322.820312 C 124.84375 319.925781 127.105469 317.703125 130.359375 316.992188 C 133.609375 316.285156 136.035156 316.941406 139.386719 317.085938 C 142.738281 317.230469 147.332031 317.664062 149.695312 315.785156 C 151.433594 314.398438 151.34375 311.574219 153.425781 310.511719 C 155.339844 309.535156 157.964844 309.640625 159.722656 308.496094 C 161.09375 307.605469 161.609375 306.144531 162.78125 305.089844 C 166.265625 301.9375 174.792969 306.472656 175.019531 302.355469 C 175.308594 297.101562 179.46875 294.410156 183.628906 293.472656 C 186.363281 292.851562 189.132812 291.824219 190.601562 289.933594 C 192.074219 288.046875 191.789062 285.246094 189.433594 284.019531 C 187.070312 282.789062 183.726562 283.582031 181.582031 285.0625 C 179.4375 286.539062 178.0625 288.5625 176.234375 290.277344 C 171.875 294.375 163.765625 295.824219 157.023438 295.210938 C 155.050781 295.015625 143.007812 294.171875 140.15625 304.238281 C 139.4375 306.765625 137.953125 309.550781 134.894531 310.613281 C 131.226562 311.882812 126.421875 307.980469 122.824219 309.386719 C 119.851562 310.542969 119.335938 315.203125 117.578125 317.371094 C 115.601562 319.800781 111.742188 320.445312 108.390625 321.683594 C 113.496094 319.796875 116.101562 316.589844 117.730469 313.671875 C 119.589844 310.351562 120.628906 305.917969 126.105469 307.035156 "/></g><path style=" stroke:none;fill-rule:nonzero;fill:#000000;fill-opacity:1;" d="M 263.183594 158.65625 L 264.058594 158.328125 L 264.460938 158.453125 C 268.496094 159.730469 272.039062 160.644531 275.285156 161.246094 C 278.46875 161.820312 281.714844 162.226562 284.996094 162.46875 C 284.042969 162.328125 283.097656 162.171875 282.164062 162.007812 C 278.511719 161.355469 274.246094 160.214844 269.484375 158.628906 L 266.179688 157.523438 L 270.316406 155.992188 C 282.546875 151.507812 290.464844 145.863281 295.558594 140.742188 C 291.257812 143.617188 286.242188 146.078125 281.34375 148.273438 L 279.152344 149.253906 L 279.644531 146.90625 C 280.382812 143.363281 281.378906 140.394531 282.601562 138.078125 C 281.953125 139.011719 281.34375 140.023438 280.792969 141.101562 C 279.714844 143.210938 278.824219 145.898438 278.152344 149.09375 L 278.019531 149.722656 L 277.425781 149.96875 C 270.429688 152.902344 262.863281 155.742188 255.550781 158.488281 C 248.214844 161.242188 241.292969 163.847656 235.375 166.367188 L 231.980469 167.808594 L 233.839844 164.617188 C 235.160156 162.351562 236.257812 160.242188 237.199219 158.164062 C 238.53125 155.214844 239.90625 151.480469 241.363281 147.523438 L 241.742188 146.496094 L 242.523438 146.429688 C 246.476562 146.109375 249.71875 145.621094 252.4375 144.933594 C 253.347656 144.707031 254.234375 144.457031 255.09375 144.1875 C 252.042969 144.847656 248.296875 145.300781 243.921875 145.546875 L 242.050781 145.652344 L 242.707031 143.894531 C 245.390625 136.71875 249.460938 125.820312 256.125 116.820312 C 251.769531 120.910156 247.53125 126.226562 244.648438 132.9375 C 244.320312 133.699219 244.003906 134.449219 243.695312 135.1875 L 242.296875 138.542969 L 241.378906 135.027344 C 240.3125 130.949219 239.707031 127.289062 239.570312 124.148438 C 239.488281 122.164062 239.488281 119.5 239.773438 116.402344 C 238.910156 120.503906 238.453125 125.152344 238.820312 130.1875 C 239.054688 133.441406 239.773438 137.191406 240.957031 141.339844 L 241.070312 141.738281 L 240.800781 142.429688 C 237.082031 151.984375 234.429688 160.429688 226.34375 170.199219 L 225.007812 171.222656 C 220.386719 173.679688 215.792969 176.582031 211.355469 179.839844 L 209.839844 180.957031 L 209.4375 179.117188 C 208.070312 172.9375 207.476562 167.464844 207.660156 162.863281 C 207.773438 160.078125 208.132812 156.128906 209.121094 151.527344 C 207.285156 156.894531 205.90625 163.183594 205.835938 170.0625 C 205.792969 173.640625 206.222656 177.75 207.097656 182.285156 L 207.238281 183.003906 L 206.671875 183.46875 C 201.464844 187.695312 197.65625 191.488281 195.375 193.917969 L 193.824219 195.574219 L 193.289062 193.367188 C 192.476562 190.015625 191.734375 186 191.136719 182.769531 C 190.617188 179.960938 190.167969 177.53125 189.871094 176.585938 C 188.476562 172.167969 191.0625 145.175781 196.644531 127.964844 L 196.734375 127.6875 L 197.535156 126.890625 C 200.441406 123.996094 202.738281 121.707031 205.628906 118.996094 L 207.144531 117.539062 C 213.277344 111.652344 222.089844 103.195312 229.875 92.457031 C 226.53125 96.710938 222.648438 100.953125 218.144531 104.960938 C 211.921875 110.539062 206.144531 115.839844 200.976562 120.714844 L 197.464844 123.652344 C 198.113281 121.777344 200.277344 115.695312 200.921875 113.890625 C 203.496094 106.609375 207.949219 94.003906 209.597656 78.785156 C 208.867188 83.566406 207.75 88.492188 206.109375 93.429688 L 205.484375 95.300781 L 203.074219 92.917969 C 199.957031 89.847656 197.265625 87.195312 195.359375 83.933594 C 194.558594 82.5625 193.765625 81.160156 193.015625 79.699219 C 193.992188 81.964844 195.242188 84.351562 196.824219 86.832031 C 198.265625 89.101562 200.890625 92.351562 204.429688 96.234375 L 204.925781 96.78125 L 203.03125 101.96875 C 193.160156 128.949219 186.027344 148.445312 183.792969 163.386719 L 183.296875 166.660156 L 181.539062 163.851562 C 177.132812 156.8125 172.992188 149.0625 169.230469 140.8125 L 168.949219 140.195312 L 169.324219 139.628906 C 171.847656 135.820312 173.792969 132.320312 175.109375 129.214844 C 178.039062 122.351562 179.082031 115.921875 179.210938 110.476562 C 178.402344 115.726562 176.96875 120.132812 175.820312 123.070312 C 174.40625 126.699219 172.097656 130.90625 168.976562 135.570312 L 167.714844 137.449219 L 166.832031 135.363281 C 163.433594 127.378906 160.335938 118.871094 157.625 110.070312 L 157.449219 109.5 L 157.792969 109.007812 C 160.410156 105.277344 162.265625 102.070312 163.472656 99.199219 C 164.558594 96.621094 165.28125 94.136719 165.734375 91.800781 C 165.355469 93.058594 164.964844 94.160156 164.613281 95.066406 C 163.414062 98.175781 161.347656 101.84375 158.472656 105.96875 L 157.003906 108.074219 L 156.289062 105.613281 C 152.949219 94.125 150.710938 83.757812 149.273438 75.59375 C 149.570312 80.40625 150.226562 86.207031 151.546875 93.089844 L 152.109375 96.019531 L 149.648438 94.332031 C 144.25 90.621094 140.171875 87.261719 137.199219 84.058594 C 137.035156 83.878906 136.867188 83.699219 136.703125 83.511719 C 138.074219 85.304688 139.609375 87.085938 141.320312 88.820312 C 144.0625 91.625 147.613281 94.535156 152.164062 97.710938 L 152.558594 97.988281 L 152.660156 98.449219 C 154.613281 107.183594 157.414062 116.714844 160.988281 126.769531 L 161.910156 129.375 L 159.363281 128.308594 C 149.3125 124.125 124.71875 113.160156 113.417969 101.722656 C 113.144531 101.445312 112.875 101.15625 112.605469 100.863281 C 114.039062 102.691406 115.660156 104.503906 117.488281 106.261719 C 128.230469 116.585938 147.273438 126.140625 161.179688 133.117188 L 161.933594 133.496094 L 162.105469 133.9375 C 162.660156 135.394531 163.21875 136.871094 163.785156 138.375 C 167 146.890625 170.644531 156.546875 175.597656 166.953125 L 176.675781 169.21875 L 174.226562 168.675781 C 167.167969 167.109375 162.742188 165.226562 157.613281 163.050781 L 156.703125 162.660156 C 150.0625 159.847656 143.8125 156.441406 138.214844 152.628906 C 144.402344 157.945312 152.890625 163.738281 163.933594 168.183594 C 165.671875 168.894531 167.027344 169.554688 168.335938 170.199219 C 170.757812 171.386719 172.855469 172.417969 176.671875 173.3125 L 177.230469 173.445312 L 177.484375 173.960938 C 177.9375 174.871094 181.289062 193.488281 181.324219 193.675781 L 181.710938 195.765625 C 181.824219 196.101562 179.296875 194.789062 179.320312 194.808594 C 179 194.578125 176.894531 193.464844 174.457031 192.179688 C 159.082031 184.082031 118.238281 162.574219 102.578125 143.96875 C 100.753906 141.691406 99.054688 139.066406 97.523438 136.183594 C 99.6875 140.863281 102.597656 145.683594 106.511719 150.308594 C 115.703125 161.242188 129.804688 169.523438 143.441406 177.53125 L 148.316406 180.980469 L 143.546875 180.34375 C 120.546875 176.378906 100.375 170.484375 83.300781 162.757812 C 89.945312 166.230469 99.113281 170.132812 111.898438 174.0625 L 115 175.015625 L 111.933594 176.394531 C 109.753906 177.136719 107.71875 177.695312 105.875 178.070312 C 104.34375 178.378906 102.785156 178.632812 101.207031 178.835938 C 105.089844 178.710938 108.90625 178.25 112.585938 177.464844 C 113.136719 177.34375 116.765625 175.835938 117.121094 175.667969 C 128.09375 178.949219 141.371094 182.375 157.707031 186.132812 L 157.910156 186.179688 L 158.085938 186.289062 C 160.457031 187.785156 162.542969 189.167969 164.464844 190.519531 L 167.179688 192.433594 L 163.875 192.742188 C 160.640625 193.046875 157.425781 193.894531 154.320312 195.269531 C 152.734375 195.96875 151.246094 196.921875 149.667969 197.929688 C 148.46875 198.699219 147.222656 199.492188 145.882812 200.207031 C 139.660156 203.515625 132.808594 204.753906 127.796875 205.652344 C 124.976562 206.160156 122.050781 206.542969 119.105469 206.796875 C 119.136719 206.796875 119.167969 206.796875 119.195312 206.796875 C 124.585938 206.796875 129.957031 206.300781 135.140625 205.320312 L 135.230469 205.296875 L 139.414062 204.652344 L 136.199219 207.480469 C 132.34375 210.378906 128.09375 213.378906 123.324219 215.53125 C 125.863281 214.675781 128.839844 213.441406 132.296875 211.683594 C 134.355469 210.632812 136.503906 209.476562 138.582031 208.359375 C 147.503906 203.554688 156.722656 198.585938 164.851562 198.585938 C 170.527344 198.585938 175.15625 201.085938 178.605469 206.015625 C 181.976562 210.824219 182.78125 217.078125 183.09375 221.363281 C 184.515625 240.886719 181.082031 263.707031 170.472656 273.324219 C 172.792969 273.53125 175.761719 275.089844 178.023438 275.089844 C 178.648438 275.089844 181.242188 276.328125 181.710938 276.296875 C 191.699219 275.609375 199.757812 274.300781 209.574219 273.847656 C 207.703125 268.09375 201.8125 247.339844 203.609375 234.019531 C 206.648438 211.574219 223.640625 208.976562 236.164062 208.976562 C 237.523438 208.976562 238.953125 209.007812 240.652344 209.070312 L 241.152344 209.085938 L 241.496094 209.449219 C 243.296875 211.34375 245.074219 212.976562 246.777344 214.304688 C 249.710938 216.585938 252.796875 218.453125 255.777344 219.972656 C 253.910156 218.675781 252.296875 217.464844 251.015625 216.5 C 249.476562 215.347656 247.804688 213.742188 245.761719 211.457031 L 243.738281 209.191406 L 246.765625 209.417969 C 247.875 209.5 249.007812 209.589844 250.15625 209.679688 C 253.765625 209.96875 257.492188 210.265625 261.492188 210.40625 C 263.425781 210.488281 265.292969 210.527344 267.050781 210.527344 C 269.558594 210.527344 271.769531 210.445312 273.722656 210.304688 C 266.175781 210.300781 258.101562 208.941406 250.292969 207.625 C 244.898438 206.71875 239.320312 205.777344 234.082031 205.324219 L 229.640625 204.9375 L 233.652344 203 C 235.324219 202.191406 236.882812 201.332031 238.34375 200.445312 C 234.464844 202.171875 231.015625 203.234375 228.550781 203.859375 C 225.972656 204.5 220.707031 205.523438 218.722656 205.90625 C 218.414062 205.96875 218.039062 206.042969 218.039062 206.042969 C 209.804688 207.796875 204.644531 211.402344 201.769531 214.121094 L 200.179688 215.621094 L 199.628906 213.019531 C 198.894531 209.554688 198.257812 206.558594 199.046875 204.300781 C 202.132812 195.4375 215.847656 182.875 224.605469 176.785156 L 225.046875 176.476562 L 228.578125 177.277344 C 244.109375 180.796875 263.4375 185.171875 278.175781 185.171875 C 279.046875 185.167969 279.90625 185.148438 280.75 185.121094 C 268.050781 184.519531 249.660156 180.980469 230.484375 175.394531 L 227.78125 174.609375 L 230.203125 173.167969 C 240.136719 167.246094 250.816406 163.265625 263.183594 158.65625 "/><path style=" stroke:none;fill-rule:nonzero;fill:#000000;fill-opacity:1;" d="M 143.3125 37.96875 C 143.304688 38.003906 134.785156 49.492188 147.492188 58.132812 C 147.488281 58.167969 156.136719 47.113281 143.3125 37.96875 "/><path style=" stroke:none;fill-rule:nonzero;fill:#000000;fill-opacity:1;" d="M 54.71875 130.128906 C 54.726562 130.171875 53.714844 139.398438 65.695312 138.6875 C 65.707031 138.738281 66.910156 129.285156 54.71875 130.128906 "/><path style=" stroke:none;fill-rule:nonzero;fill:#000000;fill-opacity:1;" d="M 67.433594 120.648438 C 67.441406 120.675781 66.914062 128.046875 76.523438 127.371094 C 76.53125 127.402344 77.234375 119.921875 67.433594 120.648438 "/><path style=" stroke:none;fill-rule:nonzero;fill:#000000;fill-opacity:1;" d="M 154.800781 41.425781 C 154.800781 41.425781 148.800781 46.882812 154.488281 53.058594 C 154.484375 53.058594 160.484375 47.914062 154.800781 41.425781 "/><path style=" stroke:none;fill-rule:nonzero;fill:#000000;fill-opacity:1;" d="M 158.894531 37.925781 C 158.890625 37.933594 157.292969 42.210938 162.117188 45.222656 C 162.425781 43.839844 163.734375 41.03125 158.894531 37.925781 "/><path style=" stroke:none;fill-rule:nonzero;fill:#000000;fill-opacity:1;" d="M 193.042969 35.929688 C 193.035156 35.890625 180.90625 43.453125 189.265625 56.558594 C 189.265625 56.515625 201.308594 49.636719 193.042969 35.929688 "/><path style=" stroke:none;fill-rule:nonzero;fill:#000000;fill-opacity:1;" d="M 205.820312 33.710938 C 205.816406 33.71875 197.375 44.035156 210.246094 54.523438 C 210.234375 54.53125 218.804688 44.796875 205.820312 33.710938 "/><path style=" stroke:none;fill-rule:nonzero;fill:#000000;fill-opacity:1;" d="M 134.625 52.988281 C 134.625 53.046875 128.421875 65.429688 142.886719 71.648438 C 142.886719 71.710938 149.300781 59.527344 134.625 52.988281 "/><path style=" stroke:none;fill-rule:nonzero;fill:#000000;fill-opacity:1;" d="M 161.535156 50.773438 C 161.527344 50.710938 147.679688 56.582031 152.1875 70.628906 C 152.183594 70.574219 165.804688 65.347656 161.535156 50.773438 "/><path style=" stroke:none;fill-rule:nonzero;fill:#000000;fill-opacity:1;" d="M 172.78125 53.320312 C 172.777344 53.285156 162.507812 57.300781 165.835938 67.828125 C 165.832031 67.796875 175.933594 64.210938 172.78125 53.320312 "/><path style=" stroke:none;fill-rule:nonzero;fill:#000000;fill-opacity:1;" d="M 199.449219 56.1875 C 199.445312 56.148438 189.160156 59.488281 192.457031 70.234375 C 192.453125 70.199219 202.566406 67.261719 199.449219 56.1875 "/><path style=" stroke:none;fill-rule:nonzero;fill:#000000;fill-opacity:1;" d="M 171.820312 34.957031 C 171.8125 34.914062 161.527344 38.976562 164.859375 49.488281 C 164.855469 49.453125 174.976562 45.835938 171.820312 34.957031 "/><path style=" stroke:none;fill-rule:nonzero;fill:#000000;fill-opacity:1;" d="M 180.242188 72.304688 C 180.242188 72.257812 169.261719 73.652344 169.328125 84.734375 C 169.328125 84.699219 180.035156 83.597656 180.242188 72.304688 "/><path style=" stroke:none;fill-rule:nonzero;fill:#000000;fill-opacity:1;" d="M 202.011719 62.019531 C 202.011719 62.027344 197.085938 68.871094 206.105469 74.226562 C 206.101562 74.238281 211.136719 67.6875 202.011719 62.019531 "/><path style=" stroke:none;fill-rule:nonzero;fill:#000000;fill-opacity:1;" d="M 86.707031 76.410156 C 86.714844 76.445312 84.664062 84.625 94.796875 84.570312 C 94.800781 84.605469 97.015625 76.375 86.707031 76.410156 "/><path style=" stroke:none;fill-rule:nonzero;fill:#000000;fill-opacity:1;" d="M 176.945312 86.644531 C 176.945312 86.613281 167.515625 87.390625 168.085938 96.722656 C 168.085938 96.699219 177.292969 96.167969 176.945312 86.644531 "/><path style=" stroke:none;fill-rule:nonzero;fill:#000000;fill-opacity:1;" d="M 221.152344 50.5 C 221.152344 50.464844 211.699219 50.203125 212.222656 59.566406 C 212.222656 59.535156 221.457031 59.984375 221.152344 50.5 "/><path style=" stroke:none;fill-rule:nonzero;fill:#000000;fill-opacity:1;" d="M 188.023438 87.382812 C 188.023438 87.363281 180.40625 88.316406 181.527344 95.867188 C 181.527344 95.851562 188.988281 95.113281 188.023438 87.382812 "/><path style=" stroke:none;fill-rule:nonzero;fill:#000000;fill-opacity:1;" d="M 188.089844 71.628906 C 188.089844 71.648438 187.695312 64.824219 179.023438 65.191406 C 179.023438 65.214844 179.210938 71.730469 188.089844 71.628906 "/><path style=" stroke:none;fill-rule:nonzero;fill:#000000;fill-opacity:1;" d="M 189.800781 79.769531 C 189.800781 79.789062 189.460938 73.839844 181.898438 74.113281 C 181.898438 74.128906 182.0625 79.832031 189.800781 79.769531 "/><path style=" stroke:none;fill-rule:nonzero;fill:#000000;fill-opacity:1;" d="M 192.652344 84.457031 C 192.652344 84.464844 190.703125 80.007812 185.050781 81.863281 C 185.050781 81.871094 186.824219 86.171875 192.652344 84.457031 "/><path style=" stroke:none;fill-rule:nonzero;fill:#000000;fill-opacity:1;" d="M 199.265625 94.867188 C 199.265625 94.878906 196.664062 88.882812 189.117188 91.285156 C 189.117188 91.304688 191.484375 97.054688 199.265625 94.867188 "/><path style=" stroke:none;fill-rule:nonzero;fill:#000000;fill-opacity:1;" d="M 182.71875 79.644531 C 182.714844 79.632812 175.636719 82.359375 178.945312 89.355469 C 178.945312 89.339844 185.933594 86.886719 182.71875 79.644531 "/><path style=" stroke:none;fill-rule:nonzero;fill:#000000;fill-opacity:1;" d="M 202.425781 51.664062 C 202.421875 51.679688 199.339844 57.6875 207.246094 61.207031 C 207.246094 61.21875 210.453125 55.410156 202.425781 51.664062 "/><g clip-rule="nonzero" clip-path="url(#7bf38fb029)"><path style=" stroke:none;fill-rule:nonzero;fill:#000000;fill-opacity:1;" d="M 177.757812 31.199219 C 177.757812 31.214844 174.679688 37.414062 182.621094 40.472656 C 182.617188 40.488281 185.820312 34.453125 177.757812 31.199219 "/></g><path style=" stroke:none;fill-rule:nonzero;fill:#000000;fill-opacity:1;" d="M 132.097656 42.363281 C 132.097656 42.382812 129.070312 48.878906 136.964844 50.988281 C 136.964844 51.003906 140.105469 44.632812 132.097656 42.363281 "/><path style=" stroke:none;fill-rule:nonzero;fill:#000000;fill-opacity:1;" d="M 173.816406 111.382812 C 173.816406 111.390625 179.585938 104.691406 171.269531 99.078125 C 171.265625 99.085938 165.449219 105.511719 173.816406 111.382812 "/><path style=" stroke:none;fill-rule:nonzero;fill:#000000;fill-opacity:1;" d="M 186.78125 63.027344 C 186.78125 63.058594 188.546875 54.816406 178.082031 53.058594 C 178.078125 53.085938 176.125 60.941406 186.78125 63.027344 "/><path style=" stroke:none;fill-rule:nonzero;fill:#000000;fill-opacity:1;" d="M 182.453125 104.980469 C 182.453125 104.960938 190.636719 104.582031 190.21875 96.488281 C 190.21875 96.46875 182.207031 96.652344 182.453125 104.980469 "/><path style=" stroke:none;fill-rule:nonzero;fill:#000000;fill-opacity:1;" d="M 150.34375 142.789062 C 150.34375 142.769531 158.472656 141.902344 158.03125 133.835938 C 158.03125 133.824219 150.070312 134.503906 150.34375 142.789062 "/><path style=" stroke:none;fill-rule:nonzero;fill:#000000;fill-opacity:1;" d="M 168.113281 74.195312 C 168.109375 74.171875 176.320312 73.535156 175.890625 65.453125 C 175.886719 65.429688 167.851562 65.882812 168.113281 74.195312 "/><path style=" stroke:none;fill-rule:nonzero;fill:#000000;fill-opacity:1;" d="M 173 50.574219 C 173 50.550781 181.230469 50.003906 180.804688 41.917969 C 180.804688 41.890625 172.746094 42.25 173 50.574219 "/><path style=" stroke:none;fill-rule:nonzero;fill:#000000;fill-opacity:1;" d="M 166.625 111.820312 C 166.621094 111.84375 162.757812 119.984375 173 123.652344 C 173 123.671875 177.023438 115.730469 166.625 111.820312 "/><path style=" stroke:none;fill-rule:nonzero;fill:#000000;fill-opacity:1;" d="M 156.035156 79.621094 C 156.03125 79.644531 152.171875 87.867188 162.445312 91.269531 C 162.445312 91.292969 166.46875 83.238281 156.035156 79.621094 "/><path style=" stroke:none;fill-rule:nonzero;fill:#000000;fill-opacity:1;" d="M 157.980469 71.09375 C 157.980469 71.117188 155.738281 78.207031 164.71875 80.09375 C 164.71875 80.113281 167.121094 73.128906 157.980469 71.09375 "/><path style=" stroke:none;fill-rule:nonzero;fill:#000000;fill-opacity:1;" d="M 198.195312 72.601562 C 198.191406 72.621094 194.289062 80.492188 204.5625 84.859375 C 204.558594 84.875 208.628906 77.246094 198.195312 72.601562 "/><path style=" stroke:none;fill-rule:nonzero;fill:#000000;fill-opacity:1;" d="M 199.902344 143.046875 C 199.898438 143.054688 195.015625 149.996094 203.957031 155.175781 C 203.957031 155.183594 208.945312 148.53125 199.902344 143.046875 "/><path style=" stroke:none;fill-rule:nonzero;fill:#000000;fill-opacity:1;" d="M 203.304688 135.746094 C 203.304688 135.753906 200.242188 141.8125 208.078125 145.210938 C 208.078125 145.21875 211.257812 139.363281 203.304688 135.746094 "/><path style=" stroke:none;fill-rule:nonzero;fill:#000000;fill-opacity:1;" d="M 196.121094 153.695312 C 196.117188 153.710938 192.246094 161.664062 202.429688 165.84375 C 202.429688 165.859375 206.464844 158.15625 196.121094 153.695312 "/><path style=" stroke:none;fill-rule:nonzero;fill:#000000;fill-opacity:1;" d="M 195.984375 165.988281 C 195.984375 166.003906 192.121094 173.964844 202.289062 178.121094 C 202.289062 178.132812 206.316406 170.425781 195.984375 165.988281 "/><path style=" stroke:none;fill-rule:nonzero;fill:#000000;fill-opacity:1;" d="M 189.132812 120.890625 C 189.132812 120.863281 179.234375 120.03125 178.042969 129.890625 C 178.042969 129.863281 187.667969 130.859375 189.132812 120.890625 "/><path style=" stroke:none;fill-rule:nonzero;fill:#000000;fill-opacity:1;" d="M 182.023438 114.855469 C 182.027344 114.835938 191.21875 117.230469 194.390625 108.246094 C 194.394531 108.226562 185.472656 105.5625 182.023438 114.855469 "/><path style=" stroke:none;fill-rule:nonzero;fill:#000000;fill-opacity:1;" d="M 208.816406 95.675781 C 208.820312 95.65625 217.988281 98.640625 221.273438 89.9375 C 221.277344 89.917969 212.386719 86.644531 208.816406 95.675781 "/><path style=" stroke:none;fill-rule:nonzero;fill:#000000;fill-opacity:1;" d="M 212.136719 86.277344 C 212.136719 86.25 221.683594 87.78125 222.925781 78.550781 C 222.929688 78.523438 213.625 76.730469 212.136719 86.277344 "/><path style=" stroke:none;fill-rule:nonzero;fill:#000000;fill-opacity:1;" d="M 212.515625 75.855469 C 212.515625 75.832031 222.015625 77.761719 223.746094 68.648438 C 223.75 68.621094 214.496094 66.414062 212.515625 75.855469 "/><path style=" stroke:none;fill-rule:nonzero;fill:#000000;fill-opacity:1;" d="M 213.292969 66.742188 C 213.296875 66.714844 222.804688 68.691406 224.535156 59.585938 C 224.539062 59.5625 215.28125 57.308594 213.292969 66.742188 "/><path style=" stroke:none;fill-rule:nonzero;fill:#000000;fill-opacity:1;" d="M 248.933594 45.871094 C 248.929688 45.835938 240.023438 50.277344 246.414062 60.753906 C 246.414062 60.71875 255.25 56.753906 248.933594 45.871094 "/><path style=" stroke:none;fill-rule:nonzero;fill:#000000;fill-opacity:1;" d="M 239.484375 105.308594 C 239.488281 105.316406 231.867188 98.8125 223.601562 104.988281 C 223.601562 105.003906 230.871094 111.152344 239.484375 105.308594 "/><path style=" stroke:none;fill-rule:nonzero;fill:#000000;fill-opacity:1;" d="M 233.300781 111.902344 C 233.308594 111.902344 224.730469 106.617188 217.859375 114.132812 C 217.859375 114.140625 226.082031 119.167969 233.300781 111.902344 "/><path style=" stroke:none;fill-rule:nonzero;fill:#000000;fill-opacity:1;" d="M 222.523438 119.328125 C 222.527344 119.324219 213.605469 114.773438 207.390625 122.90625 C 207.394531 122.902344 215.960938 127.273438 222.523438 119.328125 "/><path style=" stroke:none;fill-rule:nonzero;fill:#000000;fill-opacity:1;" d="M 235.769531 64.433594 C 235.769531 64.414062 228.535156 68.851562 235.234375 76.777344 C 235.234375 76.761719 242.453125 72.703125 235.769531 64.433594 "/><path style=" stroke:none;fill-rule:nonzero;fill:#000000;fill-opacity:1;" d="M 256.789062 63.75 C 256.792969 63.730469 248.410156 60.3125 245.71875 68.132812 C 245.71875 68.117188 253.847656 71.472656 256.789062 63.75 "/><path style=" stroke:none;fill-rule:nonzero;fill:#000000;fill-opacity:1;" d="M 239.949219 55.378906 C 239.949219 55.375 234.785156 59.621094 241.089844 65.574219 C 241.085938 65.566406 246.28125 61.621094 239.949219 55.378906 "/><path style=" stroke:none;fill-rule:nonzero;fill:#000000;fill-opacity:1;" d="M 258.765625 102.699219 C 258.765625 102.683594 252.445312 105.417969 257.113281 112.332031 C 257.113281 112.316406 263.390625 109.867188 258.765625 102.699219 "/><path style=" stroke:none;fill-rule:nonzero;fill:#000000;fill-opacity:1;" d="M 264.902344 97.367188 C 264.902344 97.347656 258.589844 99.953125 263.25 106.925781 C 263.25 106.910156 269.519531 104.589844 264.902344 97.367188 "/><g clip-rule="nonzero" clip-path="url(#c6d3b85e51)"><path style=" stroke:none;fill-rule:nonzero;fill:#000000;fill-opacity:1;" d="M 198.117188 31.011719 C 198.117188 31.011719 193.0625 35.707031 199.277344 40.957031 C 199.277344 40.953125 204.363281 36.53125 198.117188 31.011719 "/></g><path style=" stroke:none;fill-rule:nonzero;fill:#000000;fill-opacity:1;" d="M 282.523438 73.128906 C 282.527344 73.097656 274.097656 73.402344 276.894531 82.246094 C 276.898438 82.214844 285.183594 82.140625 282.523438 73.128906 "/><path style=" stroke:none;fill-rule:nonzero;fill:#000000;fill-opacity:1;" d="M 287.585938 118.726562 C 287.585938 118.714844 282.640625 122.335938 288.636719 128.398438 C 288.636719 128.382812 293.601562 125.066406 287.585938 118.726562 "/><path style=" stroke:none;fill-rule:nonzero;fill:#000000;fill-opacity:1;" d="M 312.78125 130.84375 C 312.785156 130.832031 305.582031 128.378906 304.695312 135.089844 C 304.699219 135.078125 311.71875 137.519531 312.78125 130.84375 "/><path style=" stroke:none;fill-rule:nonzero;fill:#000000;fill-opacity:1;" d="M 305.289062 100.507812 C 305.296875 100.480469 296.703125 97.890625 296.21875 106.089844 C 296.222656 106.070312 304.609375 108.664062 305.289062 100.507812 "/><path style=" stroke:none;fill-rule:nonzero;fill:#000000;fill-opacity:1;" d="M 296.863281 87.710938 C 296.867188 87.683594 288.59375 86.652344 289.914062 95.007812 C 289.921875 94.976562 298.019531 96.140625 296.863281 87.710938 "/><path style=" stroke:none;fill-rule:nonzero;fill:#000000;fill-opacity:1;" d="M 309.617188 138.777344 C 309.621094 138.777344 302.949219 134.738281 299.675781 140.425781 C 299.679688 140.429688 306.140625 144.332031 309.617188 138.777344 "/><path style=" stroke:none;fill-rule:nonzero;fill:#000000;fill-opacity:1;" d="M 297.535156 128.789062 C 297.539062 128.769531 290.769531 129.625 293.738281 136.8125 C 293.742188 136.789062 300.40625 136.144531 297.535156 128.789062 "/><path style=" stroke:none;fill-rule:nonzero;fill:#000000;fill-opacity:1;" d="M 271.574219 64.445312 C 271.574219 64.433594 266.117188 67.597656 271.648438 74.09375 C 271.648438 74.082031 277.101562 71.214844 271.574219 64.445312 "/><path style=" stroke:none;fill-rule:nonzero;fill:#000000;fill-opacity:1;" d="M 258.191406 54.316406 C 258.195312 54.292969 250.839844 53.972656 252.015625 61.378906 C 252.019531 61.355469 259.222656 61.828125 258.191406 54.316406 "/><path style=" stroke:none;fill-rule:nonzero;fill:#000000;fill-opacity:1;" d="M 289.898438 134.589844 C 289.902344 134.570312 283.117188 135.59375 286.09375 142.761719 C 286.097656 142.742188 292.785156 141.925781 289.898438 134.589844 "/><path style=" stroke:none;fill-rule:nonzero;fill:#000000;fill-opacity:1;" d="M 300.480469 152.367188 C 300.476562 152.386719 296.171875 146.433594 289.503906 149.269531 C 289.503906 149.289062 293.585938 155 300.480469 152.367188 "/><path style=" stroke:none;fill-rule:nonzero;fill:#000000;fill-opacity:1;" d="M 294.632812 157.988281 C 294.632812 158.007812 291.914062 151.640625 284.25 152.847656 C 284.25 152.871094 286.753906 158.992188 294.632812 157.988281 "/><path style=" stroke:none;fill-rule:nonzero;fill:#000000;fill-opacity:1;" d="M 282.320312 168.386719 C 282.316406 168.40625 279.585938 162.070312 271.894531 163.5625 C 271.894531 163.578125 274.40625 169.683594 282.320312 168.386719 "/><path style=" stroke:none;fill-rule:nonzero;fill:#000000;fill-opacity:1;" d="M 294.277344 170.320312 C 294.273438 170.339844 291.558594 164.011719 283.898438 165.3125 C 283.894531 165.332031 286.398438 171.429688 294.277344 170.320312 "/><path style=" stroke:none;fill-rule:nonzero;fill:#000000;fill-opacity:1;" d="M 305.292969 155.1875 C 305.296875 155.171875 298.035156 153.824219 298.175781 160.859375 C 298.179688 160.84375 305.273438 162.253906 305.292969 155.1875 "/><path style=" stroke:none;fill-rule:nonzero;fill:#000000;fill-opacity:1;" d="M 307.109375 167.046875 C 307.109375 167.058594 301.679688 161.8125 296.1875 165.976562 C 296.1875 165.992188 301.394531 171.035156 307.109375 167.046875 "/><path style=" stroke:none;fill-rule:nonzero;fill:#000000;fill-opacity:1;" d="M 305.664062 145.375 C 305.667969 145.382812 299.570312 140.617188 295.046875 145.535156 C 295.046875 145.542969 300.921875 150.132812 305.664062 145.375 "/><path style=" stroke:none;fill-rule:nonzero;fill:#000000;fill-opacity:1;" d="M 261.84375 150.734375 C 261.84375 150.75 257.894531 144.769531 250.832031 147.78125 C 250.832031 147.796875 254.542969 153.554688 261.84375 150.734375 "/><path style=" stroke:none;fill-rule:nonzero;fill:#000000;fill-opacity:1;" d="M 269.632812 148.507812 C 269.632812 148.519531 265.710938 142.496094 258.644531 145.355469 C 258.644531 145.375 262.335938 151.167969 269.632812 148.507812 "/><path style=" stroke:none;fill-rule:nonzero;fill:#000000;fill-opacity:1;" d="M 275.964844 144.601562 C 275.964844 144.617188 272.414062 139.121094 266.011719 141.585938 C 266.011719 141.605469 269.355469 146.894531 275.964844 144.601562 "/><path style=" stroke:none;fill-rule:nonzero;fill:#000000;fill-opacity:1;" d="M 278.449219 138.605469 C 278.449219 138.609375 274.371094 135.433594 271.113281 138.863281 C 271.117188 138.867188 275.027344 141.96875 278.449219 138.605469 "/><path style=" stroke:none;fill-rule:nonzero;fill:#000000;fill-opacity:1;" d="M 261.335938 129.632812 C 261.335938 129.605469 253.050781 132.195312 257.730469 140.980469 C 257.730469 140.949219 265.921875 138.691406 261.335938 129.632812 "/><path style=" stroke:none;fill-rule:nonzero;fill:#000000;fill-opacity:1;" d="M 268.242188 127.421875 C 268.242188 127.402344 261.566406 129.480469 265.492188 136.625 C 265.492188 136.609375 272.097656 134.789062 268.242188 127.421875 "/><path style=" stroke:none;fill-rule:nonzero;fill:#000000;fill-opacity:1;" d="M 252.621094 132.53125 C 252.621094 132.515625 245.921875 134.855469 249.871094 141.933594 C 249.871094 141.917969 256.5 139.835938 252.621094 132.53125 "/><path style=" stroke:none;fill-rule:nonzero;fill:#000000;fill-opacity:1;" d="M 224.035156 83.265625 C 224.03125 83.261719 218.871094 87.792969 225.1875 93.46875 C 225.183594 93.460938 230.378906 89.214844 224.035156 83.265625 "/><path style=" stroke:none;fill-rule:nonzero;fill:#000000;fill-opacity:1;" d="M 210.277344 98.128906 C 210.273438 98.125 205.121094 102.855469 211.441406 108.332031 C 211.441406 108.328125 216.628906 103.878906 210.277344 98.128906 "/><path style=" stroke:none;fill-rule:nonzero;fill:#000000;fill-opacity:1;" d="M 228.25 72.589844 C 228.246094 72.582031 221.621094 78.425781 229.875 85.820312 C 229.871094 85.8125 236.542969 80.359375 228.25 72.589844 "/><path style=" stroke:none;fill-rule:nonzero;fill:#000000;fill-opacity:1;" d="M 230.777344 97.203125 C 230.78125 97.207031 238.542969 102.8125 244.914062 96.117188 C 244.917969 96.125 237.496094 90.210938 230.777344 97.203125 "/><path style=" stroke:none;fill-rule:nonzero;fill:#000000;fill-opacity:1;" d="M 211.796875 141.515625 C 211.800781 141.472656 224.476562 139.394531 221.054688 126.625 C 221.058594 126.578125 208.574219 128.359375 211.796875 141.515625 "/><path style=" stroke:none;fill-rule:nonzero;fill:#000000;fill-opacity:1;" d="M 267.3125 106.964844 C 267.320312 106.925781 280.066406 111.183594 282.742188 99.570312 C 282.753906 99.535156 270.371094 94.773438 267.3125 106.964844 "/><path style=" stroke:none;fill-rule:nonzero;fill:#000000;fill-opacity:1;" d="M 277.320312 95.484375 C 277.332031 95.417969 290.109375 96.785156 288.328125 84.105469 C 288.335938 84.039062 275.792969 82.324219 277.320312 95.484375 "/><path style=" stroke:none;fill-rule:nonzero;fill:#000000;fill-opacity:1;" d="M 272.410156 135.339844 C 272.414062 135.285156 284.757812 134.253906 280.6875 121.539062 C 280.695312 121.484375 268.523438 122.210938 272.410156 135.339844 "/><path style=" stroke:none;fill-rule:nonzero;fill:#000000;fill-opacity:1;" d="M 292.648438 127.625 C 292.652344 127.59375 301.71875 127.3125 298.734375 117.90625 C 298.738281 117.871094 289.800781 117.929688 292.648438 127.625 "/><path style=" stroke:none;fill-rule:nonzero;fill:#000000;fill-opacity:1;" d="M 276.28125 120.097656 C 276.28125 120.066406 285.414062 119.464844 282.40625 110.011719 C 282.410156 109.976562 273.402344 110.359375 276.28125 120.097656 "/><path style=" stroke:none;fill-rule:nonzero;fill:#000000;fill-opacity:1;" d="M 304.765625 128.121094 C 304.773438 128.054688 315.5625 126.160156 309.386719 114.164062 C 309.394531 114.097656 298.679688 115.800781 304.765625 128.121094 "/><path style=" stroke:none;fill-rule:nonzero;fill:#000000;fill-opacity:1;" d="M 261.226562 77.078125 C 261.226562 77.039062 270.953125 72.222656 262.332031 60.996094 C 262.332031 60.957031 252.617188 65.589844 261.226562 77.078125 "/><path style=" stroke:none;fill-rule:nonzero;fill:#000000;fill-opacity:1;" d="M 215.660156 48.238281 C 215.660156 48.203125 224.785156 46.828125 222.050781 37.617188 C 222.054688 37.585938 213.070312 38.765625 215.660156 48.238281 "/><path style=" stroke:none;fill-rule:nonzero;fill:#000000;fill-opacity:1;" d="M 239.957031 52.949219 C 239.949219 52.960938 244.367188 46.324219 235.035156 40.640625 C 235.03125 40.648438 230.515625 47.019531 239.957031 52.949219 "/><path style=" stroke:none;fill-rule:nonzero;fill:#000000;fill-opacity:1;" d="M 246.089844 97.042969 C 246.097656 97 258.941406 100.753906 261.628906 88.820312 C 261.636719 88.777344 249.148438 84.546875 246.089844 97.042969 "/><path style=" stroke:none;fill-rule:nonzero;fill:#000000;fill-opacity:1;" d="M 235.464844 88.914062 C 235.464844 88.917969 242.65625 94.203125 248.558594 88.09375 C 248.5625 88.097656 241.6875 82.542969 235.464844 88.914062 "/><path style=" stroke:none;fill-rule:nonzero;fill:#000000;fill-opacity:1;" d="M 240.472656 81.605469 C 240.476562 81.601562 248.34375 86.121094 252.996094 79.253906 C 252.996094 79.253906 245.429688 74.445312 240.472656 81.605469 "/><path style=" stroke:none;fill-rule:nonzero;fill:#000000;fill-opacity:1;" d="M 262.683594 78.054688 C 262.6875 78.023438 254.027344 77.96875 255.777344 86.753906 C 255.777344 86.722656 264.265625 86.972656 262.683594 78.054688 "/><path style=" stroke:none;fill-rule:nonzero;fill:#000000;fill-opacity:1;" d="M 284.535156 108.492188 C 284.546875 108.429688 297.144531 110.03125 295.261719 97.601562 C 295.273438 97.539062 282.902344 95.589844 284.535156 108.492188 "/><path style=" stroke:none;fill-rule:nonzero;fill:#000000;fill-opacity:1;" d="M 287.890625 116.144531 C 287.898438 116.117188 299.980469 120.652344 302.191406 109.769531 C 302.203125 109.742188 290.472656 104.722656 287.890625 116.144531 "/><path style=" stroke:none;fill-rule:nonzero;fill:#000000;fill-opacity:1;" d="M 244.246094 74.355469 C 244.25 74.347656 252.117188 78.964844 256.765625 72.179688 C 256.769531 72.175781 249.207031 67.277344 244.246094 74.355469 "/><path style=" stroke:none;fill-rule:nonzero;fill:#000000;fill-opacity:1;" d="M 222.007812 141.894531 C 222.007812 141.882812 214.539062 140.328125 213.011719 147.664062 C 213.015625 147.65625 220.265625 149.289062 222.007812 141.894531 "/><path style=" stroke:none;fill-rule:nonzero;fill:#000000;fill-opacity:1;" d="M 210.335938 162.621094 C 210.339844 162.605469 219.113281 164.71875 221.457031 156.203125 C 221.460938 156.1875 212.933594 153.828125 210.335938 162.621094 "/><path style=" stroke:none;fill-rule:nonzero;fill:#000000;fill-opacity:1;" d="M 210.695312 169.53125 C 210.695312 169.523438 219.3125 172.878906 223.277344 164.617188 C 223.277344 164.613281 214.945312 161.003906 210.695312 169.53125 "/><path style=" stroke:none;fill-rule:nonzero;fill:#000000;fill-opacity:1;" d="M 211.449219 154.519531 C 211.453125 154.507812 218.96875 156.316406 220.9375 149.023438 C 220.9375 149.011719 213.636719 147.003906 211.449219 154.519531 "/><path style=" stroke:none;fill-rule:nonzero;fill:#000000;fill-opacity:1;" d="M 255.660156 100.398438 C 255.664062 100.390625 248.816406 96.800781 245.398438 103.074219 C 245.402344 103.066406 252.011719 106.578125 255.660156 100.398438 "/><path style=" stroke:none;fill-rule:nonzero;fill:#000000;fill-opacity:1;" d="M 243.765625 110.460938 C 243.769531 110.460938 250.46875 114.363281 254.5625 108.464844 C 254.566406 108.464844 248.125 104.351562 243.765625 110.460938 "/><path style=" stroke:none;fill-rule:nonzero;fill:#000000;fill-opacity:1;" d="M 261.894531 113.058594 C 261.898438 113.058594 268.558594 117.175781 272.632812 111.519531 C 272.636719 111.523438 266.238281 107.191406 261.894531 113.058594 "/><path style=" stroke:none;fill-rule:nonzero;fill:#000000;fill-opacity:1;" d="M 258.78125 118.222656 C 258.785156 118.230469 264.925781 122.921875 269.945312 117.878906 C 269.945312 117.886719 264.078125 112.996094 258.78125 118.222656 "/><path style=" stroke:none;fill-rule:nonzero;fill:#000000;fill-opacity:1;" d="M 255.027344 124.476562 C 255.03125 124.484375 261.179688 129.113281 266.199219 123.988281 C 266.203125 123.996094 260.328125 119.175781 255.027344 124.476562 "/><path style=" stroke:none;fill-rule:nonzero;fill:#000000;fill-opacity:1;" d="M 228.058594 119.1875 C 228.058594 119.199219 227.792969 125.792969 236.335938 126.941406 C 236.332031 126.957031 236.808594 120.46875 228.058594 119.1875 "/><path style=" stroke:none;fill-rule:nonzero;fill:#000000;fill-opacity:1;" d="M 227.191406 127.152344 C 227.191406 127.175781 226.875 135 237.015625 136.328125 C 237.015625 136.351562 237.582031 128.632812 227.191406 127.152344 "/><path style=" stroke:none;fill-rule:nonzero;fill:#000000;fill-opacity:1;" d="M 241.632812 118.738281 C 241.636719 118.730469 248.925781 121.394531 251.382812 114.632812 C 251.386719 114.625 244.324219 111.746094 241.632812 118.738281 "/><path style=" stroke:none;fill-rule:nonzero;fill:#000000;fill-opacity:1;" d="M 50.015625 141.519531 C 50.035156 141.59375 49.902344 153.527344 66.171875 151.542969 C 66.1875 151.625 66.570312 139.125 50.015625 141.519531 "/><path style=" stroke:none;fill-rule:nonzero;fill:#000000;fill-opacity:1;" d="M 90.75 84.804688 C 90.746094 84.824219 80.5 95.15625 89.707031 104.328125 C 89.703125 104.347656 99.953125 94.523438 90.75 84.804688 "/><path style=" stroke:none;fill-rule:nonzero;fill:#000000;fill-opacity:1;" d="M 270.511719 76.390625 C 270.511719 76.335938 260.035156 82.394531 269.140625 95.394531 C 269.140625 95.335938 279.570312 89.953125 270.511719 76.390625 "/><path style=" stroke:none;fill-rule:nonzero;fill:#000000;fill-opacity:1;" d="M 229.851562 45.804688 C 229.84375 45.765625 219.25 52.902344 228.519531 65.378906 C 228.519531 65.335938 239.082031 58.863281 229.851562 45.804688 "/><path style=" stroke:none;fill-rule:nonzero;fill:#000000;fill-opacity:1;" d="M 111.789062 62.550781 C 111.789062 62.550781 105.621094 68.09375 110.570312 73.898438 C 110.566406 73.898438 116.71875 68.65625 111.789062 62.550781 "/><path style=" stroke:none;fill-rule:nonzero;fill:#000000;fill-opacity:1;" d="M 111.960938 56.894531 C 111.960938 56.921875 110.695312 63.960938 119.5 64.71875 C 119.5 64.746094 120.933594 57.707031 111.960938 56.894531 "/><path style=" stroke:none;fill-rule:nonzero;fill:#000000;fill-opacity:1;" d="M 122.792969 48.175781 C 122.789062 48.214844 115.007812 59.554688 127.261719 66.863281 C 127.261719 66.902344 135.171875 55.90625 122.792969 48.175781 "/><path style=" stroke:none;fill-rule:nonzero;fill:#000000;fill-opacity:1;" d="M 60.957031 112.121094 C 60.96875 112.15625 62.660156 121.027344 75.464844 117.582031 C 75.476562 117.628906 74.03125 108.351562 60.957031 112.121094 "/><path style=" stroke:none;fill-rule:nonzero;fill:#000000;fill-opacity:1;" d="M 109.601562 127.242188 C 109.609375 127.28125 109.140625 136.75 121.433594 136.988281 C 121.441406 137.027344 122.160156 127.449219 109.601562 127.242188 "/><path style=" stroke:none;fill-rule:nonzero;fill:#000000;fill-opacity:1;" d="M 100.523438 64.941406 C 100.519531 64.984375 91.324219 76.726562 103.042969 84.816406 C 103.039062 84.859375 112.320312 73.523438 100.523438 64.941406 "/><path style=" stroke:none;fill-rule:nonzero;fill:#000000;fill-opacity:1;" d="M 52.199219 157.804688 C 52.210938 157.824219 57 168.015625 73.023438 161.632812 C 73.039062 161.667969 68.574219 150.800781 52.199219 157.804688 "/><path style=" stroke:none;fill-rule:nonzero;fill:#000000;fill-opacity:1;" d="M 70.785156 137.871094 C 70.792969 137.949219 65.019531 150.417969 79.285156 154.769531 C 79.289062 154.84375 85.242188 142.351562 70.785156 137.871094 "/><path style=" stroke:none;fill-rule:nonzero;fill:#000000;fill-opacity:1;" d="M 117.644531 146.832031 C 117.644531 146.847656 119.777344 154.484375 130.015625 151.484375 C 130.019531 151.503906 128.152344 143.734375 117.644531 146.832031 "/><path style=" stroke:none;fill-rule:nonzero;fill:#000000;fill-opacity:1;" d="M 119.347656 89.359375 C 119.34375 89.359375 111.808594 95.792969 118.578125 102.316406 C 118.574219 102.320312 126.105469 96.234375 119.347656 89.359375 "/><path style=" stroke:none;fill-rule:nonzero;fill:#000000;fill-opacity:1;" d="M 112.378906 162.925781 C 112.382812 162.945312 109.363281 154.015625 97.574219 158.59375 C 97.578125 158.613281 100.210938 167.101562 112.378906 162.925781 "/><path style=" stroke:none;fill-rule:nonzero;fill:#000000;fill-opacity:1;" d="M 113.742188 83.128906 C 113.738281 83.128906 107.175781 88.425781 112.535156 94.074219 C 112.535156 94.074219 119.078125 89.074219 113.742188 83.128906 "/><path style=" stroke:none;fill-rule:nonzero;fill:#000000;fill-opacity:1;" d="M 127.128906 74.972656 C 127.136719 74.996094 124.097656 67.523438 114.09375 72.015625 C 114.101562 72.039062 116.796875 79.113281 127.128906 74.972656 "/><path style=" stroke:none;fill-rule:nonzero;fill:#000000;fill-opacity:1;" d="M 132.46875 83.84375 C 132.46875 83.863281 129.4375 76.332031 119.421875 80.652344 C 119.425781 80.675781 122.125 87.820312 132.46875 83.84375 "/><path style=" stroke:none;fill-rule:nonzero;fill:#000000;fill-opacity:1;" d="M 138.050781 90.464844 C 138.054688 90.472656 135.929688 85.164062 128.894531 88.027344 C 128.898438 88.035156 130.792969 93.140625 138.050781 90.464844 "/><path style=" stroke:none;fill-rule:nonzero;fill:#000000;fill-opacity:1;" d="M 144.695312 87.347656 C 144.691406 87.347656 149.644531 83.09375 144.789062 78.566406 C 144.785156 78.566406 139.84375 82.644531 144.695312 87.347656 "/><path style=" stroke:none;fill-rule:nonzero;fill:#000000;fill-opacity:1;" d="M 152.816406 122.757812 C 152.816406 122.761719 157.757812 118.625 152.914062 113.964844 C 152.914062 113.964844 147.976562 117.914062 152.816406 122.757812 "/><path style=" stroke:none;fill-rule:nonzero;fill:#000000;fill-opacity:1;" d="M 236.78125 144.164062 C 236.78125 144.175781 237.808594 138.5625 230.519531 136.867188 C 230.519531 136.875 229.359375 142.285156 236.78125 144.164062 "/><path style=" stroke:none;fill-rule:nonzero;fill:#000000;fill-opacity:1;" d="M 144.460938 96.558594 C 144.460938 96.570312 142.34375 91.214844 135.296875 93.960938 C 135.296875 93.972656 137.195312 99.121094 144.460938 96.558594 "/><path style=" stroke:none;fill-rule:nonzero;fill:#000000;fill-opacity:1;" d="M 135.425781 76.476562 C 135.425781 76.480469 139.519531 72.058594 134.484375 68.535156 C 134.480469 68.539062 130.371094 72.777344 135.425781 76.476562 "/><path style=" stroke:none;fill-rule:nonzero;fill:#000000;fill-opacity:1;" d="M 140.710938 100.757812 C 140.710938 100.761719 143.652344 105.15625 149.695312 101.867188 C 149.699219 101.875 146.960938 97.390625 140.710938 100.757812 "/><path style=" stroke:none;fill-rule:nonzero;fill:#000000;fill-opacity:1;" d="M 139.15625 81.71875 C 139.152344 81.714844 144.328125 78.378906 140.757812 73.582031 C 140.753906 73.578125 135.625 76.753906 139.15625 81.71875 "/><path style=" stroke:none;fill-rule:nonzero;fill:#000000;fill-opacity:1;" d="M 100.421875 114.542969 C 100.417969 114.535156 92.214844 119.035156 96.015625 126.445312 C 96.007812 126.4375 104.121094 122.296875 100.421875 114.542969 "/><path style=" stroke:none;fill-rule:nonzero;fill:#000000;fill-opacity:1;" d="M 104.464844 122.417969 C 104.460938 122.40625 96.246094 126.800781 100.050781 134.285156 C 100.042969 134.273438 108.164062 130.238281 104.464844 122.417969 "/><path style=" stroke:none;fill-rule:nonzero;fill:#000000;fill-opacity:1;" d="M 106.101562 131.621094 C 106.101562 131.625 100.203125 136.246094 104.921875 141.394531 C 104.921875 141.394531 110.796875 137.027344 106.101562 131.621094 "/><path style=" stroke:none;fill-rule:nonzero;fill:#000000;fill-opacity:1;" d="M 80.613281 166.488281 C 80.617188 166.484375 76.847656 161.8125 69.902344 166.765625 C 69.90625 166.761719 73.394531 171.316406 80.613281 166.488281 "/><path style=" stroke:none;fill-rule:nonzero;fill:#000000;fill-opacity:1;" d="M 99.359375 174.238281 C 99.363281 174.234375 95.574219 169.328125 88.582031 174.046875 C 88.585938 174.046875 92.09375 178.824219 99.359375 174.238281 "/><path style=" stroke:none;fill-rule:nonzero;fill:#000000;fill-opacity:1;" d="M 87.269531 161.464844 C 87.269531 161.476562 90.386719 155.222656 83.09375 153.402344 C 83.09375 153.417969 79.878906 159.398438 87.269531 161.464844 "/><path style=" stroke:none;fill-rule:nonzero;fill:#000000;fill-opacity:1;" d="M 94.875 164.632812 C 94.875 164.648438 98.003906 158.417969 90.6875 156.449219 C 90.691406 156.464844 87.464844 162.425781 94.875 164.632812 "/><path style=" stroke:none;fill-rule:nonzero;fill:#000000;fill-opacity:1;" d="M 97.019531 146.535156 C 97.023438 146.542969 93.578125 139.878906 84.332031 144.859375 C 84.335938 144.867188 87.445312 151.25 97.019531 146.535156 "/><path style=" stroke:none;fill-rule:nonzero;fill:#000000;fill-opacity:1;" d="M 97.125 106.238281 C 97.121094 106.234375 90.257812 110.359375 93.792969 116.445312 C 93.789062 116.4375 100.582031 112.613281 97.125 106.238281 "/><path style=" stroke:none;fill-rule:nonzero;fill:#000000;fill-opacity:1;" d="M 120.972656 167.980469 C 120.972656 167.980469 117.164062 163.25 110.597656 167.734375 C 110.601562 167.734375 114.152344 172.34375 120.972656 167.980469 "/><path style=" stroke:none;fill-rule:nonzero;fill:#000000;fill-opacity:1;" d="M 120.289062 213.027344 C 120.292969 213.027344 116.492188 208.226562 109.949219 212.542969 C 109.953125 212.542969 113.496094 217.25 120.289062 213.027344 "/><path style=" stroke:none;fill-rule:nonzero;fill:#000000;fill-opacity:1;" d="M 70.886719 130.539062 C 70.890625 130.554688 71.886719 136.683594 80.289062 134.035156 C 80.296875 134.054688 79.484375 127.804688 70.886719 130.539062 "/><path style=" stroke:none;fill-rule:nonzero;fill:#000000;fill-opacity:1;" d="M 111.332031 74.941406 C 111.328125 74.929688 103.949219 78.910156 107.292969 85.601562 C 107.292969 85.589844 114.582031 81.929688 111.332031 74.941406 "/><path style=" stroke:none;fill-rule:nonzero;fill:#000000;fill-opacity:1;" d="M 159.257812 169.960938 C 159.257812 169.960938 153.382812 164.421875 145.992188 170.652344 C 145.992188 170.652344 151.542969 176.054688 159.257812 169.960938 "/><path style=" stroke:none;fill-rule:nonzero;fill:#000000;fill-opacity:1;" d="M 122.753906 180.660156 C 122.753906 180.660156 116.074219 185.101562 120.847656 191.324219 C 120.847656 191.328125 127.484375 187.164062 122.753906 180.660156 "/><path style=" stroke:none;fill-rule:nonzero;fill:#000000;fill-opacity:1;" d="M 130.128906 182.796875 C 130.128906 182.796875 124.972656 186.164062 128.652344 191.023438 C 128.648438 191.023438 133.773438 187.863281 130.128906 182.796875 "/><path style=" stroke:none;fill-rule:nonzero;fill:#000000;fill-opacity:1;" d="M 180.214844 137.421875 C 180.210938 137.410156 172.761719 140.210938 176.082031 147.605469 C 176.078125 147.59375 183.433594 145.074219 180.214844 137.421875 "/><path style=" stroke:none;fill-rule:nonzero;fill:#000000;fill-opacity:1;" d="M 112.703125 139.917969 C 112.707031 139.925781 115.425781 145.726562 123.425781 142.21875 C 123.425781 142.230469 120.9375 136.316406 112.703125 139.917969 "/><path style=" stroke:none;fill-rule:nonzero;fill:#000000;fill-opacity:1;" d="M 126.414062 155.726562 C 126.417969 155.738281 130.023438 163.386719 140.386719 159.125 C 140.390625 159.140625 137.085938 151.316406 126.414062 155.726562 "/><path style=" stroke:none;fill-rule:nonzero;fill:#000000;fill-opacity:1;" d="M 136.019531 163.816406 C 136.023438 163.820312 140.988281 170.902344 150.636719 165.511719 C 150.640625 165.523438 145.996094 158.246094 136.019531 163.816406 "/><path style=" stroke:none;fill-rule:nonzero;fill:#000000;fill-opacity:1;" d="M 159.898438 161.367188 C 159.894531 161.371094 166.621094 155.179688 159.1875 148.707031 C 159.183594 148.714844 152.449219 154.632812 159.898438 161.367188 "/><path style=" stroke:none;fill-rule:nonzero;fill:#000000;fill-opacity:1;" d="M 149.515625 156.5 C 149.511719 156.511719 155.449219 149.550781 147.140625 144.082031 C 147.140625 144.089844 141.160156 150.753906 149.515625 156.5 "/><path style=" stroke:none;fill-rule:nonzero;fill:#000000;fill-opacity:1;" d="M 140.078125 150.003906 C 140.078125 150.011719 145.632812 143.828125 138.382812 138.816406 C 138.382812 138.828125 132.800781 144.746094 140.078125 150.003906 "/><path style=" stroke:none;fill-rule:nonzero;fill:#000000;fill-opacity:1;" d="M 131.132812 143.644531 C 131.132812 143.65625 136.320312 137.15625 128.753906 132.691406 C 128.753906 132.703125 123.515625 138.925781 131.132812 143.644531 "/><path style=" stroke:none;fill-rule:nonzero;fill:#000000;fill-opacity:1;" d="M 145.777344 119.703125 C 145.777344 119.714844 152.535156 112.21875 143.710938 106.121094 C 143.710938 106.132812 136.917969 113.316406 145.777344 119.703125 "/><path style=" stroke:none;fill-rule:nonzero;fill:#000000;fill-opacity:1;" d="M 134.792969 113.207031 C 134.789062 113.214844 142.058594 106.476562 134.449219 99.972656 C 134.449219 99.976562 127.183594 106.4375 134.792969 113.207031 "/><path style=" stroke:none;fill-rule:nonzero;fill:#000000;fill-opacity:1;" d="M 125.867188 107.070312 C 125.863281 107.070312 133.144531 101.441406 127.117188 94.90625 C 127.117188 94.90625 119.875 100.300781 125.867188 107.070312 "/><path style=" stroke:none;fill-rule:nonzero;fill:#000000;fill-opacity:1;" d="M 295.308594 173.191406 C 295.304688 173.226562 298.464844 181.957031 287.515625 182.347656 C 287.515625 182.382812 284.1875 173.632812 295.308594 173.191406 "/><path style=" stroke:none;fill-rule:nonzero;fill:#000000;fill-opacity:1;" d="M 304.921875 171.960938 C 304.917969 171.984375 307.9375 179.328125 298.902344 179.808594 C 298.898438 179.835938 295.753906 172.507812 304.921875 171.960938 "/><path style=" stroke:none;fill-rule:nonzero;fill:#000000;fill-opacity:1;" d="M 312.679688 168.289062 C 312.679688 168.3125 317.425781 175.292969 309.691406 177.484375 C 309.691406 177.507812 304.875 170.640625 312.679688 168.289062 "/><path style=" stroke:none;fill-rule:nonzero;fill:#000000;fill-opacity:1;" d="M 249.941406 177.832031 C 249.9375 177.863281 248.53125 168.234375 260.859375 169.234375 C 260.855469 169.265625 262.523438 178.433594 249.941406 177.832031 "/><path style=" stroke:none;fill-rule:nonzero;fill:#000000;fill-opacity:1;" d="M 264.640625 180.949219 C 264.632812 180.980469 262.160156 171.730469 273.707031 171.816406 C 273.703125 171.847656 276.402344 180.644531 264.640625 180.949219 "/><path style=" stroke:none;fill-rule:nonzero;fill:#000000;fill-opacity:1;" d="M 277.273438 181.917969 C 277.273438 181.949219 273.972656 173.589844 284.097656 172.792969 C 284.09375 172.824219 287.558594 180.789062 277.273438 181.917969 "/><path style=" stroke:none;fill-rule:nonzero;fill:#000000;fill-opacity:1;" d="M 135.050781 135.324219 C 135.054688 135.308594 143.578125 140.507812 151.308594 131.648438 C 151.3125 131.636719 143.128906 126.128906 135.050781 135.324219 "/><path style=" stroke:none;fill-rule:nonzero;fill:#000000;fill-opacity:1;" d="M 123.652344 129.804688 C 123.652344 129.789062 132.160156 134.757812 139.875 125.742188 C 139.878906 125.726562 131.703125 120.441406 123.652344 129.804688 "/><path style=" stroke:none;fill-rule:nonzero;fill:#000000;fill-opacity:1;" d="M 88.96875 152.253906 C 88.972656 152.253906 93.394531 158.835938 103.007812 153.179688 C 103.015625 153.1875 98.871094 146.375 88.96875 152.253906 "/><path style=" stroke:none;fill-rule:nonzero;fill:#000000;fill-opacity:1;" d="M 76.632812 171.453125 C 76.636719 171.441406 82.734375 176.675781 91.042969 169.480469 C 91.046875 169.472656 85.234375 164.019531 76.632812 171.453125 "/><path style=" stroke:none;fill-rule:nonzero;fill:#000000;fill-opacity:1;" d="M 50.273438 170.304688 C 50.273438 170.285156 56.296875 175.035156 64.519531 167.554688 C 64.519531 167.539062 58.769531 162.554688 50.273438 170.304688 "/><path style=" stroke:none;fill-rule:nonzero;fill:#000000;fill-opacity:1;" d="M 117.085938 123.046875 C 117.089844 123.035156 123.601562 126.710938 129.492188 119.691406 C 129.492188 119.683594 123.238281 115.800781 117.085938 123.046875 "/><path style=" stroke:none;fill-rule:nonzero;fill:#000000;fill-opacity:1;" d="M 107.90625 115.640625 C 107.90625 115.636719 113.074219 120.824219 120.894531 114.789062 C 120.898438 114.789062 115.996094 109.375 107.90625 115.640625 "/><path style=" stroke:none;fill-rule:nonzero;fill:#000000;fill-opacity:1;" d="M 94.242188 195.273438 C 94.246094 195.296875 92.773438 203.664062 103.410156 204.027344 C 103.414062 204.050781 105.085938 195.6875 94.242188 195.273438 "/><path style=" stroke:none;fill-rule:nonzero;fill:#000000;fill-opacity:1;" d="M 134.667969 201.507812 C 134.667969 201.523438 136.203125 194.359375 127.328125 193.433594 C 127.332031 193.453125 125.625 200.316406 134.667969 201.507812 "/><path style=" stroke:none;fill-rule:nonzero;fill:#000000;fill-opacity:1;" d="M 99.074219 208.558594 C 99.078125 208.546875 93.464844 204.4375 87.28125 210.675781 C 87.28125 210.664062 92.597656 214.753906 99.074219 208.558594 "/><path style=" stroke:none;fill-rule:nonzero;fill:#000000;fill-opacity:1;" d="M 148.710938 195.480469 C 148.710938 195.488281 151.886719 190.234375 145.5 187.351562 C 145.5 187.359375 142.253906 192.398438 148.710938 195.480469 "/><path style=" stroke:none;fill-rule:nonzero;fill:#000000;fill-opacity:1;" d="M 125.570312 203.433594 C 125.570312 203.457031 127.351562 195.214844 117.160156 194.28125 C 117.160156 194.300781 115.1875 202.179688 125.570312 203.433594 "/><path style=" stroke:none;fill-rule:nonzero;fill:#000000;fill-opacity:1;" d="M 114.957031 204.492188 C 114.957031 204.515625 116.671875 196.507812 106.773438 195.765625 C 106.777344 195.785156 104.871094 203.433594 114.957031 204.492188 "/><path style=" stroke:none;fill-rule:nonzero;fill:#000000;fill-opacity:1;" d="M 136.355469 190.015625 C 136.355469 190.027344 134.414062 196.757812 142.824219 198.28125 C 142.824219 198.292969 144.921875 191.671875 136.355469 190.015625 "/><path style=" stroke:none;fill-rule:nonzero;fill:#000000;fill-opacity:1;" d="M 81.566406 134.378906 C 81.574219 134.40625 82.386719 142.792969 93.671875 140.136719 C 93.675781 140.164062 93.105469 131.582031 81.566406 134.378906 "/><path style=" stroke:none;fill-rule:nonzero;fill:#000000;fill-opacity:1;" d="M 79.515625 125.90625 C 79.519531 125.933594 80.597656 133.738281 91.210938 130.800781 C 91.214844 130.824219 90.367188 122.824219 79.515625 125.90625 "/><path style=" stroke:none;fill-rule:nonzero;fill:#000000;fill-opacity:1;" d="M 78.3125 117.105469 C 78.316406 117.125 79.285156 124.132812 88.820312 121.371094 C 88.828125 121.398438 88.066406 114.230469 78.3125 117.105469 "/><path style=" stroke:none;fill-rule:nonzero;fill:#000000;fill-opacity:1;" d="M 81.34375 105.933594 C 81.34375 105.945312 79.527344 111.796875 86.644531 112.132812 C 86.648438 112.152344 88.578125 106.339844 81.34375 105.933594 "/><path style=" stroke:none;fill-rule:nonzero;fill:#000000;fill-opacity:1;" d="M 56.640625 124.660156 C 56.644531 124.667969 58.417969 129.511719 65.507812 126.074219 C 65.507812 126.078125 63.90625 121.109375 56.640625 124.660156 "/><path style=" stroke:none;fill-rule:nonzero;fill:#000000;fill-opacity:1;" d="M 101.378906 109.394531 C 101.378906 109.390625 106.539062 114.460938 114.34375 108.304688 C 114.347656 108.304688 109.445312 102.996094 101.378906 109.394531 "/><path style=" stroke:none;fill-rule:nonzero;fill:#000000;fill-opacity:1;" d="M 97.289062 99.65625 C 97.289062 99.671875 99.429688 106.417969 108.820312 102.863281 C 108.828125 102.882812 106.917969 95.945312 97.289062 99.65625 "/><path style=" stroke:none;fill-rule:nonzero;fill:#000000;fill-opacity:1;" d="M 68.785156 97.992188 C 68.792969 98.050781 64.519531 108.496094 76.882812 109.777344 C 76.890625 109.839844 81.324219 99.335938 68.785156 97.992188 "/><path style=" stroke:none;fill-rule:nonzero;fill:#000000;fill-opacity:1;" d="M 78.605469 86.230469 C 78.609375 86.261719 72.417969 94.65625 81.339844 98.652344 C 81.339844 98.679688 87.597656 90.492188 78.605469 86.230469 "/><path style=" stroke:none;fill-rule:nonzero;fill:#000000;fill-opacity:1;" d="M 96.117188 91.472656 C 96.121094 91.488281 97.148438 97.148438 104.832031 94.839844 C 104.835938 94.855469 103.988281 89.097656 96.117188 91.472656 "/><path style=" stroke:none;fill-rule:nonzero;fill:#000000;fill-opacity:1;" d="M 245.398438 198.6875 C 245.394531 198.691406 247.59375 193.222656 256.257812 196.363281 C 256.257812 196.367188 254.324219 201.648438 245.398438 198.6875 "/><path style=" stroke:none;fill-rule:nonzero;fill:#000000;fill-opacity:1;" d="M 252.042969 205.476562 C 252.042969 205.488281 251.988281 199.53125 261.042969 200.078125 C 261.039062 200.09375 261.3125 205.785156 252.042969 205.476562 "/><path style=" stroke:none;fill-rule:nonzero;fill:#000000;fill-opacity:1;" d="M 261.058594 206.984375 C 261.058594 206.996094 259.707031 201.070312 268.503906 200.171875 C 268.503906 200.1875 270.035156 205.828125 261.058594 206.984375 "/><path style=" stroke:none;fill-rule:nonzero;fill:#000000;fill-opacity:1;" d="M 270.414062 207.808594 C 270.410156 207.828125 268.097656 202.054688 276.476562 200.109375 C 276.476562 200.128906 278.929688 205.605469 270.414062 207.808594 "/><path style=" stroke:none;fill-rule:nonzero;fill:#000000;fill-opacity:1;" d="M 279.523438 206.621094 C 279.523438 206.640625 277.957031 200.765625 286.644531 199.867188 C 286.640625 199.886719 288.382812 205.460938 279.523438 206.621094 "/><path style=" stroke:none;fill-rule:nonzero;fill:#000000;fill-opacity:1;" d="M 288.320312 207.40625 C 288.316406 207.433594 287.542969 200.167969 298.554688 200.644531 C 298.546875 200.671875 299.582031 207.523438 288.320312 207.40625 "/><path style=" stroke:none;fill-rule:nonzero;fill:#000000;fill-opacity:1;" d="M 266.488281 225.464844 C 266.488281 225.4375 275.054688 220.921875 283.609375 231.523438 C 283.605469 231.492188 275.480469 236.113281 266.488281 225.464844 "/><path style=" stroke:none;fill-rule:nonzero;fill:#000000;fill-opacity:1;" d="M 237.722656 196.707031 C 237.726562 196.71875 234.214844 190.027344 241.847656 185.058594 C 241.851562 185.074219 245.445312 191.433594 237.722656 196.707031 "/><path style=" stroke:none;fill-rule:nonzero;fill:#000000;fill-opacity:1;" d="M 230.824219 200.804688 C 230.824219 200.808594 225.691406 195.609375 231.410156 188.019531 C 231.410156 188.027344 236.554688 192.921875 230.824219 200.804688 "/><path style=" stroke:none;fill-rule:nonzero;fill:#000000;fill-opacity:1;" d="M 263.546875 195.53125 C 263.546875 195.511719 253.886719 195.597656 254.398438 185.714844 C 254.402344 185.691406 263.855469 185.46875 263.546875 195.53125 "/><path style=" stroke:none;fill-rule:nonzero;fill:#000000;fill-opacity:1;" d="M 275.609375 196.523438 C 275.613281 196.5 265.976562 196.410156 266.496094 186.613281 C 266.5 186.589844 275.929688 186.558594 275.609375 196.523438 "/><g clip-rule="nonzero" clip-path="url(#48dff283e2)"><path style=" stroke:none;fill-rule:nonzero;fill:#000000;fill-opacity:1;" d="M 324.78125 170.21875 C 324.777344 170.253906 327.6875 178.402344 316.65625 177.324219 C 316.648438 177.363281 313.582031 169.105469 324.78125 170.21875 "/></g><path style=" stroke:none;fill-rule:nonzero;fill:#000000;fill-opacity:1;" d="M 322.496094 155.367188 C 322.484375 155.421875 323.945312 166.25 308.921875 162.25 C 308.910156 162.308594 307.214844 151.082031 322.496094 155.367188 "/><path style=" stroke:none;fill-rule:nonzero;fill:#000000;fill-opacity:1;" d="M 285.042969 195.890625 C 285.046875 195.878906 277.691406 195.675781 278.089844 188.253906 C 278.09375 188.234375 285.289062 188.332031 285.042969 195.890625 "/><path style=" stroke:none;fill-rule:nonzero;fill:#000000;fill-opacity:1;" d="M 297.011719 193.507812 C 297.011719 193.488281 289.535156 194.839844 287.757812 187.390625 C 287.757812 187.371094 295.03125 185.929688 297.011719 193.507812 "/><path style=" stroke:none;fill-rule:nonzero;fill:#000000;fill-opacity:1;" d="M 306.261719 192.148438 C 306.265625 192.125 298.8125 193.324219 297.039062 185.914062 C 297.042969 185.894531 304.285156 184.609375 306.261719 192.148438 "/><path style=" stroke:none;fill-rule:nonzero;fill:#000000;fill-opacity:1;" d="M 316.023438 187.667969 C 316.023438 187.644531 309.738281 191.070312 304.902344 184.761719 C 304.902344 184.742188 310.957031 181.222656 316.023438 187.667969 "/><path style=" stroke:none;fill-rule:nonzero;fill:#000000;fill-opacity:1;" d="M 274.84375 219.671875 C 274.847656 219.65625 267.101562 220.847656 266.085938 213.324219 C 266.085938 213.304688 273.636719 212.023438 274.84375 219.671875 "/><path style=" stroke:none;fill-rule:nonzero;fill:#000000;fill-opacity:1;" d="M 266.972656 232.242188 C 266.972656 232.226562 258.984375 232.558594 259.21875 225.050781 C 259.21875 225.039062 267.035156 224.605469 266.972656 232.242188 "/><path style=" stroke:none;fill-rule:nonzero;fill:#000000;fill-opacity:1;" d="M 255.203125 229.910156 C 255.203125 229.902344 247.359375 227.707031 250.707031 220.953125 C 250.707031 220.949219 258.449219 222.988281 255.203125 229.910156 "/><path style=" stroke:none;fill-rule:nonzero;fill:#000000;fill-opacity:1;" d="M 245.089844 225.714844 C 245.09375 225.722656 238.386719 221.324219 244.300781 216.144531 C 244.300781 216.148438 250.980469 220.335938 245.089844 225.714844 "/><path style=" stroke:none;fill-rule:nonzero;fill:#000000;fill-opacity:1;" d="M 234.816406 221.117188 C 234.816406 221.128906 231.160156 214.515625 239.402344 212.679688 C 239.402344 212.695312 243.160156 219.050781 234.816406 221.117188 "/><path style=" stroke:none;fill-rule:nonzero;fill:#000000;fill-opacity:1;" d="M 265.765625 218.753906 C 265.765625 218.734375 258.007812 220.027344 256.984375 212.46875 C 256.988281 212.453125 264.550781 211.0625 265.765625 218.753906 "/><path style=" stroke:none;fill-rule:nonzero;fill:#000000;fill-opacity:1;" d="M 284.425781 218.476562 C 284.429688 218.457031 276.699219 219.527344 275.6875 212.046875 C 275.691406 212.027344 283.226562 210.871094 284.425781 218.476562 "/><path style=" stroke:none;fill-rule:nonzero;fill:#000000;fill-opacity:1;" d="M 294.90625 214.113281 C 294.90625 214.09375 288.09375 217.449219 283.839844 211.035156 C 283.839844 211.015625 290.414062 207.578125 294.90625 214.113281 "/><path style=" stroke:none;fill-rule:nonzero;fill:#000000;fill-opacity:1;" d="M 322.441406 183.125 C 322.441406 183.113281 317.785156 186.175781 313.359375 181.417969 C 313.359375 181.40625 317.824219 178.257812 322.441406 183.125 "/><path style=" stroke:none;fill-rule:nonzero;fill:#000000;fill-opacity:1;" d="M 53.472656 176.574219 C 53.476562 176.550781 61.035156 184.570312 73.960938 174.957031 C 73.964844 174.9375 66.761719 166.460938 53.472656 176.574219 "/><path style=" stroke:none;fill-rule:nonzero;fill:#000000;fill-opacity:1;" d="M 75.613281 202.898438 C 75.617188 202.882812 81.878906 210.484375 93.117188 203.019531 C 93.121094 203.011719 87.203125 195.148438 75.613281 202.898438 "/><path style=" stroke:none;fill-rule:nonzero;fill:#000000;fill-opacity:1;" d="M 89.117188 217.304688 C 89.117188 217.285156 96.289062 223.992188 106.136719 216.03125 C 106.140625 216.019531 99.320312 209.105469 89.117188 217.304688 "/><path style=" stroke:none;fill-rule:nonzero;fill:#000000;fill-opacity:1;" d="M 83.992188 190.644531 C 83.988281 190.621094 93.128906 191.070312 95.503906 181.777344 C 95.5 181.75 86.609375 181.144531 83.992188 190.644531 "/><path style=" stroke:none;fill-rule:nonzero;fill:#000000;fill-opacity:1;" d="M 109.886719 191.25 C 109.886719 191.238281 118.929688 187.984375 116.066406 179.277344 C 116.0625 179.265625 107.164062 182.320312 109.886719 191.25 "/><path style=" stroke:none;fill-rule:nonzero;fill:#000000;fill-opacity:1;" d="M 96.808594 193.207031 C 96.804688 193.183594 107.320312 191.65625 105.679688 181.703125 C 105.675781 181.679688 95.363281 183.050781 96.808594 193.207031 "/><path style=" stroke:none;fill-rule:nonzero;fill:#000000;fill-opacity:1;" d="M 74.058594 185.851562 C 74.058594 185.828125 81.011719 188.878906 86.566406 181.273438 C 86.566406 181.257812 79.875 178.050781 74.058594 185.851562 "/><path style=" stroke:none;fill-rule:nonzero;fill:#000000;fill-opacity:1;" d="M 67.71875 182.019531 C 67.71875 182.007812 72.859375 184.890625 77.917969 179.058594 C 77.917969 179.050781 72.992188 176.046875 67.71875 182.019531 "/><path style=" stroke:none;fill-rule:nonzero;fill:#000000;fill-opacity:1;" d="M 101.058594 222.746094 C 101.058594 222.738281 106.242188 226.15625 111.347656 220.617188 C 111.347656 220.613281 106.386719 217.101562 101.058594 222.746094 "/><path style=" stroke:none;fill-rule:nonzero;fill:#000000;fill-opacity:1;" d="M 134.0625 225.28125 C 134.058594 225.28125 142.578125 221.195312 138.125 212.882812 C 138.121094 212.875 129.699219 216.722656 134.0625 225.28125 "/><path style=" stroke:none;fill-rule:nonzero;fill:#000000;fill-opacity:1;" d="M 147.339844 221.074219 C 147.339844 221.074219 155.511719 214.710938 147.082031 207.820312 C 147.078125 207.828125 138.910156 213.90625 147.339844 221.074219 "/><path style=" stroke:none;fill-rule:nonzero;fill:#000000;fill-opacity:1;" d="M 121.582031 226.347656 C 121.582031 226.335938 130.128906 225.359375 129.738281 216.851562 C 129.738281 216.839844 121.375 217.644531 121.582031 226.347656 "/><path style=" stroke:none;fill-rule:nonzero;fill:#000000;fill-opacity:1;" d="M 112.953125 226.441406 C 112.953125 226.433594 119.804688 226.195312 120.277344 219.339844 C 120.277344 219.335938 113.589844 219.433594 112.953125 226.441406 "/></g></svg>